<svg width="32" height="32" viewBox="0 0 32 32" fill="none" xmlns="http://www.w3.org/2000/svg">
<rect width="32" height="32" rx="16" fill="white"/>
<path d="M26.3936 7.6928L17.6 2.61763C16.6144 2.04803 15.3856 2.04803 14.4 2.61763L5.6064 7.6928C4.62081 8.2624 4.00641 9.3248 4.00641 10.464V20.6208C4.00641 21.76 4.62081 22.8224 5.6064 23.392L14.4 28.4672C14.8928 28.7552 15.4496 28.896 16 28.896C16.5504 28.896 17.1072 28.7552 17.6 28.4672L26.3936 23.392C27.3792 22.8224 27.9936 21.76 27.9936 20.6208V10.464C27.9936 9.3248 27.3792 8.2624 26.3936 7.6928ZM27.7376 20.6208C27.7376 21.6704 27.1744 22.6432 26.2656 23.168L17.472 28.2496C16.5632 28.7744 15.4368 28.7744 14.528 28.2496L5.7344 23.168C4.82561 22.6432 4.26241 21.6704 4.26241 20.6208V10.464C4.26241 9.4144 4.82561 8.4416 5.7344 7.9168L14.528 2.84163C14.9824 2.57923 15.488 2.45123 16 2.45123C16.512 2.45123 17.0176 2.58563 17.472 2.84163L26.2656 7.9168C27.1744 8.4416 27.7376 9.4144 27.7376 10.464V20.6208Z" fill="#5526C4"/>
<path d="M13.4784 14.0991H17.2416C17.9456 14.0991 18.5216 13.5231 18.5216 12.8191V4.69109L17.28 3.98069C16.4864 3.52629 15.5136 3.52629 14.72 3.98069L6.62399 8.6527C5.83039 9.1071 5.34399 9.9519 5.34399 10.8671V20.2175C5.34399 21.1327 5.83039 21.9775 6.62399 22.4319L10.2336 24.5183V10.1695C10.2336 9.4655 10.8096 8.8895 11.5136 8.8895H13.4784V14.0991Z" fill="black"/>
<path d="M25.376 8.65281L21.7664 6.56641V20.9152C21.7664 21.6192 21.1904 22.1952 20.4864 22.1952H18.5216V16.8448C18.5216 16.7744 18.464 16.7168 18.3936 16.7168H14.7584C14.0544 16.7168 13.4784 17.2928 13.4784 17.9968V26.3872L14.72 27.104C15.5136 27.5584 16.4864 27.5584 17.28 27.104L25.376 22.432C26.1696 21.9776 26.656 21.1328 26.656 20.2176V10.8672C26.656 9.95201 26.1696 9.10721 25.376 8.65281Z" fill="#5526C4"/>
</svg>
