<svg width="54" height="54" viewBox="0 0 54 54" fill="none" xmlns="http://www.w3.org/2000/svg">
<path d="M24 1.73205C25.8564 0.660254 28.1436 0.660254 30 1.73205L47.3827 11.7679C49.2391 12.8397 50.3827 14.8205 50.3827 16.9641V37.0359C50.3827 39.1795 49.2391 41.1603 47.3827 42.2321L30 52.2679C28.1436 53.3397 25.8564 53.3397 24 52.2679L6.61731 42.2321C4.76091 41.1603 3.61731 39.1795 3.61731 37.0359V16.9641C3.61731 14.8205 4.76091 12.8397 6.61731 11.7679L24 1.73205Z" fill="white"/>
<path d="M47.7872 11.3856L30.2 1.23526C28.2288 0.0960594 25.7712 0.0960594 23.8 1.23526L6.2128 11.3856C4.24162 12.5248 3.01282 14.6496 3.01282 16.928V37.2416C3.01282 39.52 4.24162 41.6448 6.2128 42.784L23.8 52.9344C24.7856 53.5104 25.8992 53.792 27 53.792C28.1008 53.792 29.2144 53.5104 30.2 52.9344L47.7872 42.784C49.7584 41.6448 50.9872 39.52 50.9872 37.2416V16.928C50.9872 14.6496 49.7584 12.5248 47.7872 11.3856ZM50.4752 37.2416C50.4752 39.3408 49.3488 41.2864 47.5312 42.336L29.944 52.4992C28.1264 53.5488 25.8736 53.5488 24.056 52.4992L6.4688 42.336C4.65122 41.2864 3.52482 39.3408 3.52482 37.2416V16.928C3.52482 14.8288 4.65122 12.8832 6.4688 11.8336L24.056 1.68326C24.9648 1.15846 25.976 0.902459 27 0.902459C28.024 0.902459 29.0352 1.17126 29.944 1.68326L47.5312 11.8336C49.3488 12.8832 50.4752 14.8288 50.4752 16.928V37.2416Z" fill="#5526C4"/>
<path d="M21.9568 24.1982H29.4832C30.8912 24.1982 32.0432 23.0462 32.0432 21.6382V5.38218L29.56 3.96139C27.9728 3.05259 26.0272 3.05259 24.44 3.96139L8.24799 13.3054C6.66079 14.2142 5.68799 15.9038 5.68799 17.7342V36.435C5.68799 38.2654 6.66079 39.955 8.24799 40.8638L15.4672 45.0366V16.339C15.4672 14.931 16.6192 13.779 18.0272 13.779H21.9568V24.1982Z" fill="black"/>
<path d="M45.752 13.3056L38.5328 9.13281V37.8304C38.5328 39.2384 37.3808 40.3904 35.9728 40.3904H32.0432V29.6896C32.0432 29.5488 31.928 29.4336 31.7872 29.4336H24.5168C23.1088 29.4336 21.9568 30.5856 21.9568 31.9936V48.7744L24.44 50.208C26.0272 51.1168 27.9728 51.1168 29.56 50.208L45.752 40.864C47.3392 39.9552 48.312 38.2656 48.312 36.4352V17.7344C48.312 15.904 47.3392 14.2144 45.752 13.3056Z" fill="#5526C4"/>
</svg>
