<svg width="181" height="56" viewBox="0 0 181 56" fill="none" xmlns="http://www.w3.org/2000/svg">
<path d="M170.289 0.341797H10.3773C4.83013 0.341797 0.333252 4.79991 0.333252 10.2993V45.1504C0.333252 50.6498 4.83013 55.1079 10.3773 55.1079H170.289C175.836 55.1079 180.333 50.6498 180.333 45.1504V10.2993C180.333 4.79991 175.836 0.341797 170.289 0.341797Z" fill="#8A8A8A"/>
<path d="M58.1298 8.40271C58.7557 8.40271 59.3026 8.5229 59.7707 8.76326C60.2444 8.99804 60.6081 9.33901 60.8618 9.78622C61.1211 10.2278 61.2509 10.7449 61.2509 11.3374C61.2509 11.9299 61.1211 12.4442 60.8618 12.8802C60.6081 13.3162 60.2444 13.6516 59.7707 13.8864C59.3026 14.1156 58.7557 14.2302 58.1298 14.2302H56.2098V8.40271H58.1298ZM58.1298 13.4504C58.8179 13.4504 59.3449 13.2659 59.7115 12.897C60.0781 12.5281 60.2613 12.0082 60.2613 11.3374C60.2613 10.661 60.0781 10.1328 59.7115 9.75268C59.3449 9.37255 58.8179 9.1825 58.1298 9.1825H57.1741V13.4504H58.1298ZM64.2282 14.3057C63.7883 14.3057 63.3908 14.2078 63.0356 14.0122C62.6803 13.811 62.4012 13.5315 62.1982 13.1737C61.9952 12.8104 61.8937 12.3911 61.8937 11.916C61.8937 11.4464 61.9979 11.03 62.2067 10.6666C62.4152 10.3033 62.6999 10.0238 63.0609 9.82814C63.4217 9.63248 63.8248 9.53467 64.2704 9.53467C64.7158 9.53467 65.1189 9.63248 65.48 9.82814C65.8408 10.0238 66.1254 10.3033 66.3342 10.6666C66.5428 11.03 66.6472 11.4464 66.6472 11.916C66.6472 12.3855 66.5399 12.802 66.3258 13.1653C66.1114 13.5287 65.8183 13.811 65.4461 14.0122C65.0795 14.2078 64.6735 14.3057 64.2282 14.3057ZM64.2282 13.4756C64.4761 13.4756 64.7074 13.4169 64.9217 13.2995C65.1416 13.1821 65.3193 13.006 65.4546 12.7712C65.5899 12.5365 65.6576 12.2514 65.6576 11.916C65.6576 11.5806 65.5926 11.2983 65.4631 11.0691C65.3333 10.8343 65.1612 10.6582 64.9471 10.5409C64.7327 10.4235 64.5015 10.3648 64.2535 10.3648C64.0053 10.3648 63.7741 10.4235 63.56 10.5409C63.3512 10.6582 63.1849 10.8343 63.0609 11.0691C62.9367 11.2983 62.8749 11.5806 62.8749 11.916C62.8749 12.4135 63.0017 12.7992 63.2555 13.0731C63.5148 13.3414 63.8391 13.4756 64.2282 13.4756ZM73.8593 9.61013L72.413 14.2302H71.398L70.4592 10.8176L69.5203 14.2302H68.5053L67.0505 9.61013H68.0317L69.0044 13.3246L69.994 9.61013H71.0005L71.9478 13.3079L72.912 9.61013H73.8593ZM76.9312 9.53467C77.2978 9.53467 77.6248 9.61013 77.9124 9.76106C78.2055 9.91199 78.4339 10.1356 78.5975 10.4319C78.7611 10.7281 78.8428 11.0859 78.8428 11.5051V14.2302H77.887V11.6477C77.887 11.234 77.7826 10.9182 77.5741 10.7002C77.3655 10.4766 77.0806 10.3648 76.7198 10.3648C76.359 10.3648 76.0714 10.4766 75.857 10.7002C75.6485 10.9182 75.5441 11.234 75.5441 11.6477V14.2302H74.5799V9.61013H75.5441V10.1384C75.7019 9.94833 75.9023 9.80018 76.1446 9.69398C76.3928 9.58778 76.655 9.53467 76.9312 9.53467ZM81.0369 8.02539V14.2302H80.0726V8.02539H81.0369ZM84.3244 14.3057C83.8846 14.3057 83.4871 14.2078 83.1318 14.0122C82.7766 13.811 82.4975 13.5315 82.2945 13.1737C82.0915 12.8104 81.99 12.3911 81.99 11.916C81.99 11.4464 82.0941 11.03 82.3029 10.6666C82.5115 10.3033 82.7962 10.0238 83.1572 9.82814C83.518 9.63248 83.9211 9.53467 84.3667 9.53467C84.8121 9.53467 85.2152 9.63248 85.5762 9.82814C85.937 10.0238 86.2217 10.3033 86.4305 10.6666C86.6391 11.03 86.7435 11.4464 86.7435 11.916C86.7435 12.3855 86.6362 12.802 86.4221 13.1653C86.2077 13.5287 85.9146 13.811 85.5424 14.0122C85.1758 14.2078 84.7698 14.3057 84.3244 14.3057ZM84.3244 13.4756C84.5724 13.4756 84.8036 13.4169 85.018 13.2995C85.2379 13.1821 85.4155 13.006 85.5509 12.7712C85.6862 12.5365 85.7539 12.2514 85.7539 11.916C85.7539 11.5806 85.6888 11.2983 85.5593 11.0691C85.4296 10.8343 85.2575 10.6582 85.0434 10.5409C84.829 10.4235 84.5977 10.3648 84.3498 10.3648C84.1016 10.3648 83.8704 10.4235 83.6563 10.5409C83.4474 10.6582 83.2812 10.8343 83.1572 11.0691C83.033 11.2983 82.9711 11.5806 82.9711 11.916C82.9711 12.4135 83.098 12.7992 83.3518 13.0731C83.6111 13.3414 83.9354 13.4756 84.3244 13.4756ZM87.3752 11.8992C87.3752 11.4352 87.4711 11.0244 87.6628 10.6666C87.8602 10.3089 88.1251 10.0322 88.4578 9.83652C88.7962 9.63529 89.1683 9.53467 89.5743 9.53467C89.9409 9.53467 90.2594 9.60733 90.5301 9.75268C90.8063 9.89241 91.0262 10.0685 91.1898 10.2809V9.61013H92.1625V14.2302H91.1898V13.5426C91.0262 13.7606 90.8036 13.9423 90.5216 14.0877C90.2396 14.233 89.9182 14.3057 89.5574 14.3057C89.157 14.3057 88.7906 14.205 88.4578 14.0038C88.1251 13.797 87.8602 13.5119 87.6628 13.1486C87.4711 12.7796 87.3752 12.3632 87.3752 11.8992ZM91.1898 11.916C91.1898 11.5973 91.1221 11.3206 90.9868 11.0859C90.857 10.8511 90.6852 10.6722 90.4709 10.5492C90.2565 10.4263 90.0255 10.3648 89.7773 10.3648C89.5291 10.3648 89.2981 10.4263 89.0837 10.5492C88.8694 10.6666 88.6947 10.8427 88.5593 11.0775C88.4296 11.3067 88.3648 11.5806 88.3648 11.8992C88.3648 12.2178 88.4296 12.4973 88.5593 12.7377C88.6947 12.9781 88.8694 13.1625 89.0837 13.2911C89.3036 13.4141 89.5349 13.4756 89.7773 13.4756C90.0255 13.4756 90.2565 13.4141 90.4709 13.2911C90.6852 13.1681 90.857 12.9892 90.9868 12.7545C91.1221 12.5141 91.1898 12.2346 91.1898 11.916ZM93.1077 11.8992C93.1077 11.4352 93.2034 11.0244 93.3953 10.6666C93.5925 10.3089 93.8576 10.0322 94.1903 9.83652C94.5287 9.63529 94.9035 9.53467 95.3153 9.53467C95.6198 9.53467 95.9184 9.60175 96.2118 9.73591C96.5105 9.86448 96.7473 10.0378 96.9223 10.2558V8.02539H97.895V14.2302H96.9223V13.5343C96.7643 13.7578 96.5443 13.9423 96.2626 14.0877C95.9861 14.233 95.6676 14.3057 95.3068 14.3057C94.9008 14.3057 94.5287 14.205 94.1903 14.0038C93.8576 13.797 93.5925 13.5119 93.3953 13.1486C93.2034 12.7796 93.1077 12.3632 93.1077 11.8992ZM96.9223 11.916C96.9223 11.5973 96.8547 11.3206 96.7193 11.0859C96.5895 10.8511 96.4175 10.6722 96.2034 10.5492C95.989 10.4263 95.7577 10.3648 95.5098 10.3648C95.2616 10.3648 95.0303 10.4263 94.8162 10.5492C94.6019 10.6666 94.4272 10.8427 94.2918 11.0775C94.1621 11.3067 94.0973 11.5806 94.0973 11.8992C94.0973 12.2178 94.1621 12.4973 94.2918 12.7377C94.4272 12.9781 94.6019 13.1625 94.8162 13.2911C95.0362 13.4141 95.2672 13.4756 95.5098 13.4756C95.7577 13.4756 95.989 13.4141 96.2034 13.2911C96.4175 13.1681 96.5895 12.9892 96.7193 12.7545C96.8547 12.5141 96.9223 12.2346 96.9223 11.916ZM103.38 14.3057C102.94 14.3057 102.543 14.2078 102.188 14.0122C101.832 13.811 101.553 13.5315 101.35 13.1737C101.147 12.8104 101.046 12.3911 101.046 11.916C101.046 11.4464 101.15 11.03 101.359 10.6666C101.567 10.3033 101.852 10.0238 102.213 9.82814C102.574 9.63248 102.977 9.53467 103.422 9.53467C103.868 9.53467 104.271 9.63248 104.632 9.82814C104.993 10.0238 105.277 10.3033 105.486 10.6666C105.695 11.03 105.799 11.4464 105.799 11.916C105.799 12.3855 105.692 12.802 105.478 13.1653C105.263 13.5287 104.97 13.811 104.598 14.0122C104.231 14.2078 103.825 14.3057 103.38 14.3057ZM103.38 13.4756C103.628 13.4756 103.859 13.4169 104.074 13.2995C104.294 13.1821 104.471 13.006 104.607 12.7712C104.742 12.5365 104.81 12.2514 104.81 11.916C104.81 11.5806 104.745 11.2983 104.615 11.0691C104.485 10.8343 104.313 10.6582 104.099 10.5409C103.885 10.4235 103.653 10.3648 103.405 10.3648C103.157 10.3648 102.926 10.4235 102.712 10.5409C102.503 10.6582 102.337 10.8343 102.213 11.0691C102.089 11.2983 102.027 11.5806 102.027 11.916C102.027 12.4135 102.154 12.7992 102.407 13.0731C102.667 13.3414 102.991 13.4756 103.38 13.4756ZM109.104 9.53467C109.47 9.53467 109.797 9.61013 110.085 9.76106C110.378 9.91199 110.606 10.1356 110.77 10.4319C110.933 10.7281 111.015 11.0859 111.015 11.5051V14.2302H110.059V11.6477C110.059 11.234 109.955 10.9182 109.746 10.7002C109.538 10.4766 109.253 10.3648 108.892 10.3648C108.531 10.3648 108.244 10.4766 108.029 10.7002C107.821 10.9182 107.716 11.234 107.716 11.6477V14.2302H106.752V9.61013H107.716V10.1384C107.874 9.94833 108.074 9.80018 108.317 9.69398C108.565 9.58778 108.827 9.53467 109.104 9.53467ZM115.567 10.3899V12.9473C115.567 13.1206 115.607 13.2464 115.686 13.3246C115.77 13.3973 115.911 13.4336 116.109 13.4336H116.701V14.2302H115.939C115.505 14.2302 115.172 14.1296 114.941 13.9283C114.71 13.7271 114.595 13.4001 114.595 12.9473V10.3899H114.045V9.61013H114.595V8.4614H115.567V9.61013H116.701V10.3899H115.567ZM120 9.53467C120.355 9.53467 120.671 9.61013 120.947 9.76106C121.229 9.91199 121.449 10.1356 121.607 10.4319C121.77 10.7281 121.852 11.0859 121.852 11.5051V14.2302H120.896V11.6477C120.896 11.234 120.792 10.9182 120.583 10.7002C120.375 10.4766 120.09 10.3648 119.729 10.3648C119.368 10.3648 119.081 10.4766 118.866 10.7002C118.658 10.9182 118.553 11.234 118.553 11.6477V14.2302H117.589V8.02539H118.553V10.1468C118.717 9.95111 118.923 9.80018 119.171 9.69398C119.425 9.58778 119.701 9.53467 120 9.53467ZM127.353 11.807C127.353 11.9802 127.342 12.1368 127.32 12.2765H123.759C123.787 12.6455 123.925 12.9417 124.173 13.1653C124.421 13.3889 124.726 13.5007 125.087 13.5007C125.605 13.5007 125.972 13.2855 126.186 12.8551H127.227C127.086 13.2799 126.829 13.6293 126.457 13.9032C126.09 14.1715 125.633 14.3057 125.087 14.3057C124.641 14.3057 124.241 14.2078 123.886 14.0122C123.536 13.811 123.26 13.5315 123.057 13.1737C122.859 12.8104 122.761 12.3911 122.761 11.916C122.761 11.4408 122.857 11.0244 123.048 10.6666C123.246 10.3033 123.519 10.0238 123.869 9.82814C124.224 9.63248 124.63 9.53467 125.087 9.53467C125.526 9.53467 125.918 9.62971 126.262 9.81975C126.606 10.0098 126.874 10.2781 127.066 10.6247C127.257 10.9657 127.353 11.3598 127.353 11.807ZM126.347 11.5051C126.341 11.1529 126.214 10.8707 125.966 10.6582C125.718 10.4458 125.411 10.3396 125.044 10.3396C124.712 10.3396 124.427 10.4458 124.19 10.6582C123.953 10.8651 123.812 11.1474 123.767 11.5051H126.347Z" fill="white"/>
<path d="M66.5435 38.6905H60.0826L58.9724 41.8161H56.3303L61.8588 26.4964H64.7895L70.318 41.8161H67.6537L66.5435 38.6905ZM65.8331 36.6435L63.3242 29.5339L60.7931 36.6435H65.8331ZM75.2528 31.4709C75.682 30.9133 76.2667 30.4437 77.0068 30.0622C77.7469 29.6807 78.5832 29.4899 79.5157 29.4899C80.5814 29.4899 81.5509 29.754 82.4242 30.2823C83.3123 30.7959 84.008 31.5223 84.5113 32.4614C85.0146 33.4005 85.2662 34.4791 85.2662 35.697C85.2662 36.915 85.0146 38.0082 84.5113 38.9767C84.008 39.9305 83.3123 40.6789 82.4242 41.2218C81.5509 41.7501 80.5814 42.0142 79.5157 42.0142C78.5832 42.0142 77.7543 41.8308 77.029 41.4639C76.3037 41.0824 75.7116 40.6128 75.2528 40.0552V47.583H72.7217V29.688H75.2528V31.4709ZM82.6907 35.697C82.6907 34.8606 82.5131 34.1416 82.1578 33.5399C81.8174 32.9236 81.3585 32.4614 80.7812 32.1532C80.2188 31.8304 79.6119 31.669 78.9606 31.669C78.3242 31.669 77.7173 31.8304 77.14 32.1532C76.5775 32.4761 76.1187 32.9456 75.7634 33.562C75.423 34.1783 75.2528 34.9046 75.2528 35.7411C75.2528 36.5775 75.423 37.3112 75.7634 37.9422C76.1187 38.5585 76.5775 39.028 77.14 39.3509C77.7173 39.6737 78.3242 39.8351 78.9606 39.8351C79.6119 39.8351 80.2188 39.6737 80.7812 39.3509C81.3585 39.0134 81.8174 38.5291 82.1578 37.8981C82.5131 37.2672 82.6907 36.5335 82.6907 35.697ZM90.3004 31.4709C90.7296 30.9133 91.3143 30.4437 92.0544 30.0622C92.7945 29.6807 93.6308 29.4899 94.5633 29.4899C95.629 29.4899 96.5985 29.754 97.4718 30.2823C98.3599 30.7959 99.0556 31.5223 99.5589 32.4614C100.062 33.4005 100.314 34.4791 100.314 35.697C100.314 36.915 100.062 38.0082 99.5589 38.9767C99.0556 39.9305 98.3599 40.6789 97.4718 41.2218C96.5985 41.7501 95.629 42.0142 94.5633 42.0142C93.6308 42.0142 92.8019 41.8308 92.0766 41.4639C91.3513 41.0824 90.7592 40.6128 90.3004 40.0552V47.583H87.7693V29.688H90.3004V31.4709ZM97.7383 35.697C97.7383 34.8606 97.5606 34.1416 97.2054 33.5399C96.8649 32.9236 96.4061 32.4614 95.8288 32.1532C95.2664 31.8304 94.6595 31.669 94.0082 31.669C93.3717 31.669 92.7649 31.8304 92.1876 32.1532C91.6251 32.4761 91.1663 32.9456 90.811 33.562C90.4706 34.1783 90.3004 34.9046 90.3004 35.7411C90.3004 36.5775 90.4706 37.3112 90.811 37.9422C91.1663 38.5585 91.6251 39.028 92.1876 39.3509C92.7649 39.6737 93.3717 39.8351 94.0082 39.8351C94.6595 39.8351 95.2664 39.6737 95.8288 39.3509C96.4061 39.0134 96.8649 38.5291 97.2054 37.8981C97.5606 37.2672 97.7383 36.5335 97.7383 35.697ZM113.669 41.9702C112.633 41.9702 111.7 41.7941 110.871 41.4419C110.042 41.0751 109.391 40.5615 108.917 39.9011C108.444 39.2408 108.207 38.4704 108.207 37.59H110.916C110.975 38.2503 111.234 38.7933 111.693 39.2188C112.166 39.6443 112.825 39.8571 113.669 39.8571C114.542 39.8571 115.223 39.6517 115.711 39.2408C116.2 38.8153 116.444 38.2723 116.444 37.612C116.444 37.0984 116.289 36.6802 115.978 36.3574C115.682 36.0345 115.304 35.7851 114.845 35.609C114.401 35.4329 113.78 35.2421 112.98 35.0367C111.974 34.7726 111.152 34.5084 110.516 34.2443C109.894 33.9655 109.361 33.5399 108.917 32.9677C108.473 32.3954 108.251 31.6323 108.251 30.6785C108.251 29.7981 108.473 29.0277 108.917 28.3673C109.361 27.707 109.983 27.2008 110.782 26.8486C111.582 26.4964 112.507 26.3203 113.558 26.3203C115.053 26.3203 116.274 26.6945 117.221 27.4429C118.183 28.1766 118.716 29.1891 118.82 30.4804H116.022C115.978 29.9228 115.711 29.4459 115.223 29.0497C114.734 28.6535 114.09 28.4554 113.291 28.4554C112.566 28.4554 111.974 28.6388 111.515 29.0057C111.056 29.3725 110.827 29.9008 110.827 30.5905C110.827 31.06 110.967 31.4489 111.249 31.757C111.545 32.0505 111.915 32.2853 112.359 32.4614C112.803 32.6375 113.41 32.8283 114.179 33.0337C115.201 33.3125 116.03 33.5913 116.666 33.8701C117.317 34.1489 117.865 34.5818 118.309 35.1688C118.768 35.7411 118.997 36.5114 118.997 37.4799C118.997 38.2577 118.783 38.9914 118.353 39.681C117.939 40.3707 117.325 40.9283 116.511 41.3539C115.711 41.7647 114.764 41.9702 113.669 41.9702ZM124.937 31.735V38.4484C124.937 38.9033 125.04 39.2335 125.248 39.4389C125.47 39.6297 125.84 39.7251 126.358 39.7251H127.912V41.8161H125.914C124.774 41.8161 123.901 41.552 123.294 41.0237C122.687 40.4954 122.383 39.637 122.383 38.4484V31.735H120.94V29.688H122.383V26.6725H124.937V29.688H127.912V31.735H124.937ZM135.551 42.0142C134.397 42.0142 133.353 41.7574 132.421 41.2438C131.488 40.7156 130.755 39.9819 130.223 39.0427C129.69 38.0889 129.423 36.9883 129.423 35.7411C129.423 34.5084 129.697 33.4152 130.245 32.4614C130.792 31.5076 131.54 30.7739 132.487 30.2603C133.435 29.7467 134.493 29.4899 135.662 29.4899C136.832 29.4899 137.89 29.7467 138.837 30.2603C139.785 30.7739 140.532 31.5076 141.08 32.4614C141.627 33.4152 141.901 34.5084 141.901 35.7411C141.901 36.9737 141.62 38.0669 141.057 39.0207C140.495 39.9745 139.725 40.7156 138.748 41.2438C137.786 41.7574 136.721 42.0142 135.551 42.0142ZM135.551 39.8351C136.202 39.8351 136.809 39.681 137.372 39.3729C137.949 39.0647 138.415 38.6025 138.771 37.9862C139.126 37.3699 139.303 36.6215 139.303 35.7411C139.303 34.8606 139.133 34.1196 138.793 33.5179C138.452 32.9016 138.001 32.4394 137.438 32.1312C136.876 31.8231 136.269 31.669 135.618 31.669C134.967 31.669 134.36 31.8231 133.797 32.1312C133.25 32.4394 132.813 32.9016 132.487 33.5179C132.162 34.1196 131.999 34.8606 131.999 35.7411C131.999 37.047 132.332 38.0596 132.998 38.7786C133.679 39.4829 134.53 39.8351 135.551 39.8351ZM146.935 31.4489C147.305 30.8326 147.793 30.3557 148.4 30.0182C149.022 29.666 149.754 29.4899 150.598 29.4899V32.0872H149.954C148.962 32.0872 148.207 32.3367 147.689 32.8356C147.186 33.3345 146.935 34.2003 146.935 35.4329V41.8161H144.403V29.688H146.935V31.4489ZM164.137 35.4549C164.137 35.9098 164.107 36.3207 164.048 36.6875H154.701C154.775 37.656 155.137 38.4337 155.789 39.0207C156.44 39.6077 157.239 39.9011 158.187 39.9011C159.548 39.9011 160.51 39.3362 161.073 38.2063H163.804C163.434 39.3215 162.76 40.2386 161.783 40.9577C160.821 41.662 159.622 42.0142 158.187 42.0142C157.017 42.0142 155.966 41.7574 155.034 41.2438C154.116 40.7156 153.391 39.9819 152.858 39.0427C152.34 38.0889 152.081 36.9883 152.081 35.7411C152.081 34.4938 152.332 33.4005 152.836 32.4614C153.354 31.5076 154.072 30.7739 154.989 30.2603C155.922 29.7467 156.988 29.4899 158.187 29.4899C159.341 29.4899 160.37 29.7394 161.273 30.2383C162.176 30.7372 162.879 31.4416 163.382 32.3513C163.885 33.2465 164.137 34.281 164.137 35.4549ZM161.495 34.6625C161.48 33.738 161.147 32.997 160.496 32.4394C159.844 31.8818 159.038 31.603 158.076 31.603C157.202 31.603 156.455 31.8818 155.833 32.4394C155.211 32.9823 154.841 33.7234 154.723 34.6625H161.495Z" fill="white"/>
<path d="M37.7627 28.6111C37.7487 26.0563 38.9143 24.1278 41.2738 22.7076C39.9536 20.8349 37.9593 19.8046 35.3259 19.6027C32.8329 19.4078 30.1083 21.0438 29.1113 21.0438C28.058 21.0438 25.6423 19.6723 23.7463 19.6723C19.8279 19.735 15.6637 22.7703 15.6637 28.9452C15.6637 30.7693 16.0008 32.6536 16.6749 34.5982C17.5738 37.1531 20.818 43.4187 24.2027 43.3141C25.9723 43.2725 27.2223 42.0681 29.5255 42.0681C31.7587 42.0681 32.9172 43.3141 34.8906 43.3141C38.3035 43.2654 41.2387 37.5708 42.0953 35.0088C37.5168 32.8716 37.7627 28.7435 37.7627 28.6111ZM33.7881 17.18C35.7052 14.9244 35.5295 12.8707 35.4734 12.1328C33.781 12.2303 31.8219 13.2745 30.7054 14.5624C29.4763 15.9408 28.7532 17.6465 28.9075 19.5679C30.7403 19.7071 32.4116 18.7742 33.7881 17.18Z" fill="white"/>
</svg>
