<svg width="40" height="36" viewBox="0 0 40 36" fill="none" xmlns="http://www.w3.org/2000/svg">
<rect width="11.2445" height="2.18075" rx="1.09037" transform="matrix(1 0 0 -1 0 22.9309)" fill="#202124"/>
<rect width="8.04151" height="2.18075" rx="1.09037" transform="matrix(1 0 0 -1 2.6582 30.4272)" fill="#202124"/>
<rect width="6.74669" height="2.18075" rx="1.09037" transform="matrix(1 0 0 -1 5.1792 15.5027)" fill="#202124"/>
<rect width="2.18075" height="2.18075" rx="1.09037" transform="matrix(1 0 0 -1 1.56738 15.5027)" fill="#202124"/>
<path d="M39.9834 29.0787L38.4254 9.44454C38.3287 8.1795 37.2584 7.18896 35.9899 7.18896H32.9121V11.7493C32.9121 12.314 32.4549 12.7711 31.8902 12.7711C31.3261 12.7711 30.8683 12.314 30.8683 11.7493V7.18896H21.4672V11.7493C21.4672 12.314 21.0093 12.7711 20.4453 12.7711C19.8805 12.7711 19.4234 12.314 19.4234 11.7493V7.18896H16.3455C15.0771 7.18896 14.0068 8.1795 13.9101 9.44182L12.3514 29.0814C12.2309 30.6544 12.7765 32.2199 13.8481 33.3767C14.9197 34.5334 16.4389 35.1976 18.016 35.1976H34.3195C35.8966 35.1976 37.4158 34.5334 38.4874 33.3766C39.559 32.2199 40.1047 30.6544 39.9834 29.0787ZM30.7716 19.08L25.4865 24.3652C25.2869 24.5648 25.0253 24.6649 24.7637 24.6649C24.5021 24.6649 24.2405 24.5648 24.0409 24.3652L21.5639 21.8882C21.1647 21.489 21.1647 20.8424 21.5639 20.4432C21.9631 20.044 22.6104 20.044 23.0089 20.4432L24.7638 22.1974L29.3267 17.6345C29.7253 17.236 30.3725 17.236 30.7717 17.6345C31.1708 18.0337 31.1708 18.6808 30.7716 19.08Z" fill="#202124"/>
<path d="M18.877 7.1886H20.9214V11.7545C20.9214 12.3191 20.4637 12.7768 19.8992 12.7768C19.3346 12.7768 18.877 12.3191 18.877 11.7545V7.1886Z" fill="white"/>
<path d="M30.3262 7.1886H32.3706V11.7545C32.3706 12.3191 31.913 12.7768 31.3484 12.7768C30.7838 12.7768 30.3262 12.3191 30.3262 11.7545V7.1886Z" fill="white"/>
<path d="M26.1676 0.305664C22.4487 0.305664 19.4233 3.33173 19.4233 7.05065V7.18893H21.4671V7.05065C21.4671 4.45849 23.5756 2.34937 26.1677 2.34937C28.7599 2.34937 30.8683 4.45849 30.8683 7.05065V7.18893H32.912V7.05065C32.912 3.33173 29.8866 0.305664 26.1676 0.305664Z" fill="#202124"/>
<path d="M19.4224 7.1886H21.4668V11.7545C21.4668 12.3191 21.0091 12.7768 20.4446 12.7768C19.88 12.7768 19.4224 12.3191 19.4224 11.7545V7.1886Z" fill="#202124"/>
<path d="M30.8716 7.1886H32.916V11.7545C32.916 12.3191 32.4584 12.7768 31.8938 12.7768C31.3292 12.7768 30.8716 12.3191 30.8716 11.7545V7.1886Z" fill="#202124"/>
</svg>
