<svg width="366" height="32" viewBox="0 0 366 32" fill="none" xmlns="http://www.w3.org/2000/svg">
<path d="M42.7532 31.4596H34.7085L39.7354 0.554199H47.78L42.7532 31.4596Z" fill="#0066B3"/>
<path d="M27.9372 0.554199L20.2646 21.811L19.3552 17.2306L16.6515 3.30741C16.6515 3.30741 16.3208 0.554199 12.8318 0.554199H0.148822L0 1.07508C2.96893 1.82057 5.80703 3.0138 8.41672 4.61374L15.4114 31.4596H23.795L36.5937 0.554199H27.9372Z" fill="#0066B3"/>
<path d="M91.228 31.4592H98.6195L92.1788 0.553831H85.7051C84.9214 0.493624 84.139 0.684816 83.4714 1.09964C82.8038 1.51446 82.2859 2.1313 81.9928 2.86057L69.9878 31.4592H78.3797L80.0333 26.8706H90.2855L91.228 31.4592ZM82.3731 20.5291L86.6063 8.95402L88.9792 20.5291H82.3731Z" fill="#0066B3"/>
<path d="M70.6159 7.98679L71.7652 1.37247C69.4424 0.531942 67 0.0685913 64.5307 0C60.5373 0 51.0541 1.74453 51.0541 10.2357C51.0541 18.2225 62.1827 18.3217 62.1827 22.5135C62.1827 26.7053 52.2033 25.9529 48.9044 23.3403L47.7056 30.244C50.5827 31.4527 53.6799 32.0496 56.8003 31.9968C62.2901 31.9968 70.5746 29.1526 70.5746 21.4139C70.5746 13.3775 59.3468 12.6251 59.3468 9.13603C59.3468 5.64698 67.1765 6.08517 70.6159 7.98679Z" fill="#0066B3"/>
<path d="M19.3552 17.2388L16.6515 3.30741C16.6515 3.30741 16.3208 0.554199 12.8318 0.554199H0.148822L0 1.07508C4.36787 2.18868 8.44334 4.23347 11.9471 7.0693C15.273 9.74371 17.8294 13.253 19.3552 17.2388Z" fill="#FAA634"/>
<path fill-rule="evenodd" clip-rule="evenodd" d="M165.198 27.8361C168.104 30.5097 171.91 31.9896 175.858 31.9806C180.099 31.9806 184.166 30.2959 187.165 27.2972C190.164 24.2984 191.849 20.2312 191.849 15.9903C191.849 11.7494 190.164 7.68225 187.165 4.68349C184.166 1.68473 180.099 4.07965e-05 175.858 4.07965e-05C171.91 -0.00895782 168.104 1.47098 165.198 4.14459C163.547 5.644 162.228 7.47211 161.325 9.51157C160.422 11.551 159.956 13.7567 159.956 15.9871C159.956 18.2175 160.422 20.4232 161.325 22.4626C162.228 24.5021 163.547 26.3302 165.198 27.8296V27.8361Z" fill="#FCB131"/>
<path fill-rule="evenodd" clip-rule="evenodd" d="M189.613 24.9288C189.613 24.8638 189.625 24.7994 189.65 24.7392C189.675 24.679 189.711 24.6244 189.757 24.5784C189.803 24.5324 189.858 24.496 189.918 24.4713C189.978 24.4467 190.043 24.4342 190.108 24.4346C190.174 24.4315 190.241 24.4421 190.304 24.4655C190.367 24.4889 190.424 24.5248 190.473 24.5709C190.521 24.6171 190.56 24.6726 190.587 24.7341C190.613 24.7956 190.627 24.8618 190.628 24.9288C190.63 24.9977 190.618 25.0664 190.593 25.1305C190.567 25.1946 190.529 25.2528 190.48 25.3016C190.432 25.3503 190.373 25.3886 190.309 25.4139C190.245 25.4393 190.176 25.4512 190.108 25.4489C190.041 25.4486 189.974 25.4347 189.913 25.4081C189.851 25.3815 189.796 25.3427 189.75 25.2942C189.703 25.2456 189.668 25.1882 189.644 25.1254C189.621 25.0626 189.61 24.9958 189.613 24.9288ZM190.108 25.3391C190.216 25.3366 190.319 25.2926 190.395 25.2162C190.471 25.1398 190.515 25.0369 190.518 24.9288C190.516 24.8767 190.504 24.8253 190.483 24.7777C190.461 24.7302 190.43 24.6873 190.392 24.6516C190.354 24.6159 190.309 24.5881 190.261 24.5697C190.212 24.5513 190.16 24.5427 190.108 24.5444C190.006 24.5461 189.909 24.5871 189.838 24.6589C189.766 24.7306 189.725 24.8274 189.723 24.9288C189.724 25.0329 189.765 25.1326 189.836 25.2086C189.907 25.2845 190.004 25.331 190.108 25.3391ZM190.053 25.1743H189.943V24.7092H190.133C190.172 24.7049 190.211 24.714 190.243 24.735C190.298 24.7641 190.298 24.7899 190.298 24.8449C190.298 24.8998 190.272 24.9547 190.217 24.9547L190.327 25.1743H190.188L190.133 24.9838H190.053V24.8998H190.162C190.188 24.8998 190.188 24.8739 190.188 24.8449C190.188 24.8158 190.188 24.819 190.162 24.7899H190.053V25.1743Z" fill="#FCB131"/>
<path fill-rule="evenodd" clip-rule="evenodd" d="M170.331 14.3169C170.276 13.7419 170.166 13.1928 170.057 12.6145H160.34C160.457 12.0495 160.604 11.491 160.779 10.9412H169.585C169.391 10.3662 169.172 9.78796 168.939 9.2388H161.467C161.738 8.66379 162.042 8.08879 162.372 7.53963H167.999C167.636 6.95515 167.232 6.39707 166.791 5.86953H163.58C164.075 5.2639 164.615 4.69595 165.195 4.17036C163.27 2.44853 160.955 1.22006 158.451 0.590635C155.946 -0.0387945 153.326 -0.0503529 150.815 0.556954C148.305 1.16426 145.98 2.37226 144.04 4.07704C142.1 5.78183 140.603 7.93237 139.678 10.3437C138.752 12.7551 138.427 15.355 138.729 17.92C139.031 20.485 139.952 22.9382 141.412 25.0686C142.872 27.1991 144.827 28.943 147.111 30.1504C149.394 31.3577 151.936 31.9925 154.519 31.9999C158.475 32.0022 162.287 30.5157 165.198 27.836C165.77 27.3191 166.303 26.7598 166.791 26.1627H163.58C163.146 25.6178 162.743 25.0495 162.372 24.4603H167.999C168.352 23.917 168.664 23.3479 168.932 22.7579H161.467C161.21 22.212 160.98 21.6535 160.779 21.0845H169.585C169.776 20.5354 169.908 19.9604 170.05 19.3821C170.171 18.8197 170.262 18.2515 170.325 17.6797C170.38 17.1237 170.407 16.5652 170.406 16.0064C170.406 15.4314 170.38 14.8532 170.325 14.304L170.331 14.3169Z" fill="#ED1C2E"/>
<path fill-rule="evenodd" clip-rule="evenodd" d="M189.613 19.7245C189.61 19.6575 189.621 19.5907 189.644 19.5279C189.668 19.4651 189.703 19.4077 189.75 19.3591C189.796 19.3106 189.851 19.2718 189.913 19.2452C189.974 19.2186 190.041 19.2047 190.108 19.2044C190.176 19.2021 190.245 19.214 190.309 19.2394C190.373 19.2647 190.432 19.303 190.48 19.3517C190.529 19.4005 190.567 19.4587 190.593 19.5228C190.618 19.5869 190.63 19.6556 190.628 19.7245C190.628 19.7911 190.615 19.857 190.589 19.9185C190.564 19.9801 190.526 20.036 190.479 20.0831C190.432 20.1302 190.376 20.1675 190.315 20.193C190.253 20.2185 190.187 20.2316 190.12 20.2316C190.054 20.2316 189.988 20.2185 189.926 20.193C189.865 20.1675 189.809 20.1302 189.762 20.0831C189.715 20.036 189.677 19.9801 189.652 19.9185C189.626 19.857 189.613 19.7911 189.613 19.7245ZM190.108 20.1089C190.21 20.1089 190.307 20.0684 190.379 19.9963C190.451 19.9242 190.492 19.8264 190.492 19.7245C190.492 19.6225 190.451 19.5247 190.379 19.4526C190.307 19.3805 190.21 19.34 190.108 19.34C190.006 19.34 189.908 19.3805 189.836 19.4526C189.764 19.5247 189.723 19.6225 189.723 19.7245C189.723 19.8264 189.764 19.9242 189.836 19.9963C189.908 20.0684 190.006 20.1089 190.108 20.1089ZM190.053 19.9441H189.943V19.5048H190.259C190.314 19.5339 190.314 19.5888 190.314 19.6437C190.311 19.6671 190.301 19.6893 190.287 19.7084C190.273 19.7275 190.255 19.743 190.234 19.7535L190.343 19.9441H190.204L190.15 19.7794H190.069V19.6986H190.124C190.15 19.6986 190.179 19.6986 190.179 19.6695C190.179 19.6405 190.204 19.6437 190.204 19.6146C190.204 19.6112 190.204 19.6079 190.202 19.6047C190.201 19.6016 190.199 19.5988 190.197 19.5964C190.194 19.594 190.192 19.592 190.189 19.5907C190.185 19.5895 190.182 19.5888 190.179 19.5888C190.179 19.5597 190.15 19.5888 190.124 19.5888H190.069V19.9441H190.053Z" fill="white"/>
<path fill-rule="evenodd" clip-rule="evenodd" d="M159.79 20.6289C159.371 20.7588 158.937 20.8327 158.498 20.8486C157.674 20.8486 157.18 20.3285 157.18 19.3949C157.187 19.1927 157.205 18.991 157.235 18.7908L157.345 18.1448L157.429 17.6214L158.172 13.1377H159.819L159.626 14.1262H160.669L160.423 15.7737H159.38L158.941 18.4678C158.921 18.5579 158.911 18.65 158.912 18.7424C158.912 19.1009 159.076 19.2366 159.49 19.2366C159.665 19.2341 159.839 19.2157 160.01 19.1817L159.79 20.6354V20.6289Z" fill="#003473"/>
<path fill-rule="evenodd" clip-rule="evenodd" d="M165.118 20.574C164.546 20.7373 163.955 20.821 163.36 20.8227C161.493 20.8227 160.424 19.8342 160.424 17.8863C160.424 15.6251 161.684 13.9614 163.441 13.9614C164.843 13.9614 165.747 14.895 165.747 16.3487C165.742 16.8923 165.678 17.4338 165.557 17.9638H162.123C162.104 18.0356 162.096 18.1095 162.097 18.1835C162.097 18.9523 162.617 19.3367 163.606 19.3367C164.222 19.3354 164.83 19.1963 165.386 18.9297L165.111 20.574H165.118ZM164.094 16.6491V16.3261C164.108 16.2131 164.097 16.0984 164.061 15.9903C164.025 15.8822 163.966 15.7836 163.887 15.7017C163.808 15.6198 163.711 15.5567 163.604 15.5172C163.497 15.4776 163.383 15.4626 163.27 15.4732C162.721 15.4732 162.336 15.8867 162.171 16.6523L164.094 16.6491Z" fill="#003473"/>
<path fill-rule="evenodd" clip-rule="evenodd" d="M146.617 20.713H144.915L145.903 14.4816L143.681 20.713H142.498L142.363 14.5107L141.319 20.713H139.646L140.99 12.6177H143.487L143.542 17.6118L145.215 12.6177H147.961L146.617 20.713Z" fill="#003473"/>
<path fill-rule="evenodd" clip-rule="evenodd" d="M150.762 17.7769C150.655 17.7555 150.547 17.7458 150.439 17.7479C149.45 17.7479 148.956 18.1323 148.956 18.7364C148.947 18.8254 148.957 18.9155 148.985 19.0004C149.014 19.0852 149.06 19.163 149.121 19.2283C149.183 19.2936 149.257 19.3449 149.34 19.3787C149.423 19.4126 149.513 19.4282 149.602 19.4244C150.426 19.4244 150.755 18.7364 150.784 17.7769H150.762ZM152.141 20.7295H150.652L150.678 20.0446C150.293 20.5647 149.773 20.8393 148.869 20.8393C148.045 20.8393 147.331 20.0996 147.331 19.0271C147.335 18.7388 147.38 18.4526 147.467 18.1775C147.741 17.1599 148.759 16.53 150.322 16.5042C150.513 16.5042 150.817 16.5042 151.091 16.53C151.132 16.3873 151.15 16.2391 151.146 16.0907C151.146 15.6514 150.788 15.5157 149.993 15.5157C149.508 15.5119 149.026 15.5861 148.565 15.7353L148.32 15.7903L148.21 15.8161L148.455 14.3334C149.1 14.1105 149.776 13.9906 150.458 13.978C151.941 13.978 152.739 14.6629 152.739 15.9162C152.756 16.3487 152.727 16.7818 152.655 17.2084L152.27 19.5698L152.215 19.9833L152.19 20.3063L152.16 20.526L152.141 20.7295Z" fill="#003473"/>
<path fill-rule="evenodd" clip-rule="evenodd" d="M173.407 14.1814C173.947 14.1992 174.474 14.3501 174.941 14.6207L175.245 12.8634C175.103 12.798 174.956 12.743 174.805 12.6986L174.117 12.5048C173.856 12.4481 173.59 12.421 173.323 12.4241C172.473 12.4241 171.979 12.4531 171.456 12.7471C171.08 12.993 170.739 13.2873 170.441 13.6225L170.222 13.5676L168.464 14.8016L168.548 14.1168H166.736L165.664 20.7293H167.395L168.041 17.1759C168.041 17.1759 168.29 16.6817 168.4 16.5298C168.507 16.3783 168.655 16.2596 168.826 16.1872C168.997 16.1147 169.185 16.0913 169.369 16.1196H169.508C169.45 16.537 169.422 16.958 169.424 17.3794C169.424 19.5212 170.632 20.865 172.499 20.865C173.01 20.8616 173.517 20.7877 174.008 20.6453L174.308 18.7814C173.867 19.0462 173.368 19.1972 172.854 19.2207C171.84 19.2207 171.239 18.4519 171.239 17.2438C171.239 15.4606 172.144 14.1975 173.436 14.1975L173.407 14.1814Z" fill="#003473"/>
<path fill-rule="evenodd" clip-rule="evenodd" d="M187.979 12.6144L187.594 14.9144C187.442 14.6322 187.216 14.3965 186.941 14.2321C186.666 14.0677 186.351 13.9809 186.031 13.9809C185.55 13.9977 185.084 14.1481 184.685 14.4152C184.286 14.6822 183.969 15.0554 183.769 15.4927V15.4636L182.671 14.8175L182.781 14.1327H180.943L179.883 20.7291H181.586L182.161 17.1757C182.161 17.1757 182.6 16.6814 182.71 16.5296C182.8 16.4083 182.915 16.3076 183.047 16.2341C183.179 16.1606 183.325 16.116 183.475 16.1032C183.266 16.7276 183.163 17.3829 183.172 18.0414C183.172 19.6889 184.025 20.784 185.288 20.784C185.591 20.79 185.893 20.7264 186.168 20.5982C186.444 20.47 186.686 20.2805 186.877 20.0442L186.796 20.6903H188.411L189.729 12.5918L187.979 12.6144ZM185.866 19.1494C185.291 19.1494 184.987 18.7101 184.987 17.8573C184.987 16.5651 185.536 15.6348 186.331 15.6348C186.935 15.6348 187.239 16.1032 187.239 16.9269C187.239 18.2449 186.69 19.1527 185.866 19.1527V19.1494Z" fill="#003473"/>
<path fill-rule="evenodd" clip-rule="evenodd" d="M177.932 17.7765C177.826 17.7547 177.718 17.745 177.609 17.7474C176.621 17.7474 176.127 18.1318 176.127 18.7359C176.117 18.8237 176.126 18.9125 176.153 18.9965C176.181 19.0804 176.226 19.1576 176.286 19.2227C176.345 19.2878 176.418 19.3395 176.499 19.3742C176.581 19.4089 176.668 19.4259 176.756 19.424C177.58 19.424 177.91 18.7359 177.936 17.7765H177.932ZM179.305 20.7129H177.797L177.852 20.028C177.467 20.5481 176.947 20.8227 176.039 20.8227C175.19 20.8227 174.447 20.1088 174.447 19.0105C174.447 17.447 175.629 16.4876 177.496 16.4876C177.687 16.4876 177.987 16.4876 178.236 16.5134C178.283 16.3713 178.31 16.2235 178.317 16.0741C178.317 15.6348 177.961 15.4991 177.138 15.4991C176.653 15.4979 176.172 15.572 175.71 15.7187L175.49 15.7737L175.38 15.7995L175.629 14.3168C176.274 14.0936 176.95 13.9737 177.632 13.9614C179.115 13.9614 179.893 14.6463 179.893 15.8996C179.925 16.3322 179.897 16.7671 179.809 17.1918L179.454 19.5532L179.399 19.9667L179.344 20.2897L179.315 20.5094V20.729L179.305 20.7129Z" fill="#003473"/>
<path fill-rule="evenodd" clip-rule="evenodd" d="M155.73 15.5249C156.163 15.5279 156.595 15.5646 157.022 15.6348L157.271 14.0971C156.777 14.0422 156.118 13.9614 155.733 13.9614C153.795 13.9614 153.181 15.0048 153.181 16.2227C153.181 17.0173 153.537 17.5924 154.474 18.0317C155.158 18.3547 155.268 18.4161 155.268 18.7197C155.268 19.13 154.913 19.3658 154.254 19.3658C153.721 19.3653 153.192 19.2724 152.69 19.0912L152.497 20.5998L152.526 20.6257L152.849 20.6806C152.994 20.7164 153.14 20.7445 153.288 20.7646C153.698 20.7904 154.054 20.8195 154.273 20.8195C156.195 20.8195 156.993 20.0797 156.993 18.6228C156.993 17.7183 156.554 17.1692 155.701 16.7848C154.961 16.4617 154.877 16.4003 154.877 16.0999C154.877 15.7995 155.2 15.5217 155.73 15.5217V15.5249Z" fill="#003473"/>
<path fill-rule="evenodd" clip-rule="evenodd" d="M175.722 12.3301L175.399 14.0971C174.93 13.8275 174.402 13.6767 173.862 13.6578C172.57 13.6578 171.665 14.9209 171.665 16.704C171.665 17.9412 172.269 18.681 173.28 18.681C173.79 18.6561 174.287 18.5158 174.734 18.2707L174.43 20.1088C173.941 20.2592 173.434 20.3428 172.922 20.3575C171.055 20.3575 169.901 19.0105 169.901 16.8429C169.901 13.9614 171.494 11.9295 173.778 11.9295C174.046 11.9257 174.314 11.9539 174.576 12.0135L175.261 12.1783C175.48 12.259 175.535 12.2881 175.7 12.343L175.722 12.3301Z" fill="white"/>
<path fill-rule="evenodd" clip-rule="evenodd" d="M170.166 13.5483H170.002C169.427 13.5483 169.097 13.8229 168.574 14.6208L168.739 13.6033H167.175L166.103 20.1932H167.834C168.48 16.1585 168.629 15.4704 169.449 15.4704H169.559C169.681 14.8113 169.899 14.1736 170.205 13.5774L170.15 13.5483H170.166Z" fill="white"/>
<path fill-rule="evenodd" clip-rule="evenodd" d="M160.217 20.1092C159.822 20.2549 159.404 20.3293 158.983 20.3288C158.104 20.3288 157.61 19.8346 157.61 18.8752C157.615 18.6814 157.633 18.4882 157.665 18.297L157.775 17.6509L157.855 17.1308L158.602 12.6147H160.314L160.12 13.6032H160.999L160.779 15.2184H159.894L159.429 17.961C159.406 18.0507 159.396 18.1431 159.399 18.2356C159.399 18.5586 159.564 18.704 159.978 18.704C160.135 18.7181 160.293 18.6994 160.443 18.6491L160.223 20.1027L160.217 20.1092Z" fill="white"/>
<path fill-rule="evenodd" clip-rule="evenodd" d="M153.614 15.6897C153.614 16.5134 153.999 17.0884 154.906 17.5277C155.62 17.8508 155.73 17.9671 155.73 18.2416C155.73 18.6551 155.426 18.8457 154.742 18.8457C154.22 18.8427 153.701 18.7599 153.204 18.6002L152.958 20.1088L153.039 20.1379L153.343 20.1928C153.495 20.231 153.651 20.2494 153.808 20.2477C154.117 20.2889 154.43 20.3073 154.742 20.3026C156.554 20.3026 157.403 19.6145 157.403 18.106C157.403 17.1982 157.048 16.6782 156.195 16.2679C155.456 15.9384 155.372 15.8544 155.372 15.5604C155.372 15.2019 155.675 15.0371 156.224 15.0371C156.637 15.0414 157.049 15.0694 157.458 15.1211L157.704 13.6093C157.205 13.5264 156.701 13.481 156.195 13.4736C154.273 13.4736 153.588 14.488 153.611 15.6961L153.614 15.6897Z" fill="white"/>
<path fill-rule="evenodd" clip-rule="evenodd" d="M188.858 20.193H187.242L187.323 19.5469C187.127 19.7754 186.883 19.9579 186.608 20.0813C186.333 20.2047 186.035 20.266 185.734 20.2608C184.471 20.2608 183.647 19.1916 183.647 17.5441C183.647 15.3474 184.939 13.4803 186.444 13.4803C186.773 13.4823 187.096 13.5664 187.384 13.7249C187.671 13.8834 187.915 14.1114 188.092 14.388L188.476 12.0815H190.179L188.861 20.1801L188.858 20.193ZM186.331 18.6553C187.129 18.6553 187.678 17.7218 187.678 16.4296C187.678 15.58 187.375 15.1375 186.771 15.1375C186.002 15.1375 185.427 16.0452 185.427 17.3341C185.427 18.2128 185.731 18.6521 186.331 18.6521V18.6553Z" fill="white"/>
<path fill-rule="evenodd" clip-rule="evenodd" d="M165.502 20.0543C164.925 20.242 164.322 20.3348 163.715 20.3288C161.777 20.3288 160.808 19.3145 160.808 17.3634C160.808 15.1021 162.068 13.4385 163.799 13.4385C165.227 13.4385 166.132 14.3721 166.132 15.8289C166.128 16.3841 166.054 16.9365 165.912 17.4732H162.507C162.488 17.5359 162.479 17.6014 162.481 17.667C162.481 18.4358 163.002 18.8203 163.99 18.8203C164.609 18.8322 165.222 18.6901 165.773 18.4068L165.502 20.0543ZM164.533 16.1294V15.8063C164.547 15.6937 164.535 15.5793 164.499 15.4716C164.463 15.3639 164.403 15.2657 164.324 15.1842C164.245 15.1026 164.149 15.0399 164.043 15.0005C163.936 14.9612 163.822 14.9462 163.709 14.9567C163.16 14.9567 162.775 15.367 162.611 16.1358L164.533 16.1294Z" fill="white"/>
<path fill-rule="evenodd" clip-rule="evenodd" d="M147.056 20.1895H145.354L146.342 13.9614L144.12 20.1895H142.938L142.802 14.0163L141.759 20.1895H140.166L141.51 12.0942H143.981L144.065 17.1175L145.709 12.0942H148.4L147.056 20.1895Z" fill="white"/>
<path fill-rule="evenodd" clip-rule="evenodd" d="M151.311 17.2532C151.146 17.2532 151.062 17.2273 150.927 17.2273C149.957 17.2273 149.47 17.5827 149.47 18.2416C149.46 18.3253 149.468 18.4101 149.494 18.4902C149.521 18.5703 149.564 18.6436 149.621 18.7052C149.679 18.7667 149.749 18.8149 149.827 18.8465C149.906 18.878 149.99 18.8921 150.074 18.8877C150.788 18.8877 151.282 18.2416 151.311 17.2402V17.2532ZM152.574 20.1928H151.146L151.172 19.5047C150.957 19.774 150.679 19.9871 150.364 20.1261C150.048 20.265 149.704 20.3256 149.36 20.3026C148.43 20.3026 147.796 19.5887 147.796 18.5162C147.796 16.901 148.895 15.9642 150.817 15.9642C151.007 15.9642 151.256 15.9933 151.531 16.0192C151.57 15.886 151.588 15.7476 151.586 15.6089C151.586 15.1696 151.282 15.0048 150.487 15.0048C150.006 14.9989 149.526 15.0543 149.059 15.1696L148.814 15.2374L148.649 15.2665L148.911 13.7967C149.576 13.5846 150.27 13.4757 150.969 13.4736C152.451 13.4736 153.249 14.1197 153.249 15.4118C153.237 15.8455 153.19 16.2776 153.11 16.704L152.726 19.0395L152.655 19.4369L152.629 19.7599L152.6 20.0087L152.574 20.1734V20.1928Z" fill="white"/>
<path fill-rule="evenodd" clip-rule="evenodd" d="M178.482 17.2532C178.291 17.2532 178.207 17.2273 178.097 17.2273C177.128 17.2273 176.618 17.5827 176.618 18.2416C176.611 18.3269 176.622 18.4127 176.651 18.4932C176.68 18.5737 176.726 18.647 176.785 18.7083C176.845 18.7695 176.917 18.8172 176.997 18.8482C177.077 18.8792 177.162 18.8926 177.248 18.8877C177.932 18.8877 178.456 18.2416 178.482 17.2402V17.2532ZM179.745 20.1928H178.307L178.336 19.5047C178.121 19.774 177.844 19.9871 177.528 20.1261C177.212 20.265 176.868 20.3256 176.524 20.3026C175.59 20.3026 174.96 19.5887 174.96 18.5162C174.96 16.901 176.059 15.9642 177.978 15.9642C178.171 15.9642 178.417 15.9933 178.666 16.0192C178.709 15.8862 178.736 15.7484 178.746 15.6089C178.746 15.1696 178.446 15.0048 177.651 15.0048C177.161 14.999 176.671 15.0544 176.194 15.1696L175.975 15.2503L175.81 15.2794L176.059 13.7967C176.724 13.5846 177.418 13.4757 178.117 13.4736C179.599 13.4736 180.378 14.1197 180.378 15.4118C180.382 15.854 180.335 16.2951 180.239 16.7266L179.884 19.0622L179.829 19.4724L179.774 19.7954L179.745 20.0442V20.2089V20.1928Z" fill="white"/>
<path fill-rule="evenodd" clip-rule="evenodd" d="M184.357 13.5483H184.193C183.614 13.5483 183.285 13.8229 182.765 14.6208L182.93 13.6033H181.366L180.323 20.1932H182.022C182.668 16.1585 182.82 15.4704 183.637 15.4704H183.747C183.869 14.8113 184.087 14.1736 184.393 13.5774L184.338 13.5483H184.357Z" fill="white"/>
<g clip-path="url(#clip0)">
<path fill-rule="evenodd" clip-rule="evenodd" d="M243.492 7.53223H252.61C257.506 7.53223 259.349 9.98552 259.064 13.5897C258.593 19.5401 254.959 22.8321 250.139 22.8321H247.705C247.044 22.8321 246.599 23.2655 246.42 24.4397L245.387 31.266C245.319 31.7087 245.083 31.965 244.73 31.9999H239.001C238.463 31.9999 238.272 31.5922 238.413 30.7092L241.906 8.82528C242.042 7.94927 242.527 7.53223 243.492 7.53223Z" fill="#009EE3"/>
<path fill-rule="evenodd" clip-rule="evenodd" d="M283.078 7.12695C286.154 7.12695 288.992 8.77879 288.604 12.8956C288.133 17.7882 285.486 20.4954 281.308 20.5071H277.657C277.133 20.5071 276.878 20.9311 276.742 21.8001L276.036 26.2431C275.93 26.9141 275.582 27.2449 275.068 27.2449H271.672C271.131 27.2449 270.943 26.9024 271.063 26.1359L273.866 8.32914C274.005 7.45313 274.336 7.12695 274.941 7.12695H283.071H283.078ZM277.547 16.6606H280.312C282.042 16.5953 283.191 15.4094 283.306 13.2707C283.377 11.9497 282.475 11.0038 281.042 11.0107L278.439 11.0224L277.547 16.6606ZM297.837 25.882C298.148 25.6024 298.463 25.4579 298.419 25.8027L298.308 26.6275C298.252 27.0585 298.423 27.2868 298.828 27.2868H301.846C302.354 27.2868 302.601 27.0841 302.726 26.306L304.585 14.7548C304.679 14.1746 304.536 13.8904 304.091 13.8904H300.772C300.473 13.8904 300.328 14.0558 300.25 14.5078L300.127 15.2184C300.064 15.5888 299.892 15.6541 299.732 15.2813C299.17 13.9626 297.734 13.3709 295.731 13.4175C291.078 13.513 287.94 17.01 287.604 21.4926C287.345 24.9594 289.854 27.6829 293.163 27.6829C295.564 27.6829 296.637 26.984 297.847 25.8889L297.837 25.882ZM295.31 24.1043C293.307 24.1043 291.911 22.5224 292.2 20.584C292.49 18.6456 294.363 17.0636 296.366 17.0636C298.369 17.0636 299.765 18.6456 299.475 20.584C299.186 22.5224 297.315 24.1043 295.31 24.1043ZM310.49 13.8531H307.431C306.8 13.8531 306.543 14.3191 306.743 14.8922L310.542 25.9029L306.816 31.1427C306.503 31.5807 306.746 31.9791 307.186 31.9791H310.625C310.825 32.002 311.028 31.9674 311.209 31.8794C311.39 31.7915 311.542 31.6538 311.646 31.4828L323.329 14.8946C323.69 14.3843 323.52 13.8485 322.929 13.8485H319.674C319.116 13.8485 318.893 14.0675 318.573 14.5264L313.701 21.5159L311.524 14.5101C311.397 14.0861 311.079 13.8531 310.493 13.8531H310.49Z" fill="#113984"/>
<path fill-rule="evenodd" clip-rule="evenodd" d="M335.483 7.12673C338.559 7.12673 341.398 8.77858 341.009 12.8954C340.539 17.788 337.891 20.4952 333.713 20.5069H330.065C329.54 20.5069 329.286 20.9309 329.15 21.7999L328.443 26.2429C328.338 26.9138 327.989 27.2447 327.476 27.2447H324.08C323.539 27.2447 323.35 26.9022 323.47 26.1357L326.278 8.32426C326.417 7.44825 326.749 7.12207 327.354 7.12207H335.483V7.12673ZM329.952 16.6603H332.718C334.448 16.5951 335.596 15.4092 335.711 13.2705C335.782 11.9494 334.881 11.0035 333.447 11.0105L330.844 11.0222L329.952 16.6603ZM350.243 25.8817C350.553 25.6022 350.869 25.4577 350.824 25.8025L350.713 26.6273C350.657 27.0583 350.829 27.2866 351.234 27.2866H354.251C354.759 27.2866 355.006 27.0839 355.131 26.3058L356.991 14.7545C357.085 14.1744 356.941 13.8902 356.496 13.8902H353.182C352.884 13.8902 352.738 14.0556 352.66 14.5076L352.538 15.2182C352.474 15.5886 352.302 15.6539 352.142 15.2811C351.58 13.9624 350.144 13.3706 348.141 13.4172C343.488 13.5128 340.35 17.0098 340.014 21.4924C339.755 24.9591 342.264 27.6827 345.573 27.6827C347.974 27.6827 349.047 26.9837 350.257 25.8887L350.243 25.8817ZM347.717 24.1041C345.714 24.1041 344.319 22.5222 344.608 20.5837C344.898 18.6453 346.771 17.0634 348.774 17.0634C350.777 17.0634 352.173 18.6453 351.883 20.5837C351.594 22.5222 349.72 24.1041 347.717 24.1041ZM361.634 27.3053H358.151C358.09 27.3079 358.03 27.2973 357.974 27.2742C357.918 27.2511 357.868 27.216 357.827 27.1715C357.786 27.127 357.756 27.0742 357.738 27.0167C357.721 26.9593 357.716 26.8987 357.725 26.8393L360.785 7.65094C360.814 7.51999 360.887 7.40267 360.992 7.31807C361.097 7.23346 361.228 7.18656 361.364 7.18498H364.847C364.908 7.1823 364.968 7.19289 365.024 7.21601C365.08 7.23912 365.13 7.27419 365.171 7.31871C365.211 7.36322 365.242 7.41608 365.259 7.47351C365.277 7.53094 365.282 7.59153 365.273 7.65094L362.213 26.8393C362.185 26.9711 362.112 27.0895 362.007 27.175C361.902 27.2605 361.77 27.3081 361.634 27.3099V27.3053Z" fill="#009EE3"/>
<path fill-rule="evenodd" clip-rule="evenodd" d="M237.789 0H246.917C249.487 0 252.537 0.0815435 254.575 1.86385C255.938 3.05439 256.654 4.94853 256.489 6.98944C255.929 13.888 251.76 17.7532 246.168 17.7532H241.668C240.901 17.7532 240.395 18.2564 240.178 19.617L238.921 27.5384C238.839 28.051 238.615 28.3538 238.215 28.3911H232.583C231.959 28.3911 231.738 27.9252 231.901 26.8954L235.949 1.50506C236.111 0.484599 236.678 0 237.789 0Z" fill="#113984"/>
<path fill-rule="evenodd" clip-rule="evenodd" d="M240.31 18.8131L241.903 8.82517C242.042 7.94916 242.527 7.52979 243.492 7.52979H252.61C254.119 7.52979 255.34 7.76277 256.296 8.19378C255.38 14.3352 251.367 17.746 246.114 17.746H241.621C241.019 17.7484 240.576 18.0466 240.31 18.8131Z" fill="#172C70"/>
</g>
<!-- <defs>
<clipPath id="clip0">
<rect width="133.434" height="32" fill="white" transform="translate(231.849)"/>
</clipPath>
</defs> -->
</svg>
