<svg width="179" height="56" viewBox="0 0 179 56" fill="none" xmlns="http://www.w3.org/2000/svg">
<path fill-rule="evenodd" clip-rule="evenodd" d="M10.9091 0H167.943C173.968 0 178.852 4.8515 178.852 10.8361V44.2C178.852 50.1846 173.968 55.0361 167.943 55.0361H10.9091C4.88417 55.0361 0 50.1846 0 44.2V10.8361C0 4.8515 4.88417 0 10.9091 0ZM21.7322 11.9539L35.8743 26.1311L39.7255 22.2809L21.7322 11.9539ZM16.6508 13.3825C16.6508 12.3511 17.2082 11.5567 18.0413 11.1211L34.4839 27.5149L18.0413 43.915C17.2082 43.4793 16.6508 42.6851 16.6508 41.6537V13.3825ZM41.5134 23.3892L45.2877 25.5738C46.5178 26.4898 46.5178 28.5526 45.3643 29.4689L41.5134 31.6532L37.3034 27.5213L41.5134 23.3892ZM39.7255 32.7617L21.7322 43.0886L35.8743 28.9114L39.7255 32.7617ZM60.7165 12.5926C60.5512 12.2763 60.3215 12.0391 60.0275 11.8809C59.7336 11.7167 59.3937 11.6345 59.0078 11.6345C58.5852 11.6345 58.2086 11.7288 57.8779 11.9174C57.5472 12.106 57.2868 12.3737 57.097 12.7204C56.9133 13.0671 56.8214 13.4686 56.8214 13.9249C56.8214 14.3811 56.9133 14.7857 57.097 15.1385C57.2868 15.4852 57.5472 15.7529 57.8779 15.9415C58.2086 16.1301 58.5852 16.2244 59.0078 16.2244C59.5774 16.2244 60.0399 16.0662 60.395 15.7499C60.7501 15.4335 60.9677 15.0047 61.0472 14.4632H58.6495V13.6329H62.168V14.445C62.1006 14.9377 61.9231 15.3909 61.6352 15.8046C61.3536 16.2183 60.9829 16.5498 60.5236 16.7992C60.0703 17.0425 59.565 17.1642 59.0078 17.1642C58.4075 17.1642 57.8595 17.0273 57.3634 16.7536C56.8673 16.4738 56.4723 16.0875 56.1784 15.5947C55.8904 15.102 55.7466 14.5454 55.7466 13.9249C55.7466 13.3044 55.8904 12.7478 56.1784 12.255C56.4723 11.7623 56.8673 11.379 57.3634 11.1053C57.8655 10.8255 58.4139 10.6855 59.0078 10.6855C59.6876 10.6855 60.2908 10.8528 60.8176 11.1874C61.3504 11.5159 61.7362 11.9843 61.9751 12.5926H60.7165ZM64.2482 11.6072V13.4686H66.453V14.3173H64.2482V16.2609H66.7286V17.1095H63.2009V10.7585H66.7286V11.6072H64.2482ZM72.1432 10.7677V11.6163H70.4437V17.1095H69.3964V11.6163H67.6877V10.7677H72.1432ZM76.6375 10.7677V17.1095H75.5902V10.7677H76.6375ZM82.1374 10.7677V11.6163H80.4379V17.1095H79.3906V11.6163H77.6819V10.7677H82.1374ZM88.4965 17.1733C87.9023 17.1733 87.3542 17.0365 86.8521 16.7627C86.356 16.4829 85.961 16.0966 85.6671 15.6039C85.3791 15.105 85.2353 14.5454 85.2353 13.9249C85.2353 13.3044 85.3791 12.7478 85.6671 12.255C85.961 11.7623 86.356 11.379 86.8521 11.1053C87.3542 10.8255 87.9023 10.6855 88.4965 10.6855C89.0965 10.6855 89.6449 10.8255 90.1409 11.1053C90.643 11.379 91.0381 11.7623 91.326 12.255C91.6136 12.7478 91.7578 13.3044 91.7578 13.9249C91.7578 14.5454 91.6136 15.105 91.326 15.6039C91.0381 16.0966 90.643 16.4829 90.1409 16.7627C89.6449 17.0365 89.0965 17.1733 88.4965 17.1733ZM88.4965 16.27C88.9191 16.27 89.2958 16.1757 89.6265 15.9871C89.9572 15.7924 90.2144 15.5187 90.3981 15.1659C90.5879 14.8069 90.6829 14.3933 90.6829 13.9249C90.6829 13.4565 90.5879 13.0458 90.3981 12.693C90.2144 12.3402 89.9572 12.0695 89.6265 11.8809C89.2958 11.6923 88.9191 11.598 88.4965 11.598C88.0739 11.598 87.6973 11.6923 87.3666 11.8809C87.0359 12.0695 86.7755 12.3402 86.5857 12.693C86.402 13.0458 86.3101 13.4565 86.3101 13.9249C86.3101 14.3933 86.402 14.8069 86.5857 15.1659C86.7755 15.5187 87.0359 15.7924 87.3666 15.9871C87.6973 16.1757 88.0739 16.27 88.4965 16.27ZM98.0339 17.1095H96.9867L93.8357 12.3736V17.1095H92.7884V10.7585H93.8357L96.9867 15.4852V10.7585H98.0339V17.1095ZM64.3597 30.3139C64.9292 30.6204 65.3742 31.0801 65.6946 31.6929H68.133C67.6703 30.5143 66.9227 29.6067 65.8904 28.9702C64.8698 28.322 63.7011 27.9978 62.384 27.9978C61.2331 27.9978 60.1709 28.269 59.1979 28.8111C58.2368 29.3415 57.4714 30.084 56.9019 31.0387C56.3441 31.9934 56.0653 33.0719 56.0653 34.2742C56.0653 35.4764 56.3441 36.5549 56.9019 37.5096C57.4714 38.4643 58.2368 39.2129 59.1979 39.755C60.1591 40.2854 61.221 40.5505 62.384 40.5505C63.4637 40.5505 64.4426 40.3147 65.3208 39.8433C66.2108 39.36 66.9287 38.7178 67.4745 37.9162C68.0323 37.1146 68.3762 36.2366 68.5068 35.2819V33.7084H61.6898V35.3173H66.3353C66.1812 36.3664 65.7598 37.1973 65.0716 37.8102C64.3835 38.423 63.4875 38.7295 62.384 38.7295C61.5652 38.7295 60.8354 38.5467 60.1947 38.1814C59.5539 37.8161 59.0495 37.2974 58.6818 36.6256C58.3258 35.9421 58.1478 35.1582 58.1478 34.2742C58.1478 33.3902 58.3258 32.6122 58.6818 31.9404C59.0495 31.2686 59.5539 30.7499 60.1947 30.3846C60.8354 30.0193 61.5652 29.8365 62.384 29.8365C63.1315 29.8365 63.7901 29.9956 64.3597 30.3139ZM72.2524 39.9848C72.9999 40.3974 73.8365 40.6036 74.762 40.6036C75.6994 40.6036 76.5537 40.3974 77.3251 39.9848C78.1083 39.5605 78.7252 38.9653 79.1762 38.1991C79.6272 37.4329 79.8526 36.5549 79.8526 35.5648C79.8526 34.5747 79.6329 33.6967 79.194 32.9305C78.7551 32.1643 78.1556 31.5751 77.3963 31.1625C76.637 30.7499 75.7883 30.5437 74.851 30.5437C73.9137 30.5437 73.0651 30.7499 72.3058 31.1625C71.5464 31.5751 70.947 32.1643 70.5081 32.9305C70.0691 33.6967 69.8495 34.5747 69.8495 35.5648C69.8495 36.5666 70.0631 37.4506 70.4903 38.2168C70.9174 38.971 71.5048 39.5605 72.2524 39.9848ZM76.2216 38.482C75.7706 38.7295 75.2842 38.8533 74.762 38.8533C73.9433 38.8533 73.2609 38.5704 72.7151 38.0046C72.1812 37.4272 71.9142 36.6139 71.9142 35.5648C71.9142 34.8576 72.0448 34.2625 72.3058 33.7791C72.5667 33.2841 72.917 32.9128 73.3559 32.6653C73.8069 32.4178 74.2932 32.294 74.8154 32.294C75.3376 32.294 75.824 32.4178 76.275 32.6653C76.726 32.9128 77.0877 33.2841 77.3607 33.7791C77.6337 34.2625 77.7701 34.8576 77.7701 35.5648C77.7701 36.272 77.6277 36.8731 77.3429 37.3682C77.0581 37.8632 76.6843 38.2345 76.2216 38.482ZM83.6027 39.9848C84.3503 40.3974 85.1868 40.6036 86.1124 40.6036C87.05 40.6036 87.9043 40.3974 88.6754 39.9848C89.4586 39.5605 90.0758 38.9653 90.5265 38.1991C90.9775 37.4329 91.2029 36.5549 91.2029 35.5648C91.2029 34.5747 90.9836 33.6967 90.5443 32.9305C90.1054 32.1643 89.5062 31.5751 88.7466 31.1625C87.9873 30.7499 87.139 30.5437 86.2014 30.5437C85.264 30.5437 84.4157 30.7499 83.6561 31.1625C82.8968 31.5751 82.2976 32.1643 81.8584 32.9305C81.4194 33.6967 81.1998 34.5747 81.1998 35.5648C81.1998 36.5666 81.4134 37.4506 81.8406 38.2168C82.2678 38.971 82.8551 39.5605 83.6027 39.9848ZM87.5719 38.482C87.1212 38.7295 86.6346 38.8533 86.1124 38.8533C85.2936 38.8533 84.6115 38.5704 84.0655 38.0046C83.5315 37.4272 83.2645 36.6139 83.2645 35.5648C83.2645 34.8576 83.3951 34.2625 83.6561 33.7791C83.9173 33.2841 84.2673 32.9128 84.7062 32.6653C85.1572 32.4178 85.6439 32.294 86.1658 32.294C86.688 32.294 87.1746 32.4178 87.6253 32.6653C88.0763 32.9128 88.4383 33.2841 88.711 33.7791C88.984 34.2625 89.1204 34.8576 89.1204 35.5648C89.1204 36.272 88.978 36.8731 88.6932 37.3682C88.4084 37.8632 88.0347 38.2345 87.5719 38.482ZM99.1714 31.0034C98.5901 30.6968 97.9197 30.5437 97.1601 30.5437C96.3058 30.5437 95.5226 30.7559 94.8106 31.1802C94.1107 31.5928 93.5529 32.1762 93.1375 32.9305C92.7342 33.6847 92.5324 34.5511 92.5324 35.5294C92.5324 36.5078 92.7342 37.3858 93.1375 38.1638C93.5529 38.93 94.1107 39.5311 94.8106 39.9671C95.5226 40.3914 96.3058 40.6036 97.1601 40.6036C97.9077 40.6036 98.5723 40.4505 99.1536 40.1439C99.747 39.8257 100.216 39.4367 100.56 38.977V40.6036C100.56 41.5466 100.305 42.2655 99.7944 42.7605C99.296 43.2556 98.6374 43.5031 97.8187 43.5031C97.1188 43.5031 96.5136 43.344 96.0032 43.0257C95.5048 42.7192 95.1787 42.3126 95.0242 41.8058H93.0129C93.1318 42.8666 93.6302 43.7036 94.5081 44.3164C95.3862 44.9412 96.4898 45.2534 97.8187 45.2534C98.8154 45.2534 99.6698 45.0529 100.382 44.6523C101.106 44.2516 101.658 43.6976 102.037 42.9904C102.417 42.2949 102.607 41.4993 102.607 40.6036V30.7028H100.56V32.1172C100.228 31.6692 99.7648 31.2979 99.1714 31.0034ZM100.133 33.8145C100.417 34.3095 100.56 34.893 100.56 35.5648C100.56 36.2366 100.417 36.8261 100.133 37.3328C99.8598 37.8278 99.4978 38.2051 99.0468 38.4643C98.5961 38.7235 98.1095 38.8533 97.5873 38.8533C97.0771 38.8533 96.5905 38.7235 96.1278 38.4643C95.677 38.1931 95.309 37.8042 95.0242 37.2974C94.7515 36.7907 94.6149 36.2013 94.6149 35.5294C94.6149 34.8576 94.7515 34.2802 95.0242 33.7968C95.309 33.3018 95.677 32.9305 96.1278 32.683C96.5788 32.4238 97.0654 32.294 97.5873 32.294C98.1095 32.294 98.5961 32.4238 99.0468 32.683C99.4978 32.9422 99.8598 33.3194 100.133 33.8145ZM107.301 40.4445V27.3613H105.272V40.4445H107.301ZM118.882 36.325C118.93 36.0305 118.954 35.7003 118.954 35.335C118.954 34.3919 118.752 33.561 118.348 32.8421C117.945 32.1112 117.381 31.5455 116.658 31.1448C115.933 30.7442 115.109 30.5437 114.183 30.5437C113.222 30.5437 112.368 30.7499 111.62 31.1625C110.885 31.5751 110.309 32.1643 109.894 32.9305C109.49 33.6847 109.289 34.563 109.289 35.5648C109.289 36.5666 109.496 37.4506 109.912 38.2168C110.339 38.971 110.92 39.5605 111.656 39.9848C112.404 40.3974 113.246 40.6036 114.183 40.6036C115.334 40.6036 116.296 40.3207 117.067 39.755C117.85 39.1775 118.39 38.4406 118.687 37.545H116.497C116.046 38.4526 115.275 38.9063 114.183 38.9063C113.424 38.9063 112.783 38.6705 112.261 38.1991C111.739 37.7277 111.448 37.103 111.389 36.325H118.882ZM116.035 32.9128C116.556 33.3608 116.823 33.9559 116.835 34.6985H111.407C111.502 33.9442 111.798 33.3488 112.297 32.9128C112.795 32.4648 113.394 32.241 114.094 32.241C114.866 32.241 115.512 32.4648 116.035 32.9128ZM133.779 33.5846C134.076 33.0306 134.224 32.4414 134.224 31.8166C134.224 31.1331 134.058 30.5143 133.726 29.9603C133.406 29.4062 132.913 28.9702 132.249 28.6519C131.596 28.322 130.795 28.1569 129.846 28.1569H125.574V40.4445H127.603V35.4587H129.846C130.866 35.4587 131.703 35.2879 132.355 34.946C133.008 34.5924 133.482 34.1387 133.779 33.5846ZM131.572 33.3018C131.192 33.6437 130.617 33.8145 129.846 33.8145H127.603V29.8011H129.846C131.376 29.8011 132.142 30.473 132.142 31.8166C132.142 32.4531 131.952 32.9482 131.572 33.3018ZM138.189 40.4445V27.3613H136.16V40.4445H138.189ZM140.781 32.9305C140.378 33.6847 140.176 34.5511 140.176 35.5294C140.176 36.5078 140.378 37.3858 140.781 38.1638C141.197 38.93 141.754 39.5311 142.454 39.9671C143.155 40.3914 143.926 40.6036 144.768 40.6036C145.528 40.6036 146.204 40.4505 146.797 40.1439C147.391 39.8374 147.859 39.4544 148.203 38.9947V40.4445H150.25V30.7028H148.203V32.1172C147.859 31.6692 147.397 31.2979 146.815 31.0034C146.246 30.6968 145.575 30.5437 144.804 30.5437C143.949 30.5437 143.166 30.7559 142.454 31.1802C141.754 31.5928 141.197 32.1762 140.781 32.9305ZM147.776 33.8145C148.061 34.3095 148.203 34.893 148.203 35.5648C148.203 36.2366 148.061 36.8261 147.776 37.3328C147.504 37.8278 147.142 38.2051 146.69 38.4643C146.24 38.7235 145.753 38.8533 145.231 38.8533C144.721 38.8533 144.234 38.7235 143.771 38.4643C143.321 38.1931 142.953 37.8042 142.668 37.2974C142.395 36.7907 142.259 36.2013 142.259 35.5294C142.259 34.8576 142.395 34.2802 142.668 33.7968C142.953 33.3018 143.321 32.9305 143.771 32.683C144.222 32.4238 144.709 32.294 145.231 32.294C145.753 32.294 146.24 32.4238 146.69 32.683C147.142 32.9422 147.504 33.3194 147.776 33.8145ZM155.728 45.0236L161.744 30.7028H159.644L156.778 38.1284L154.019 30.7028H151.759L155.621 40.2854L153.628 45.0236H155.728Z" fill="#202124"/>
</svg>
