<svg width="155" height="48" viewBox="0 0 155 48" fill="none" xmlns="http://www.w3.org/2000/svg">
<path d="M146.376 0.889648H9.06932C4.30628 0.889648 0.445068 4.71746 0.445068 9.43912V39.3644C0.445068 44.0861 4.30628 47.9139 9.06932 47.9139H146.376C151.139 47.9139 155 44.0861 155 39.3644V9.43912C155 4.71746 151.139 0.889648 146.376 0.889648Z" fill="white"/>
<path d="M50.0713 7.81077C50.6088 7.81077 51.0784 7.91467 51.4803 8.12074C51.887 8.32252 52.1993 8.61531 52.4171 8.99912C52.6398 9.37864 52.7512 9.82255 52.7512 10.3309C52.7512 10.84 52.6398 11.2814 52.4171 11.6557C52.1993 12.0301 51.887 12.3178 51.4803 12.5195C51.0784 12.7162 50.6088 12.8149 50.0713 12.8149H48.4228V7.81077H50.0713ZM50.0713 12.1452C50.6622 12.1452 51.1147 11.9872 51.4295 11.6703C51.7442 11.3535 51.9015 10.907 51.9015 10.3309C51.9015 9.75043 51.7442 9.29708 51.4295 8.96993C51.1147 8.64365 50.6622 8.4805 50.0713 8.4805H49.2507V12.1452H50.0713ZM55.3077 12.8793C54.9299 12.8793 54.5886 12.796 54.2837 12.6277C53.9786 12.4551 53.7389 12.2147 53.5646 11.9073C53.3903 11.5956 53.3032 11.2359 53.3032 10.828C53.3032 10.4245 53.3926 10.0673 53.5719 9.75473C53.751 9.44305 53.9954 9.20347 54.3054 9.03518C54.6152 8.86689 54.9613 8.78275 55.3439 8.78275C55.7263 8.78275 56.0725 8.86689 56.3825 9.03518C56.6923 9.20347 56.9367 9.44305 57.116 9.75473C57.2951 10.0673 57.3847 10.4245 57.3847 10.828C57.3847 11.2307 57.2926 11.5888 57.1087 11.9005C56.9247 12.2121 56.673 12.4551 56.3534 12.6277C56.0386 12.796 55.69 12.8793 55.3077 12.8793ZM55.3077 12.1666C55.5205 12.1666 55.7191 12.1168 55.9031 12.0155C56.0919 11.9151 56.2445 11.7639 56.3607 11.5622C56.4769 11.3604 56.535 11.1157 56.535 10.828C56.535 10.5395 56.4792 10.2974 56.368 10.1008C56.2565 9.89898 56.1088 9.74786 55.9249 9.6474C55.7408 9.54608 55.5423 9.49542 55.3294 9.49542C55.1163 9.49542 54.9178 9.54608 54.7339 9.6474C54.5546 9.74786 54.4118 9.89898 54.3054 10.1008C54.1987 10.2974 54.1457 10.5395 54.1457 10.828C54.1457 11.2548 54.2545 11.5862 54.4725 11.8215C54.6951 12.0516 54.9736 12.1666 55.3077 12.1666ZM63.5773 8.84801L62.3355 12.8149H61.4639L60.6578 9.88439L59.8517 12.8149H58.9801L57.731 8.84801H58.5735L59.4087 12.037L60.2584 8.84801H61.1226L61.936 12.0233L62.7639 8.84801H63.5773ZM66.215 8.78275C66.5293 8.78275 66.8101 8.84801 67.0574 8.97766C67.3089 9.10732 67.5056 9.29879 67.6455 9.5538C67.7864 9.80796 67.8559 10.1154 67.8559 10.4751V12.8149H67.0359V10.597C67.0359 10.2424 66.9457 9.97111 66.7671 9.78392C66.5877 9.59159 66.343 9.49542 66.033 9.49542C65.7239 9.49542 65.4766 9.59159 65.2929 9.78392C65.1134 9.97111 65.0241 10.2424 65.0241 10.597V12.8149H64.1964V8.84801H65.0241V9.30137C65.1598 9.13823 65.3315 9.01115 65.5393 8.92013C65.7522 8.82826 65.9781 8.78275 66.215 8.78275ZM69.7406 7.48706V12.8149H68.912V7.48706H69.7406ZM72.563 12.8793C72.1852 12.8793 71.8443 12.796 71.5386 12.6277C71.2338 12.4551 70.9942 12.2147 70.8199 11.9073C70.6456 11.5956 70.5589 11.2359 70.5589 10.828C70.5589 10.4245 70.6482 10.0673 70.8276 9.75473C71.0062 9.44305 71.251 9.20347 71.5609 9.03518C71.8709 8.86689 72.2169 8.78275 72.599 8.78275C72.982 8.78275 73.328 8.86689 73.638 9.03518C73.9479 9.20347 74.1918 9.44305 74.3713 9.75473C74.5507 10.0673 74.64 10.4245 74.64 10.828C74.64 11.2307 74.5481 11.5888 74.3644 11.9005C74.1798 12.2121 73.9282 12.4551 73.6088 12.6277C73.2937 12.796 72.945 12.8793 72.563 12.8793ZM72.563 12.1666C72.7759 12.1666 72.9742 12.1168 73.1588 12.0155C73.3478 11.9151 73.4997 11.7639 73.6165 11.5622C73.7324 11.3604 73.7908 11.1157 73.7908 10.828C73.7908 10.5395 73.7341 10.2974 73.6234 10.1008C73.5118 9.89898 73.3641 9.74786 73.1803 9.6474C72.9966 9.54608 72.7974 9.49542 72.5844 9.49542C72.3715 9.49542 72.1731 9.54608 71.9894 9.6474C71.8099 9.74786 71.6674 9.89898 71.5609 10.1008C71.4545 10.2974 71.4012 10.5395 71.4012 10.828C71.4012 11.2548 71.5103 11.5862 71.7275 11.8215C71.9507 12.0516 72.2289 12.1666 72.563 12.1666ZM75.1827 10.8134C75.1827 10.415 75.2651 10.0621 75.4291 9.75473C75.5991 9.4482 75.8266 9.21035 76.1117 9.04206C76.4028 8.86947 76.7222 8.78275 77.0708 8.78275C77.3859 8.78275 77.659 8.84543 77.8917 8.96993C78.1287 9.09014 78.3176 9.24126 78.4575 9.42415V8.84801H79.293V12.8149H78.4575V12.2242C78.3176 12.4114 78.1261 12.5676 77.8839 12.6921C77.6418 12.8175 77.3662 12.8793 77.0562 12.8793C76.7128 12.8793 76.3976 12.7935 76.1117 12.6209C75.8266 12.4431 75.5991 12.1984 75.4291 11.8859C75.2651 11.569 75.1827 11.2118 75.1827 10.8134ZM78.4575 10.828C78.4575 10.5541 78.4 10.3163 78.2832 10.1154C78.1724 9.91358 78.0248 9.75988 77.841 9.65427C77.6564 9.54865 77.4581 9.49542 77.2451 9.49542C77.0322 9.49542 76.8338 9.54865 76.6492 9.65427C76.4655 9.75473 76.3152 9.90585 76.1993 10.1076C76.0877 10.3043 76.0319 10.5395 76.0319 10.8134C76.0319 11.0873 76.0877 11.3269 76.1993 11.533C76.3152 11.7399 76.4655 11.8979 76.6492 12.0087C76.8381 12.1143 77.0373 12.1666 77.2451 12.1666C77.4581 12.1666 77.6564 12.1143 77.841 12.0087C78.0248 11.903 78.1724 11.7493 78.2832 11.5476C78.4 11.3415 78.4575 11.1011 78.4575 10.828ZM80.1044 10.8134C80.1044 10.415 80.1868 10.0621 80.3517 9.75473C80.5208 9.4482 80.7484 9.21035 81.0343 9.04206C81.3245 8.86947 81.6465 8.78275 82.0003 8.78275C82.2613 8.78275 82.518 8.84027 82.7696 8.95619C83.0263 9.0661 83.2298 9.21464 83.3801 9.40182V7.48706H84.2155V12.8149H83.3801V12.2173C83.2444 12.4096 83.0555 12.5676 82.8134 12.6921C82.5764 12.8175 82.3025 12.8793 81.9925 12.8793C81.6439 12.8793 81.3245 12.7935 81.0343 12.6209C80.7484 12.4431 80.5208 12.1984 80.3517 11.8859C80.1868 11.569 80.1044 11.2118 80.1044 10.8134ZM83.3801 10.828C83.3801 10.5541 83.3217 10.3163 83.2058 10.1154C83.0942 9.91358 82.9465 9.75988 82.7627 9.65427C82.579 9.54865 82.3798 9.49542 82.1668 9.49542C81.9539 9.49542 81.7555 9.54865 81.5718 9.65427C81.388 9.75473 81.2378 9.90585 81.121 10.1076C81.0102 10.3043 80.9544 10.5395 80.9544 10.8134C80.9544 11.0873 81.0102 11.3269 81.121 11.533C81.2378 11.7399 81.388 11.8979 81.5718 12.0087C81.7607 12.1143 81.959 12.1666 82.1668 12.1666C82.3798 12.1666 82.579 12.1143 82.7627 12.0087C82.9465 11.903 83.0942 11.7493 83.2058 11.5476C83.3217 11.3415 83.3801 11.1011 83.3801 10.828ZM88.9252 12.8793C88.5474 12.8793 88.2065 12.796 87.9017 12.6277C87.596 12.4551 87.3564 12.2147 87.1821 11.9073C87.0078 11.5956 86.9211 11.2359 86.9211 10.828C86.9211 10.4245 87.0104 10.0673 87.1899 9.75473C87.3685 9.44305 87.6132 9.20347 87.9231 9.03518C88.2331 8.86689 88.5792 8.78275 88.9612 8.78275C89.3442 8.78275 89.6902 8.86689 90.0002 9.03518C90.3102 9.20347 90.554 9.44305 90.7335 9.75473C90.9129 10.0673 91.0022 10.4245 91.0022 10.828C91.0022 11.2307 90.9104 11.5888 90.7266 11.9005C90.542 12.2121 90.2904 12.4551 89.971 12.6277C89.6559 12.796 89.3073 12.8793 88.9252 12.8793ZM88.9252 12.1666C89.1381 12.1666 89.3365 12.1168 89.5211 12.0155C89.71 11.9151 89.862 11.7639 89.9787 11.5622C90.0946 11.3604 90.153 11.1157 90.153 10.828C90.153 10.5395 90.0972 10.2974 89.9856 10.1008C89.874 9.89898 89.7263 9.74786 89.5425 9.6474C89.3588 9.54608 89.1596 9.49542 88.9466 9.49542C88.7337 9.49542 88.5354 9.54608 88.3516 9.6474C88.1721 9.74786 88.0296 9.89898 87.9231 10.1008C87.8167 10.2974 87.7634 10.5395 87.7634 10.828C87.7634 11.2548 87.8725 11.5862 88.0897 11.8215C88.313 12.0516 88.5912 12.1666 88.9252 12.1666ZM93.84 8.78275C94.1543 8.78275 94.4351 8.84801 94.6824 8.97766C94.9339 9.10732 95.1297 9.29879 95.2705 9.5538C95.4105 9.80796 95.4809 10.1154 95.4809 10.4751V12.8149H94.66V10.597C94.66 10.2424 94.5707 9.97111 94.3913 9.78392C94.2127 9.59159 93.968 9.49542 93.658 9.49542C93.348 9.49542 93.1016 9.59159 92.917 9.78392C92.7384 9.97111 92.6482 10.2424 92.6482 10.597V12.8149H91.8205V8.84801H92.6482V9.30137C92.7839 9.13823 92.9556 9.01115 93.1643 8.92013C93.3772 8.82826 93.6022 8.78275 93.84 8.78275ZM99.3894 9.51775V11.7133C99.3894 11.8618 99.4238 11.97 99.4916 12.037C99.5637 12.0997 99.6848 12.1306 99.8548 12.1306H100.363V12.8149H99.7088C99.3362 12.8149 99.0502 12.7282 98.8519 12.5556C98.6536 12.383 98.5548 12.1022 98.5548 11.7133V9.51775H98.0826V8.84801H98.5548V7.86143H99.3894V8.84801H100.363V9.51775H99.3894ZM103.196 8.78275C103.501 8.78275 103.772 8.84801 104.009 8.97766C104.251 9.10732 104.44 9.29879 104.576 9.5538C104.716 9.80796 104.786 10.1154 104.786 10.4751V12.8149H103.965V10.597C103.965 10.2424 103.876 9.97111 103.696 9.78392C103.518 9.59159 103.273 9.49542 102.963 9.49542C102.653 9.49542 102.407 9.59159 102.222 9.78392C102.043 9.97111 101.953 10.2424 101.953 10.597V12.8149H101.126V7.48706H101.953V9.30824C102.094 9.1408 102.271 9.01115 102.484 8.92013C102.702 8.82826 102.939 8.78275 103.196 8.78275ZM109.509 10.7344C109.509 10.883 109.5 11.0169 109.481 11.1371H106.423C106.447 11.454 106.566 11.7081 106.779 11.9005C106.992 12.0928 107.254 12.1881 107.564 12.1881C108.008 12.1881 108.324 12.0035 108.507 11.6343H109.401C109.28 11.9992 109.059 12.2989 108.74 12.5341C108.425 12.7643 108.032 12.8793 107.564 12.8793C107.181 12.8793 106.837 12.796 106.532 12.6277C106.232 12.4551 105.995 12.2147 105.821 11.9073C105.651 11.5956 105.566 11.2359 105.566 10.828C105.566 10.4202 105.649 10.0621 105.813 9.75473C105.983 9.44305 106.217 9.20347 106.518 9.03518C106.823 8.86689 107.171 8.78275 107.564 8.78275C107.941 8.78275 108.277 8.86432 108.573 9.02746C108.868 9.19146 109.098 9.42157 109.263 9.71866C109.427 10.0115 109.509 10.3498 109.509 10.7344ZM108.646 10.4751C108.64 10.1729 108.531 9.92988 108.318 9.74785C108.105 9.56582 107.842 9.47395 107.527 9.47395C107.242 9.47395 106.997 9.56582 106.793 9.74785C106.59 9.92559 106.469 10.1677 106.43 10.4751H108.646Z" fill="#1F212E"/>
<path d="M57.2958 33.8169H51.7482L50.7949 36.5002H48.5263L53.2733 23.3467H55.7897L60.5367 36.5002H58.249L57.2958 33.8169ZM56.6858 32.0593L54.5315 25.9544L52.3582 32.0593H56.6858ZM64.7742 27.6175C65.1426 27.1384 65.644 26.7357 66.2803 26.4077C66.9157 26.0806 67.6335 25.9166 68.4338 25.9166C69.3491 25.9166 70.182 26.1433 70.9315 26.5975C71.694 27.038 72.2916 27.6613 72.7235 28.4685C73.1554 29.2747 73.3718 30.2003 73.3718 31.2461C73.3718 32.292 73.1554 33.2305 72.7235 34.0625C72.2916 34.8816 71.694 35.5239 70.9315 35.9901C70.182 36.4435 69.3491 36.6702 68.4338 36.6702C67.6335 36.6702 66.9217 36.513 66.2992 36.1979C65.6758 35.8708 65.1675 35.4672 64.7742 34.9881V41.4519H62.6006V26.0866H64.7742V27.6175ZM71.1599 31.2461C71.1599 30.5283 71.008 29.911 70.7031 29.3941C70.4103 28.8651 70.0162 28.4685 69.5208 28.2031C69.0382 27.9267 68.517 27.7875 67.9572 27.7875C67.4111 27.7875 66.8899 27.9267 66.3945 28.2031C65.9111 28.4805 65.517 28.884 65.2121 29.413C64.9202 29.9419 64.7742 30.5661 64.7742 31.2839C64.7742 32.0026 64.9202 32.632 65.2121 33.1738C65.517 33.7036 65.9111 34.1063 66.3945 34.3836C66.8899 34.661 67.4111 34.7992 67.9572 34.7992C68.517 34.7992 69.0382 34.661 69.5208 34.3836C70.0162 34.0943 70.4103 33.6778 70.7031 33.136C71.008 32.5942 71.1599 31.9648 71.1599 31.2461ZM77.6942 27.6175C78.0625 27.1384 78.5648 26.7357 79.2002 26.4077C79.8356 26.0806 80.5543 25.9166 81.3546 25.9166C82.2699 25.9166 83.1019 26.1433 83.8523 26.5975C84.6148 27.038 85.2124 27.6613 85.6443 28.4685C86.0762 29.2747 86.2926 30.2003 86.2926 31.2461C86.2926 32.292 86.0762 33.2305 85.6443 34.0625C85.2124 34.8816 84.6148 35.5239 83.8523 35.9901C83.1019 36.4435 82.2699 36.6702 81.3546 36.6702C80.5543 36.6702 79.8425 36.513 79.2191 36.1979C78.5966 35.8708 78.0883 35.4672 77.6942 34.9881V41.4519H75.521V26.0866H77.6942V27.6175ZM84.0807 31.2461C84.0807 30.5283 83.9279 29.911 83.6231 29.3941C83.3311 28.8651 82.937 28.4685 82.4416 28.2031C81.9582 27.9267 81.437 27.7875 80.878 27.7875C80.3311 27.7875 79.8107 27.9267 79.3144 28.2031C78.8319 28.4805 78.4378 28.884 78.1329 29.413C77.8401 29.9419 77.6942 30.5661 77.6942 31.2839C77.6942 32.0026 77.8401 32.632 78.1329 33.1738C78.4378 33.7036 78.8319 34.1063 79.3144 34.3836C79.8107 34.661 80.3311 34.7992 80.878 34.7992C81.437 34.7992 81.9582 34.661 82.4416 34.3836C82.937 34.0943 83.3311 33.6778 83.6231 33.136C83.9279 32.5942 84.0807 31.9648 84.0807 31.2461ZM97.7597 36.6324C96.8702 36.6324 96.069 36.4813 95.3572 36.179C94.6454 35.8639 94.0865 35.4234 93.6795 34.8559C93.2733 34.2892 93.0698 33.628 93.0698 32.8716H95.3959C95.4465 33.4391 95.6689 33.9045 96.063 34.2703C96.4692 34.6361 97.035 34.8181 97.7597 34.8181C98.5093 34.8181 99.094 34.6421 99.5131 34.2892C99.9329 33.9234 100.142 33.458 100.142 32.8904C100.142 32.45 100.009 32.0902 99.7423 31.8137C99.4882 31.5364 99.1636 31.3217 98.7695 31.1706C98.3882 31.0195 97.855 30.8555 97.1681 30.6795C96.3043 30.4528 95.5985 30.2261 95.0524 29.9985C94.5183 29.7598 94.0607 29.3941 93.6795 28.9029C93.2982 28.4118 93.1076 27.7566 93.1076 26.9375C93.1076 26.181 93.2982 25.5199 93.6795 24.9532C94.0607 24.3856 94.5948 23.9512 95.2808 23.6489C95.9677 23.3467 96.762 23.1956 97.6644 23.1956C98.9481 23.1956 99.9965 23.5167 100.81 24.1589C101.636 24.7892 102.093 25.6581 102.183 26.7675H99.7801C99.7423 26.2884 99.513 25.8788 99.094 25.5388C98.6742 25.1988 98.1212 25.0287 97.4351 25.0287C96.8126 25.0287 96.3043 25.1859 95.9102 25.501C95.5161 25.8161 95.3195 26.2695 95.3195 26.8619C95.3195 27.2646 95.4397 27.5986 95.6818 27.8631C95.936 28.1155 96.2537 28.3173 96.6349 28.4685C97.0161 28.6196 97.5373 28.7827 98.1976 28.9596C99.0751 29.1992 99.7869 29.4379 100.333 29.6774C100.892 29.917 101.363 30.2888 101.744 30.7928C102.138 31.2839 102.335 31.9459 102.335 32.7771C102.335 33.4451 102.151 34.0754 101.782 34.667C101.426 35.2594 100.899 35.7385 100.2 36.1035C99.513 36.4564 98.6999 36.6324 97.7597 36.6324ZM107.435 27.8442V33.6091C107.435 33.9998 107.523 34.2832 107.702 34.4592C107.892 34.6232 108.21 34.7047 108.655 34.7047H109.989V36.5002H108.274C107.295 36.5002 106.545 36.2735 106.024 35.8201C105.503 35.3668 105.242 34.6292 105.242 33.6091V27.8442H104.003V26.0866H105.242V23.4978H107.435V26.0866H109.989V27.8442H107.435ZM116.548 36.6702C115.558 36.6702 114.661 36.4504 113.861 36.009C113.06 35.5557 112.43 34.9254 111.974 34.1192C111.516 33.3 111.287 32.3555 111.287 31.2839C111.287 30.2261 111.522 29.2867 111.993 28.4685C112.462 27.6493 113.104 27.0191 113.918 26.5777C114.732 26.1372 115.64 25.9166 116.644 25.9166C117.648 25.9166 118.557 26.1372 119.37 26.5777C120.184 27.0191 120.825 27.6493 121.296 28.4685C121.766 29.2867 122.001 30.2261 122.001 31.2839C122.001 32.3426 121.76 33.2811 121.276 34.1003C120.794 34.9194 120.132 35.5557 119.294 36.009C118.467 36.4504 117.553 36.6702 116.548 36.6702ZM116.548 34.7992C117.107 34.7992 117.629 34.667 118.112 34.4025C118.607 34.1381 119.008 33.7414 119.313 33.2116C119.618 32.6827 119.77 32.0404 119.77 31.2839C119.77 30.5283 119.624 29.8921 119.332 29.3752C119.039 28.8463 118.652 28.4496 118.169 28.1842C117.686 27.9198 117.165 27.7875 116.606 27.7875C116.047 27.7875 115.526 27.9198 115.042 28.1842C114.573 28.4496 114.197 28.8463 113.918 29.3752C113.639 29.8921 113.499 30.5283 113.499 31.2839C113.499 32.4053 113.784 33.2751 114.356 33.8925C114.941 34.497 115.672 34.7992 116.548 34.7992ZM126.323 27.5986C126.641 27.0697 127.06 26.6602 127.581 26.3699C128.115 26.0677 128.744 25.9166 129.468 25.9166V28.1465H128.915C128.064 28.1465 127.415 28.3611 126.971 28.7896C126.539 29.218 126.323 29.9608 126.323 31.0195V36.5002H124.149V26.0866H126.323V27.5986ZM141.093 31.0384C141.093 31.429 141.068 31.7819 141.017 32.0971H132.991C133.055 32.9282 133.366 33.5962 133.926 34.1003C134.485 34.6043 135.171 34.8559 135.985 34.8559C137.153 34.8559 137.979 34.3707 138.463 33.4005H140.808C140.49 34.3587 139.911 35.1461 139.072 35.7634C138.246 36.3679 137.217 36.6702 135.985 36.6702C134.98 36.6702 134.078 36.4504 133.277 36.009C132.489 35.5557 131.867 34.9254 131.409 34.1192C130.964 33.3 130.742 32.3555 130.742 31.2839C130.742 30.2132 130.957 29.2747 131.39 28.4685C131.835 27.6493 132.451 27.0191 133.239 26.5777C134.04 26.1372 134.955 25.9166 135.985 25.9166C136.975 25.9166 137.859 26.1312 138.634 26.5588C139.41 26.9873 140.013 27.5926 140.445 28.374C140.877 29.1425 141.093 30.0303 141.093 31.0384ZM138.825 30.3583C138.812 29.5641 138.526 28.9278 137.967 28.4496C137.407 27.9704 136.715 27.7309 135.889 27.7309C135.139 27.7309 134.497 27.9704 133.963 28.4496C133.429 28.9158 133.112 29.5521 133.01 30.3583H138.825Z" fill="#1F212E"/>
<path d="M32.5835 25.1635C32.5715 22.9697 33.5724 21.3143 35.5983 20.0941C34.4647 18.4868 32.7524 17.6015 30.4912 17.4281C28.3506 17.2615 26.0112 18.6662 25.1551 18.6662C24.2507 18.6662 22.1765 17.4882 20.5485 17.4882C17.184 17.5423 13.6085 20.1482 13.6085 25.4503C13.6085 27.0165 13.8979 28.6342 14.4767 30.3042C15.2486 32.498 18.0342 37.8774 20.9404 37.7881C22.4599 37.752 23.5332 36.7182 25.5108 36.7182C27.4283 36.7182 28.423 37.7881 30.1174 37.7881C33.0479 37.746 35.5682 32.8569 36.3037 30.6571C32.3724 28.8213 32.5835 25.2769 32.5835 25.1635ZM29.1708 15.3484C30.8169 13.4114 30.666 11.6486 30.6179 11.0149C29.1647 11.0982 27.4825 11.9946 26.5239 13.1005C25.4685 14.2846 24.8476 15.7486 24.9801 17.3989C26.5538 17.5182 27.9889 16.7171 29.1708 15.3484Z" fill="#1F212E"/>
</svg>
