<svg width="100" height="100" viewBox="0 0 100 100" fill="none" xmlns="http://www.w3.org/2000/svg">
<rect width="100" height="100" rx="20" fill="white"/>
<path d="M39.2384 56.1318C39.2384 56.1318 37.3591 58.3302 37.3946 60.0677L32.8206 60.3159C32.8206 60.3159 32.8915 56.1318 39.2384 56.1318Z" fill="#202124"/>
<path d="M27.5019 42.1283C27.5019 42.1283 24.2397 44.2912 23.8497 49.1136H38.7775C38.7775 49.1136 39.5931 44.1849 40.834 41.7383L27.5019 42.1283ZM37.6074 47.5179L27.7501 43.1566H38.6002C37.891 44.5394 37.6074 47.5179 37.6074 47.5179Z" fill="#202124"/>
<path d="M38.9193 34.8934H38.9547V34.397C38.9547 34.0424 39.2383 33.7233 39.6284 33.7233H40.1248V31.8086H39.2383C38.1391 31.8086 37.2172 32.695 37.2172 33.8297V35.2835H37.2527C29.5229 37.1982 29.2038 41.6304 29.2038 41.6304C33.7424 35.8508 42.926 36.56 42.926 36.56C40.9758 38.8647 41.2949 41.3113 41.2949 41.3113C43.6352 35.6735 49.7339 34.5389 49.7339 34.5389C45.1953 34.1843 41.685 34.397 38.9193 34.8934Z" fill="#202124"/>
<path d="M19.8075 55.5339C19.8075 55.5339 19.9848 59.1152 20.1975 60.2498L17.5736 59.3988C17.3609 59.3634 17.1836 59.1506 17.1836 58.9379V57.9806C17.1836 57.7678 17.29 57.5905 17.4317 57.4841L19.8075 55.5339Z" fill="#202124"/>
<path d="M31.1895 50.6333H20.9776C20.5876 50.6333 20.2684 50.9879 20.2684 51.3779L20.9776 62.0507C21.0131 62.4053 21.2967 62.689 21.6868 62.689H30.0903C30.4449 62.689 30.764 62.4053 30.7995 62.0507L31.9342 51.3779C31.9342 50.9879 31.615 50.6333 31.1895 50.6333ZM29.7003 61.6607H22.0414L21.935 60.4197H29.8421L29.7003 61.6607ZM29.9131 58.9305H22.0059L21.8995 57.6894H30.0548L29.9131 58.9305ZM30.0548 56.1647H21.8641L21.7222 54.9237H30.1967L30.0548 56.1647ZM30.5513 53.2572H21.6868L21.5449 52.0162H30.6931L30.5513 53.2572Z" fill="#202124"/>
<path d="M82.7453 64.8884L89.8724 65.3138V64.3564L52.216 54.9956V36.0256C43.0324 35.5292 40.5149 44.9255 40.444 45.2092C41.3305 43.8263 42.2524 42.7271 43.1743 41.8761V42.798H42.7488C42.4297 42.798 42.1814 43.0463 42.1814 43.3654V49.5705C42.1814 49.8896 42.4297 50.1379 42.7488 50.1379H36.3309C34.5225 50.1379 32.9978 51.4497 32.6787 53.2227L31.615 59.2506C31.615 59.2506 33.4588 53.1518 38.9547 53.1518C44.4508 53.1518 45.7627 57.8322 45.7627 57.8322L56.1519 59.5342C55.7973 59.9597 55.62 60.8816 55.62 60.8816L46.33 59.8179C46.7909 65.2429 45.1599 65.3138 45.089 65.3138C45.1244 65.2429 45.6563 63.9665 45.6563 61.6617C45.6563 59.2859 45.1244 55.9884 42.146 55.9884C39.1675 55.9884 37.9265 60.7398 37.9265 60.7398C34.6289 60.8461 31.4022 61.2716 31.4022 61.2716V61.6262C31.4022 62.5481 30.6576 63.3282 29.7003 63.3282H21.5095C20.7649 63.3282 20.1266 62.7254 20.1266 61.9453V60.8107L17.1127 59.8888V65.0657L8 68.4341H91.9643L82.7453 64.8884ZM50.7268 47.9749C50.7268 49.145 49.7694 50.1024 48.5639 50.1024H44.5217C44.8408 50.1024 45.089 49.8542 45.089 49.535V43.259C45.089 42.9399 44.8408 42.6916 44.5217 42.6916H44.0252V41.0961C47.5356 38.3303 50.6913 38.8622 50.6913 38.8622V47.9749H50.7268ZM19.9848 62.6899C19.9848 62.8318 19.8784 62.9382 19.7366 62.9382H18.9211C18.5664 62.9382 18.2474 62.7963 18.0346 62.5481C17.8218 62.2999 17.68 61.9808 17.68 61.6262H19.772C19.9139 61.6262 20.0203 61.7326 20.0203 61.8744V62.6899H19.9848ZM31.9696 62.3708C31.9696 62.1581 32.1468 61.9453 32.395 61.9453H35.9054C35.9054 62.5126 35.6572 63.0445 35.2671 63.4345C34.8771 63.8246 34.3452 64.0728 33.7779 64.0728H32.4305C32.1823 64.0728 32.005 63.8955 32.005 63.6473V62.3708H31.9696ZM37.1464 66.3776H32.7142L30.4803 65.6684H21.935V64.9593H30.5867L32.856 65.6684H37.1109V66.3776H37.1464ZM42.9615 65.7039C42.0041 65.7039 41.2595 63.8955 41.2595 61.6617C41.2595 59.4278 42.0396 57.6195 42.9615 57.6195C43.9189 57.6195 44.6635 59.4278 44.6635 61.6617C44.699 63.8955 43.9189 65.7039 42.9615 65.7039ZM60.7259 65.8812C59.9813 65.8812 59.3431 64.6047 59.3431 63.0091C59.3431 61.6617 59.804 60.527 60.4068 60.2079C60.5132 60.137 60.6195 60.137 60.7259 60.137C60.9032 60.137 61.0805 60.2079 61.2578 60.3497C61.7542 60.7752 62.1088 61.8035 62.1088 63.0091C62.1088 64.6047 61.506 65.8812 60.7259 65.8812ZM64.2718 66.023C63.5271 66.023 62.8889 64.7465 62.8889 63.1509C62.8889 62.1226 63.1371 61.2361 63.5271 60.7398C63.7398 60.4561 63.9881 60.2788 64.2718 60.2788C64.6263 60.2788 64.9454 60.5625 65.1937 61.0234C65.4773 61.5553 65.6546 62.2999 65.6546 63.1864C65.6546 64.7111 65.0164 66.023 64.2718 66.023ZM77.6394 63.7182L65.9737 62.2644V61.1298L77.9231 63.08L77.6394 63.7182ZM79.8732 66.2357C79.4832 66.2357 79.1995 65.5266 79.1995 64.6047C79.1995 64.2147 79.2704 63.8601 79.3413 63.5764C79.4477 63.2218 79.6605 62.9736 79.8732 62.9736C80.1569 62.9736 80.4051 63.3991 80.5115 64.0019C80.5469 64.1792 80.5469 64.3919 80.5469 64.6047C80.5469 65.5266 80.2278 66.2357 79.8732 66.2357ZM82.4614 64.782C82.4614 65.6684 82.1424 66.413 81.7878 66.413C81.4332 66.413 81.1143 65.7039 81.1143 64.782C81.1143 64.6047 81.1143 64.4274 81.15 64.2855C81.2563 63.6473 81.5046 63.1509 81.7878 63.1509C82.1781 63.1509 82.4614 63.8955 82.4614 64.782Z" fill="#202124"/>
<path d="M55.2654 35.2161L55.0527 38.4782L57.1802 39.0455L56.3292 52.555L58.2794 53.0869L59.1303 39.5774L61.2578 40.1447L61.4706 36.8826L55.2654 35.2161Z" fill="#202124"/>
<path d="M65.69 37.945L62.4988 37.094L61.4351 53.9011L63.3852 54.4329L63.7753 48.405L64.9809 48.7242C67.0375 49.256 68.1011 46.9158 68.2784 44.1501C68.5267 41.0653 67.6757 38.4769 65.69 37.945ZM66.3283 43.6182C66.2573 44.8947 65.8673 45.6393 65.0873 45.4266L64.0235 45.143L64.2717 40.9235L65.3354 41.2071C66.1156 41.4198 66.3992 42.3418 66.3283 43.6182Z" fill="#202124"/>
<path d="M73.5262 39.7838C71.2214 39.1811 69.1649 42.2305 68.8458 47.2655C68.5267 52.3005 70.1577 56.3781 72.4625 56.981C74.7673 57.5837 76.8239 54.4989 77.1075 49.4638C77.4266 44.4288 75.831 40.3867 73.5262 39.7838ZM75.1218 48.932C74.9446 51.875 73.9872 53.577 72.6753 53.2579C71.3633 52.9033 70.6541 50.7403 70.8315 47.7973C71.0087 44.8189 71.966 43.1524 73.278 43.4714C74.59 43.826 75.2991 45.9535 75.1218 48.932Z" fill="#202124"/>
<path d="M84.6603 48.3719C84.8373 45.4643 83.9861 42.8405 82.0361 42.3086L78.7386 41.4221L77.7103 58.2292L79.6605 58.7611L80.0504 52.4141L80.5114 52.5559L81.7878 59.3284L84.0217 59.9311L82.5676 52.8042C83.8448 52.3077 84.5183 50.4639 84.6603 48.3719ZM82.6747 47.9819C82.6033 49.2938 82.2138 50.0029 81.4689 49.7902L80.2632 49.4711L80.5114 45.3225L81.7172 45.6416C82.4264 45.8544 82.7453 46.7408 82.6747 47.9819Z" fill="#202124"/>
<path d="M85.7947 43.2646L85.5821 46.5623L87.709 47.1296L86.8585 60.639L88.8085 61.1709L89.6597 47.6614L91.7873 48.2288L91.9999 44.9311L85.7947 43.2646Z" fill="#202124"/>
</svg>
