<svg width="154" height="49" viewBox="0 0 154 49" fill="none" xmlns="http://www.w3.org/2000/svg">
<path d="M144.202 0.889648H9.36698C4.19376 0.889648 0 5.05534 0 10.194V38.8415C0 43.9802 4.19376 48.1459 9.36698 48.1459H144.202C149.376 48.1459 153.569 43.9802 153.569 38.8415V10.194C153.569 5.05534 149.376 0.889648 144.202 0.889648Z" fill="white"/>
<path d="M30.8031 23.3272L18.6602 11.1541L34.1099 20.0212L30.8031 23.3272ZM15.491 10.439C14.7757 10.8131 14.2971 11.4951 14.2971 12.3808V36.6554C14.2971 37.5411 14.7757 38.2231 15.491 38.5972L29.6093 24.5153L15.491 10.439ZM38.8858 22.8486L35.6451 20.9728L32.0302 24.5208L35.6451 28.0687L38.9516 26.1931C39.9421 25.4064 39.9421 23.6352 38.8858 22.8486ZM18.6602 37.8876L34.1099 29.0204L30.8031 25.7144L18.6602 37.8876Z" fill="#1F212E"/>
<path d="M52.1335 11.702C51.9916 11.4304 51.7944 11.2266 51.5419 11.0909C51.2896 10.9498 50.9977 10.8793 50.6664 10.8793C50.3035 10.8793 49.9802 10.9603 49.6962 11.1221C49.4122 11.2841 49.1887 11.5139 49.0257 11.8116C48.868 12.1094 48.7891 12.4541 48.7891 12.8458C48.7891 13.2376 48.868 13.585 49.0257 13.8879C49.1887 14.1857 49.4122 14.4155 49.6962 14.5774C49.9802 14.7393 50.3035 14.8203 50.6664 14.8203C51.1555 14.8203 51.5526 14.6844 51.8575 14.4129C52.1624 14.1413 52.3492 13.773 52.4175 13.3081H50.3587V12.5951H53.3798V13.2924C53.322 13.7156 53.1696 14.1047 52.9224 14.4599C52.6806 14.815 52.3623 15.0997 51.9679 15.3139C51.5787 15.5228 51.1449 15.6273 50.6664 15.6273C50.1509 15.6273 49.6804 15.5098 49.2544 15.2747C48.8285 15.0344 48.4893 14.7027 48.2369 14.2797C47.9897 13.8565 47.8662 13.3786 47.8662 12.8458C47.8662 12.3131 47.9897 11.8351 48.2369 11.4121C48.4893 10.9889 48.8285 10.6599 49.2544 10.4248C49.6856 10.1846 50.1564 10.0645 50.6664 10.0645C51.2501 10.0645 51.768 10.2081 52.2203 10.4954C52.6778 10.7775 53.0091 11.1797 53.2142 11.702H52.1335ZM55.166 10.8558V12.4541H57.0591V13.1828H55.166V14.8516H57.2958V15.5803H54.2667V10.1271H57.2958V10.8558H55.166ZM61.9449 10.1349V10.8636H60.4857V15.5803H59.5864V10.8636H58.1193V10.1349H61.9449ZM65.8035 10.1349V15.5803H64.9045V10.1349H65.8035ZM70.526 10.1349V10.8636H69.0672V15.5803H68.1682V10.8636H66.7008V10.1349H70.526ZM75.9861 15.6351C75.4761 15.6351 75.0055 15.5176 74.5745 15.2826C74.1486 15.0422 73.8094 14.7105 73.557 14.2875C73.3097 13.8592 73.1861 13.3786 73.1861 12.8458C73.1861 12.3131 73.3097 11.8351 73.557 11.4121C73.8094 10.9889 74.1486 10.6599 74.5745 10.4248C75.0055 10.1846 75.4761 10.0645 75.9861 10.0645C76.5013 10.0645 76.9727 10.1846 77.3985 10.4248C77.8296 10.6599 78.1687 10.9889 78.416 11.4121C78.6633 11.8351 78.787 12.3131 78.787 12.8458C78.787 13.3786 78.6633 13.8592 78.416 14.2875C78.1687 14.7105 77.8296 15.0422 77.3985 15.2826C76.9727 15.5176 76.5013 15.6351 75.9861 15.6351ZM75.9861 14.8594C76.3493 14.8594 76.673 14.7785 76.9563 14.6165C77.2406 14.4494 77.4612 14.2143 77.6192 13.9114C77.7824 13.6032 77.8639 13.248 77.8639 12.8458C77.8639 12.4437 77.7824 12.0911 77.6192 11.7882C77.4612 11.4852 77.2406 11.2527 76.9563 11.0909C76.673 10.9289 76.3493 10.848 75.9861 10.848C75.6237 10.848 75.3 10.9289 75.0167 11.0909C74.7325 11.2527 74.5084 11.4852 74.3461 11.7882C74.1881 12.0911 74.1091 12.4437 74.1091 12.8458C74.1091 13.248 74.1881 13.6032 74.3461 13.9114C74.5084 14.2143 74.7325 14.4494 75.0167 14.6165C75.3 14.7785 75.6237 14.8594 75.9861 14.8594ZM84.1758 15.5803H83.2768L80.5712 11.5139V15.5803H79.6714V10.1271H80.5712L83.2768 14.1857V10.1271H84.1758V15.5803Z" fill="#1F212E"/>
<path d="M56.4078 28.1023C56.1327 27.5761 55.7506 27.1814 55.2616 26.9182C54.7725 26.645 54.2071 26.5083 53.5652 26.5083C52.8622 26.5083 52.2355 26.6652 51.6854 26.9789C51.1352 27.2926 50.7021 27.7379 50.3864 28.3149C50.0807 28.8917 49.9279 29.5596 49.9279 30.3187C49.9279 31.0777 50.0807 31.7508 50.3864 32.3377C50.7021 32.9146 51.1352 33.36 51.6854 33.6736C52.2355 33.9873 52.8622 34.1442 53.5652 34.1442C54.5127 34.1442 55.2821 33.881 55.8729 33.3548C56.4637 32.8286 56.8256 32.1151 56.958 31.2143H52.9692V29.8328H58.8225V31.184C58.7104 32.0037 58.4151 32.7576 57.9361 33.4459C57.4675 34.1342 56.8511 34.6855 56.0869 35.1006C55.3328 35.5054 54.4923 35.7078 53.5652 35.7078C52.5666 35.7078 51.6548 35.4801 50.8295 35.0247C50.0043 34.5592 49.3471 33.9165 48.8581 33.0967C48.3791 32.277 48.1397 31.3509 48.1397 30.3187C48.1397 29.2864 48.3791 28.3604 48.8581 27.5406C49.3471 26.7209 50.0043 26.0832 50.8295 25.6278C51.665 25.1624 52.577 24.9295 53.5652 24.9295C54.6961 24.9295 55.6996 25.2079 56.5759 25.7644C57.4623 26.311 58.1042 27.0903 58.5015 28.1023H56.4078ZM64.1935 35.7533C63.3988 35.7533 62.6804 35.5764 62.0386 35.222C61.3967 34.8577 60.8923 34.3516 60.5256 33.7039C60.1588 33.046 59.9754 32.287 59.9754 31.4268C59.9754 30.5768 60.1639 29.8229 60.5409 29.1649C60.9177 28.507 61.4324 28.0012 62.0845 27.6468C62.7364 27.2926 63.4651 27.1155 64.27 27.1155C65.0745 27.1155 65.8035 27.2926 66.4552 27.6468C67.1069 28.0012 67.6221 28.507 67.999 29.1649C68.376 29.8229 68.564 30.5768 68.564 31.4268C68.564 32.277 68.3708 33.0308 67.9836 33.6888C67.5963 34.3467 67.0665 34.8577 66.3942 35.222C65.7322 35.5764 64.9981 35.7533 64.1935 35.7533ZM64.1935 34.2505C64.6417 34.2505 65.059 34.1442 65.4463 33.9316C65.8438 33.7191 66.165 33.4003 66.4097 32.9753C66.6544 32.5503 66.7763 32.034 66.7763 31.4268C66.7763 30.8196 66.6595 30.3086 66.4251 29.8936C66.1907 29.4685 65.8799 29.1498 65.4927 28.9372C65.1054 28.7247 64.6873 28.6185 64.239 28.6185C63.7908 28.6185 63.3734 28.7247 62.9861 28.9372C62.6093 29.1498 62.3085 29.4685 62.0845 29.8936C61.8604 30.3086 61.7482 30.8196 61.7482 31.4268C61.7482 32.3276 61.9775 33.0259 62.4359 33.5218C62.9045 34.0075 63.4905 34.2505 64.1935 34.2505ZM73.9391 35.7533C73.1448 35.7533 72.4262 35.5764 71.7848 35.222C71.1425 34.8577 70.6385 34.3516 70.271 33.7039C69.9043 33.046 69.7215 32.287 69.7215 31.4268C69.7215 30.5768 69.9095 29.8229 70.2864 29.1649C70.6634 28.507 71.1786 28.0012 71.8303 27.6468C72.4828 27.2926 73.211 27.1155 74.0155 27.1155C74.8209 27.1155 75.549 27.2926 76.2007 27.6468C76.8533 28.0012 77.3676 28.507 77.7446 29.1649C78.1215 29.8229 78.3104 30.5768 78.3104 31.4268C78.3104 32.277 78.1164 33.0308 77.7291 33.6888C77.3427 34.3467 76.8121 34.8577 76.1398 35.222C75.4778 35.5764 74.7445 35.7533 73.9391 35.7533ZM73.9391 34.2505C74.3873 34.2505 74.8055 34.1442 75.1927 33.9316C75.5903 33.7191 75.9105 33.4003 76.1552 32.9753C76.3999 32.5503 76.5219 32.034 76.5219 31.4268C76.5219 30.8196 76.4051 30.3086 76.1707 29.8936C75.9363 29.4685 75.6255 29.1498 75.2382 28.9372C74.851 28.7247 74.4337 28.6185 73.9855 28.6185C73.5372 28.6185 73.1191 28.7247 72.7318 28.9372C72.3549 29.1498 72.0544 29.4685 71.8303 29.8936C71.6062 30.3086 71.4937 30.8196 71.4937 31.4268C71.4937 32.3276 71.7229 33.0259 72.1815 33.5218C72.6503 34.0075 73.2359 34.2505 73.9391 34.2505ZM83.4253 27.1155C84.0779 27.1155 84.6532 27.2471 85.1521 27.5102C85.6621 27.7632 86.0596 28.082 86.3447 28.4667V27.2522H88.1023V35.7533C88.1023 36.5224 87.9392 37.2055 87.6129 37.8027C87.2875 38.41 86.8135 38.8857 86.1919 39.2297C85.5805 39.5738 84.8464 39.7459 83.9912 39.7459C82.85 39.7459 81.9021 39.4778 81.1482 38.9413C80.3943 38.4151 79.9667 37.6965 79.8646 36.7857H81.5913C81.7244 37.2207 82.0043 37.5699 82.4319 37.8331C82.8698 38.1063 83.3901 38.2429 83.9912 38.2429C84.6935 38.2429 85.2594 38.0304 85.687 37.6054C86.1257 37.1803 86.3447 36.5631 86.3447 35.7533V34.3567C86.0493 34.7515 85.6466 35.0854 85.1375 35.3587C84.6377 35.6219 84.0676 35.7533 83.4253 35.7533C82.6921 35.7533 82.0189 35.5712 81.4075 35.2069C80.8073 34.8324 80.3282 34.3163 79.971 33.6584C79.625 32.9905 79.4515 32.2366 79.4515 31.3965C79.4515 30.5564 79.625 29.8126 79.971 29.1649C80.3282 28.5173 80.8073 28.0163 81.4075 27.662C82.0189 27.2977 82.6921 27.1155 83.4253 27.1155ZM86.3447 31.4268C86.3447 30.85 86.2219 30.3491 85.9781 29.9239C85.7437 29.4989 85.4328 29.1749 85.0456 28.9524C84.6583 28.7298 84.2402 28.6185 83.792 28.6185C83.3438 28.6185 82.9265 28.7298 82.5392 28.9524C82.152 29.1649 81.836 29.4837 81.5913 29.9087C81.3569 30.3238 81.2401 30.8196 81.2401 31.3965C81.2401 31.9733 81.3569 32.4795 81.5913 32.9146C81.836 33.3497 82.152 33.6837 82.5392 33.9165C82.9359 34.1391 83.3541 34.2505 83.792 34.2505C84.2402 34.2505 84.6583 34.1391 85.0456 33.9165C85.4328 33.6939 85.7437 33.37 85.9781 32.9449C86.2219 32.5098 86.3447 32.0037 86.3447 31.4268ZM92.1328 24.3831V35.6167H90.3906V24.3831H92.1328ZM102.139 31.2295C102.139 31.5432 102.118 31.8267 102.077 32.0796H95.6429C95.6936 32.7476 95.9434 33.284 96.3916 33.6888C96.8398 34.0935 97.3902 34.296 98.0419 34.296C98.9796 34.296 99.6416 33.9065 100.029 33.1271H101.909C101.654 33.8962 101.191 34.5288 100.518 35.0247C99.8554 35.5105 99.0302 35.7533 98.0419 35.7533C97.2374 35.7533 96.5144 35.5764 95.8722 35.222C95.2402 34.8577 94.7413 34.3516 94.3747 33.7039C94.0175 33.046 93.8398 32.287 93.8398 31.4268C93.8398 30.5667 94.0123 29.8126 94.3592 29.1649C94.7156 28.507 95.2101 28.0012 95.8412 27.6468C96.4835 27.2926 97.2168 27.1155 98.0419 27.1155C98.837 27.1155 99.5446 27.2877 100.167 27.6317C100.788 27.9757 101.272 28.4615 101.618 29.089C101.965 29.7063 102.139 30.4198 102.139 31.2295ZM100.319 30.683C100.309 30.0454 100.079 29.5344 99.6321 29.1497C99.1831 28.7651 98.6284 28.5729 97.9655 28.5729C97.3645 28.5729 96.8501 28.7651 96.4225 29.1497C95.9941 29.5242 95.7399 30.0354 95.6584 30.683H100.319ZM115.25 28.2085C115.25 28.745 115.123 29.2509 114.868 29.7266C114.613 30.2024 114.206 30.5919 113.645 30.8955C113.085 31.1891 112.367 31.3358 111.491 31.3358H109.565V35.6167H107.823V25.0661H111.491C112.306 25.0661 112.993 25.2079 113.554 25.4912C114.124 25.7644 114.548 26.1388 114.822 26.6146C115.107 27.0903 115.25 27.6217 115.25 28.2085ZM111.491 29.9239C112.153 29.9239 112.647 29.7773 112.973 29.4837C113.299 29.1801 113.462 28.7551 113.462 28.2085C113.462 27.0548 112.805 26.478 111.491 26.478H109.565V29.9239H111.491ZM118.654 24.3831V35.6167H116.912V24.3831H118.654ZM120.361 31.3965C120.361 30.5564 120.534 29.8126 120.88 29.1649C121.237 28.5173 121.715 28.0163 122.317 27.662C122.928 27.2977 123.6 27.1155 124.334 27.1155C124.996 27.1155 125.572 27.2471 126.061 27.5102C126.561 27.7632 126.957 28.082 127.253 28.4667V27.2522H129.01V35.6167H127.253V34.3719C126.957 34.7666 126.556 35.0954 126.046 35.3587C125.536 35.6219 124.956 35.7533 124.303 35.7533C123.58 35.7533 122.918 35.5712 122.317 35.2069C121.715 34.8324 121.237 34.3163 120.88 33.6584C120.534 32.9905 120.361 32.2366 120.361 31.3965ZM127.253 31.4268C127.253 30.85 127.131 30.3491 126.886 29.9239C126.653 29.4989 126.342 29.1749 125.954 28.9524C125.567 28.7298 125.149 28.6185 124.701 28.6185C124.253 28.6185 123.835 28.7298 123.447 28.9524C123.061 29.1649 122.745 29.4837 122.5 29.9087C122.266 30.3238 122.149 30.8196 122.149 31.3965C122.149 31.9733 122.266 32.4795 122.5 32.9146C122.745 33.3497 123.061 33.6837 123.447 33.9165C123.845 34.1391 124.263 34.2505 124.701 34.2505C125.149 34.2505 125.567 34.1391 125.954 33.9165C126.342 33.6939 126.653 33.37 126.886 32.9449C127.131 32.5098 127.253 32.0037 127.253 31.4268ZM138.88 27.2522L133.714 39.5485H131.911L133.622 35.4801L130.306 27.2522H132.247L134.616 33.628L137.077 27.2522H138.88Z" fill="#1F212E"/>
</svg>
