<svg width="116" height="51" viewBox="0 0 116 51" fill="none" xmlns="http://www.w3.org/2000/svg">
<path d="M42.9015 33.4048C42.9015 33.4048 40.3206 36.424 40.3693 38.8101L34.0875 39.151C34.0875 39.151 34.1849 33.4048 42.9015 33.4048Z" fill="#202124"/>
<path d="M26.783 14.1729C26.783 14.1729 22.3029 17.1433 21.7673 23.7661H42.2685C42.2685 23.7661 43.3885 16.9973 45.0928 13.6372L26.783 14.1729ZM40.6615 21.5747L27.1239 15.5851H42.025C41.051 17.4842 40.6615 21.5747 40.6615 21.5747Z" fill="#202124"/>
<path d="M42.4632 4.23658H42.5119V3.55484C42.5119 3.06787 42.9014 2.62961 43.4371 2.62961H44.1188V0H42.9014C41.3918 0 40.1257 1.21741 40.1257 2.77569V4.77225H40.1744C29.5586 7.40185 29.1204 13.4889 29.1204 13.4889C35.3535 5.55139 47.9659 6.52532 47.9659 6.52532C45.2876 9.69059 45.7258 13.0506 45.7258 13.0506C48.9398 5.30791 57.3156 3.74962 57.3156 3.74962C51.0824 3.26266 46.2615 3.55484 42.4632 4.23658Z" fill="#202124"/>
<path d="M16.2159 32.583C16.2159 32.583 16.4594 37.5013 16.7516 39.0596L13.148 37.8909C12.8559 37.8422 12.6124 37.55 12.6124 37.2579V35.9431C12.6124 35.6509 12.7585 35.4074 12.9532 35.2613L16.2159 32.583Z" fill="#202124"/>
<path d="M31.8474 25.8535H17.8229C17.2872 25.8535 16.8489 26.3405 16.8489 26.8761L17.8229 41.5337C17.8716 42.0207 18.2611 42.4103 18.7968 42.4103H30.3378C30.8248 42.4103 31.2631 42.0207 31.3118 41.5337L32.8701 26.8761C32.8701 26.3405 32.4318 25.8535 31.8474 25.8535ZM29.8022 40.9981H19.2838L19.1377 39.2937H29.997L29.8022 40.9981ZM30.0944 37.2485H19.2351L19.089 35.5441H30.2891L30.0944 37.2485ZM30.2891 33.4501H19.0403L18.8455 31.7458H30.4839L30.2891 33.4501ZM30.9709 29.4571H18.7968L18.602 27.7527H31.1657L30.9709 29.4571Z" fill="#202124"/>
<path d="M102.652 45.4301L112.44 46.0144V44.6996L60.7244 31.8438V5.79122C48.112 5.10947 44.6546 18.014 44.5572 18.4036C45.7746 16.5044 47.0407 14.9948 48.3068 13.8261V15.0922H47.7225C47.2842 15.0922 46.9433 15.4331 46.9433 15.8714V24.3932C46.9433 24.8315 47.2842 25.1724 47.7225 25.1724H38.9084C36.4249 25.1724 34.3309 26.9741 33.8927 29.409L32.4318 37.6874C32.4318 37.6874 34.964 29.3116 42.5119 29.3116C50.0599 29.3116 51.8616 35.7395 51.8616 35.7395L66.1297 38.0769C65.6427 38.6613 65.3992 39.9274 65.3992 39.9274L52.6408 38.4665C53.2738 45.917 51.0338 46.0144 50.9364 46.0144C50.9851 45.917 51.7156 44.164 51.7156 40.9987C51.7156 37.736 50.9851 33.2073 46.8946 33.2073C42.8041 33.2073 41.0997 39.7326 41.0997 39.7326C36.571 39.8787 32.1396 40.463 32.1396 40.463V40.95C32.1396 42.2161 31.117 43.2874 29.8022 43.2874H18.5533C17.5307 43.2874 16.6542 42.4596 16.6542 41.3883V39.83L12.515 38.5639V45.6736L0 50.2997H115.313L102.652 45.4301ZM58.6791 22.2019C58.6791 23.8089 57.3643 25.1237 55.7087 25.1237H50.1573C50.5955 25.1237 50.9364 24.7828 50.9364 24.3445V15.7253C50.9364 15.287 50.5955 14.9461 50.1573 14.9461H49.4755V12.7548C54.2965 8.95648 58.6304 9.68693 58.6304 9.68693V22.2019H58.6791ZM16.4594 42.4109C16.4594 42.6057 16.3133 42.7518 16.1185 42.7518H14.9985C14.5115 42.7518 14.0733 42.557 13.7811 42.2161C13.4889 41.8752 13.2941 41.437 13.2941 40.95H16.1672C16.362 40.95 16.5081 41.0961 16.5081 41.2909V42.4109H16.4594ZM32.9188 41.9726C32.9188 41.6805 33.1622 41.3883 33.5031 41.3883H38.3241C38.3241 42.1674 37.9832 42.8979 37.4475 43.4335C36.9119 43.9692 36.1814 44.3101 35.4023 44.3101H33.5518C33.2109 44.3101 32.9674 44.0666 32.9674 43.7257V41.9726H32.9188ZM40.0284 47.4753H33.9414L30.8735 46.5014H19.1377V45.5275H31.0196L34.1362 46.5014H39.9797V47.4753H40.0284ZM48.0146 46.5501C46.6998 46.5501 45.6772 44.0666 45.6772 40.9987C45.6772 37.9308 46.7485 35.4473 48.0146 35.4473C49.3294 35.4473 50.3521 37.9308 50.3521 40.9987C50.4008 44.0666 49.3294 46.5501 48.0146 46.5501ZM72.4115 46.7936C71.3889 46.7936 70.5124 45.0405 70.5124 42.8492C70.5124 40.9987 71.1454 39.4404 71.9733 39.0021C72.1193 38.9048 72.2654 38.9048 72.4115 38.9048C72.655 38.9048 72.8985 39.0022 73.142 39.1969C73.8237 39.7813 74.3107 41.1935 74.3107 42.8492C74.3107 45.0405 73.4828 46.7936 72.4115 46.7936ZM77.2812 46.9884C76.2585 46.9884 75.382 45.2353 75.382 43.044C75.382 41.6318 75.7229 40.4143 76.2585 39.7326C76.5507 39.343 76.8916 39.0995 77.2812 39.0995C77.7681 39.0995 78.2064 39.4891 78.5473 40.1222C78.9368 40.8526 79.1803 41.8752 79.1803 43.0927C79.1803 45.1866 78.3038 46.9884 77.2812 46.9884ZM95.6397 43.8231L79.6186 41.8265V40.2683L96.0293 42.9466L95.6397 43.8231ZM98.7076 47.2805C98.1719 47.2805 97.7823 46.3066 97.7823 45.0405C97.7823 44.5049 97.8797 44.0179 97.9771 43.6283C98.1232 43.1413 98.4154 42.8005 98.7076 42.8005C99.0971 42.8005 99.438 43.3848 99.5841 44.2127C99.6328 44.4562 99.6328 44.7483 99.6328 45.0405C99.6328 46.3066 99.1945 47.2805 98.7076 47.2805ZM102.262 45.284C102.262 46.5014 101.824 47.524 101.337 47.524C100.85 47.524 100.412 46.5501 100.412 45.284C100.412 45.0405 100.412 44.797 100.461 44.6022C100.607 43.7257 100.948 43.044 101.337 43.044C101.873 43.044 102.262 44.0666 102.262 45.284Z" fill="#202124"/>
<path d="M64.9123 4.67969L64.6201 9.15975L67.5419 9.9389L66.3732 28.4922L69.0515 29.2227L70.2202 10.6693L73.142 11.4485L73.4342 6.96842L64.9123 4.67969Z" fill="#202124"/>
<path d="M79.229 8.4275L74.8463 7.25879L73.3854 30.3409L76.0637 31.0713L76.5994 22.7929L78.2551 23.2312C81.0795 23.9616 82.5403 20.7477 82.7838 16.9494C83.1247 12.7128 81.956 9.15795 79.229 8.4275ZM80.1055 16.2189C80.0081 17.972 79.4725 18.9946 78.4012 18.7024L76.9403 18.3129L77.2811 12.518L78.742 12.9076C79.8134 13.1997 80.2029 14.4659 80.1055 16.2189Z" fill="#202124"/>
<path d="M89.9909 10.9529C86.8256 10.1251 84.0012 14.313 83.563 21.2279C83.1247 28.1427 85.3647 33.7428 88.53 34.5707C91.6953 35.3985 94.5197 31.1619 94.9092 24.247C95.3475 17.3321 93.1562 11.7808 89.9909 10.9529ZM92.1822 23.5166C91.9388 27.5584 90.624 29.8958 88.8222 29.4576C87.0204 28.9706 86.0465 26.0001 86.29 21.9583C86.5334 17.8678 87.8482 15.5791 89.65 16.0173C91.4518 16.5043 92.4257 19.4261 92.1822 23.5166Z" fill="#202124"/>
<path d="M105.282 22.7476C105.525 18.7545 104.356 15.151 101.678 14.4205L97.1493 13.2031L95.7371 36.2852L98.4154 37.0157L98.951 28.299L99.5841 28.4938L101.337 37.7948L104.405 38.6226L102.408 28.8347C104.162 28.1529 105.087 25.6207 105.282 22.7476ZM102.555 22.212C102.457 24.0137 101.922 24.9876 100.899 24.6955L99.2432 24.2572L99.5841 18.5597L101.24 18.998C102.214 19.2902 102.652 20.5076 102.555 22.212Z" fill="#202124"/>
<path d="M106.84 15.7334L106.548 20.2622L109.469 21.0413L108.301 39.5946L110.979 40.3251L112.148 21.7717L115.07 22.5509L115.362 18.0221L106.84 15.7334Z" fill="#202124"/>
</svg>
