<svg width="180" height="55" viewBox="0 0 180 55" fill="none" xmlns="http://www.w3.org/2000/svg">
<path fill-rule="evenodd" clip-rule="evenodd" d="M10.0441 0H169.956C175.503 0 180 4.45811 180 9.95748V44.8086C180 50.308 175.503 54.7661 169.956 54.7661H10.0441C4.49688 54.7661 0 50.308 0 44.8086V9.95748C0 4.45811 4.49688 0 10.0441 0ZM59.4375 8.42146C58.9694 8.18111 58.4225 8.06091 57.7966 8.06091H55.8766V13.8884H57.7966C58.4225 13.8884 58.9694 13.7738 59.4375 13.5446C59.9111 13.3098 60.2748 12.9745 60.5286 12.5384C60.7879 12.1024 60.9176 11.5881 60.9176 10.9956C60.9176 10.4031 60.7879 9.88601 60.5286 9.44442C60.2748 8.99722 59.9111 8.65624 59.4375 8.42146ZM59.3783 12.5552C59.0117 12.9241 58.4846 13.1086 57.7966 13.1086H56.8408V8.84071H57.7966C58.4846 8.84071 59.0117 9.03076 59.3783 9.41088C59.7449 9.791 59.928 10.3192 59.928 10.9956C59.928 11.6664 59.7449 12.1863 59.3783 12.5552ZM62.7023 13.6704C63.0576 13.8661 63.4551 13.9639 63.8949 13.9639C64.3403 13.9639 64.7463 13.8661 65.1129 13.6704C65.485 13.4692 65.7782 13.1869 65.9925 12.8235C66.2066 12.4602 66.3139 12.0437 66.3139 11.5742C66.3139 11.1046 66.2095 10.6882 66.001 10.3248C65.7922 9.96148 65.5075 9.682 65.1467 9.48634C64.7857 9.29069 64.3826 9.19287 63.9372 9.19287C63.4916 9.19287 63.0885 9.29069 62.7277 9.48634C62.3666 9.682 62.082 9.96148 61.8734 10.3248C61.6646 10.6882 61.5605 11.1046 61.5605 11.5742C61.5605 12.0493 61.662 12.4686 61.865 12.8319C62.0679 13.1897 62.3471 13.4692 62.7023 13.6704ZM64.5885 12.9577C64.3741 13.0751 64.1428 13.1338 63.8949 13.1338C63.5058 13.1338 63.1815 12.9996 62.9222 12.7313C62.6685 12.4574 62.5416 12.0717 62.5416 11.5742C62.5416 11.2388 62.6035 10.9565 62.7277 10.7273C62.8517 10.4925 63.0179 10.3164 63.2267 10.1991C63.4408 10.0817 63.6721 10.023 63.9203 10.023C64.1682 10.023 64.3995 10.0817 64.6138 10.1991C64.8279 10.3164 65 10.4925 65.1298 10.7273C65.2593 10.9565 65.3243 11.2388 65.3243 11.5742C65.3243 11.9096 65.2567 12.1947 65.1213 12.4294C64.986 12.6642 64.8084 12.8403 64.5885 12.9577ZM72.0797 13.8884L73.5261 9.26834H72.5788L71.6145 12.9661L70.6672 9.26834H69.6607L68.6711 12.9828L67.6984 9.26834H66.7173L68.1721 13.8884H69.1871L70.1259 10.4758L71.0648 13.8884H72.0797ZM77.5791 9.41926C77.2915 9.26834 76.9646 9.19287 76.598 9.19287C76.3218 9.19287 76.0596 9.24599 75.8114 9.35218C75.569 9.45838 75.3686 9.60653 75.2108 9.79658V9.26834H74.2466V13.8884H75.2108V11.3059C75.2108 10.8922 75.3152 10.5764 75.5238 10.3584C75.7382 10.1348 76.0257 10.023 76.3865 10.023C76.7473 10.023 77.0323 10.1348 77.2408 10.3584C77.4493 10.5764 77.5537 10.8922 77.5537 11.3059V13.8884H78.5095V11.1633C78.5095 10.7441 78.4278 10.3863 78.2642 10.0901C78.1006 9.79378 77.8723 9.57019 77.5791 9.41926ZM80.7036 13.8884V7.68359H79.7394V13.8884H80.7036ZM82.7986 13.6704C83.1538 13.8661 83.5514 13.9639 83.9912 13.9639C84.4366 13.9639 84.8426 13.8661 85.2092 13.6704C85.5813 13.4692 85.8745 13.1869 86.0888 12.8235C86.3029 12.4602 86.4102 12.0437 86.4102 11.5742C86.4102 11.1046 86.3058 10.6882 86.0973 10.3248C85.8885 9.96148 85.6038 9.682 85.243 9.48634C84.8819 9.29069 84.4789 9.19287 84.0335 9.19287C83.5878 9.19287 83.1848 9.29069 82.824 9.48634C82.4629 9.682 82.1782 9.96148 81.9697 10.3248C81.7609 10.6882 81.6567 11.1046 81.6567 11.5742C81.6567 12.0493 81.7582 12.4686 81.9612 12.8319C82.1642 13.1897 82.4434 13.4692 82.7986 13.6704ZM84.6848 12.9577C84.4704 13.0751 84.2391 13.1338 83.9912 13.1338C83.6021 13.1338 83.2778 12.9996 83.0185 12.7313C82.7648 12.4574 82.6379 12.0717 82.6379 11.5742C82.6379 11.2388 82.6997 10.9565 82.824 10.7273C82.9479 10.4925 83.1142 10.3164 83.323 10.1991C83.5371 10.0817 83.7684 10.023 84.0166 10.023C84.2645 10.023 84.4958 10.0817 84.7101 10.1991C84.9242 10.3164 85.0963 10.4925 85.2261 10.7273C85.3556 10.9565 85.4206 11.2388 85.4206 11.5742C85.4206 11.9096 85.353 12.1947 85.2176 12.4294C85.0823 12.6642 84.9047 12.8403 84.6848 12.9577ZM87.3295 10.3248C87.1379 10.6826 87.0419 11.0934 87.0419 11.5574C87.0419 12.0214 87.1379 12.4378 87.3295 12.8068C87.527 13.1701 87.7918 13.4552 88.1246 13.662C88.4574 13.8632 88.8237 13.9639 89.2241 13.9639C89.5849 13.9639 89.9063 13.8912 90.1884 13.7459C90.4704 13.6005 90.6929 13.4188 90.8566 13.2008V13.8884H91.8292V9.26834H90.8566V9.93913C90.6929 9.7267 90.473 9.55062 90.1968 9.41088C89.9262 9.26553 89.6077 9.19287 89.2411 9.19287C88.8351 9.19287 88.4629 9.29349 88.1246 9.49473C87.7918 9.69038 87.527 9.96708 87.3295 10.3248ZM90.6536 10.7441C90.7889 10.9789 90.8566 11.2556 90.8566 11.5742C90.8566 11.8928 90.7889 12.1723 90.6536 12.4127C90.5238 12.6474 90.352 12.8263 90.1376 12.9493C89.9233 13.0723 89.6922 13.1338 89.4441 13.1338C89.2017 13.1338 88.9704 13.0723 88.7505 12.9493C88.5361 12.8207 88.3614 12.6363 88.2261 12.3959C88.0963 12.1555 88.0315 11.876 88.0315 11.5574C88.0315 11.2388 88.0963 10.9649 88.2261 10.7357C88.3614 10.5009 88.5361 10.3248 88.7505 10.2074C88.9648 10.0845 89.1959 10.023 89.4441 10.023C89.6922 10.023 89.9233 10.0845 90.1376 10.2074C90.352 10.3304 90.5238 10.5093 90.6536 10.7441ZM93.062 10.3248C92.8701 10.6826 92.7744 11.0934 92.7744 11.5574C92.7744 12.0214 92.8701 12.4378 93.062 12.8068C93.2592 13.1701 93.5243 13.4552 93.8571 13.662C94.1954 13.8632 94.5676 13.9639 94.9736 13.9639C95.3344 13.9639 95.6529 13.8912 95.9293 13.7459C96.2111 13.6005 96.431 13.416 96.5891 13.1925V13.8884H97.5618V7.68359H96.5891V9.91397C96.4141 9.69596 96.1773 9.52269 95.8786 9.39411C95.5852 9.25995 95.2865 9.19287 94.982 9.19287C94.5702 9.19287 94.1954 9.29349 93.8571 9.49473C93.5243 9.69038 93.2592 9.96708 93.062 10.3248ZM96.3861 10.7441C96.5214 10.9789 96.5891 11.2556 96.5891 11.5742C96.5891 11.8928 96.5214 12.1723 96.3861 12.4127C96.2563 12.6474 96.0842 12.8263 95.8701 12.9493C95.6558 13.0723 95.4245 13.1338 95.1766 13.1338C94.9339 13.1338 94.7029 13.0723 94.483 12.9493C94.2686 12.8207 94.0939 12.6363 93.9586 12.3959C93.8288 12.1555 93.764 11.876 93.764 11.5574C93.764 11.2388 93.8288 10.9649 93.9586 10.7357C94.0939 10.5009 94.2686 10.3248 94.483 10.2074C94.6971 10.0845 94.9284 10.023 95.1766 10.023C95.4245 10.023 95.6558 10.0845 95.8701 10.2074C96.0842 10.3304 96.2563 10.5093 96.3861 10.7441ZM101.854 13.6704C102.21 13.8661 102.607 13.9639 103.047 13.9639C103.492 13.9639 103.898 13.8661 104.265 13.6704C104.637 13.4692 104.93 13.1869 105.144 12.8235C105.359 12.4602 105.466 12.0437 105.466 11.5742C105.466 11.1046 105.361 10.6882 105.153 10.3248C104.944 9.96148 104.659 9.682 104.299 9.48634C103.938 9.29069 103.535 9.19287 103.089 9.19287C102.644 9.19287 102.24 9.29069 101.88 9.48634C101.519 9.682 101.234 9.96148 101.025 10.3248C100.817 10.6882 100.712 11.1046 100.712 11.5742C100.712 12.0493 100.814 12.4686 101.017 12.8319C101.22 13.1897 101.499 13.4692 101.854 13.6704ZM103.74 12.9577C103.526 13.0751 103.295 13.1338 103.047 13.1338C102.658 13.1338 102.333 12.9996 102.074 12.7313C101.82 12.4574 101.694 12.0717 101.694 11.5742C101.694 11.2388 101.755 10.9565 101.88 10.7273C102.004 10.4925 102.17 10.3164 102.379 10.1991C102.593 10.0817 102.824 10.023 103.072 10.023C103.32 10.023 103.551 10.0817 103.766 10.1991C103.98 10.3164 104.152 10.4925 104.282 10.7273C104.411 10.9565 104.476 11.2388 104.476 11.5742C104.476 11.9096 104.409 12.1947 104.273 12.4294C104.138 12.6642 103.96 12.8403 103.74 12.9577ZM109.752 9.41926C109.464 9.26834 109.137 9.19287 108.77 9.19287C108.494 9.19287 108.232 9.24599 107.984 9.35218C107.741 9.45838 107.541 9.60653 107.383 9.79658V9.26834H106.419V13.8884H107.383V11.3059C107.383 10.8922 107.487 10.5764 107.696 10.3584C107.91 10.1348 108.198 10.023 108.559 10.023C108.92 10.023 109.204 10.1348 109.413 10.3584C109.622 10.5764 109.726 10.8922 109.726 11.3059V13.8884H110.682V11.1633C110.682 10.7441 110.6 10.3863 110.437 10.0901C110.273 9.79378 110.045 9.57019 109.752 9.41926ZM115.234 12.6055V10.0481H116.367V9.26834H115.234V8.11961H114.261V9.26834H113.712V10.0481H114.261V12.6055C114.261 13.0583 114.377 13.3853 114.608 13.5865C114.839 13.7878 115.172 13.8884 115.606 13.8884H116.367V13.0918H115.775C115.578 13.0918 115.437 13.0555 115.352 12.9828C115.273 12.9046 115.234 12.7788 115.234 12.6055ZM120.614 9.41926C120.337 9.26834 120.022 9.19287 119.667 9.19287C119.368 9.19287 119.091 9.24599 118.838 9.35218C118.589 9.45838 118.384 9.60931 118.22 9.80497V7.68359H117.256V13.8884H118.22V11.3059C118.22 10.8922 118.324 10.5764 118.533 10.3584C118.747 10.1348 119.035 10.023 119.396 10.023C119.757 10.023 120.041 10.1348 120.25 10.3584C120.459 10.5764 120.563 10.8922 120.563 11.3059V13.8884H121.519V11.1633C121.519 10.7441 121.437 10.3863 121.274 10.0901C121.116 9.79378 120.896 9.57019 120.614 9.41926ZM126.986 11.9347C127.009 11.795 127.02 11.6385 127.02 11.4652C127.02 11.018 126.924 10.6239 126.733 10.2829C126.541 9.93632 126.273 9.66801 125.929 9.47796C125.585 9.28791 125.193 9.19287 124.753 9.19287C124.297 9.19287 123.891 9.29069 123.535 9.48634C123.186 9.682 122.912 9.96148 122.715 10.3248C122.523 10.6826 122.427 11.099 122.427 11.5742C122.427 12.0493 122.526 12.4686 122.723 12.8319C122.926 13.1897 123.203 13.4692 123.552 13.6704C123.908 13.8661 124.308 13.9639 124.753 13.9639C125.3 13.9639 125.757 13.8297 126.124 13.5614C126.496 13.2875 126.752 12.9381 126.893 12.5133H125.853C125.639 12.9437 125.272 13.1589 124.753 13.1589C124.393 13.1589 124.088 13.0471 123.84 12.8235C123.592 12.5999 123.454 12.3037 123.425 11.9347H126.986ZM125.633 10.3164C125.881 10.5289 126.008 10.8112 126.014 11.1633H123.434C123.479 10.8056 123.62 10.5233 123.857 10.3164C124.094 10.104 124.378 9.99782 124.711 9.99782C125.078 9.99782 125.385 10.104 125.633 10.3164ZM66.2103 38.3487H59.7493L58.6392 41.4743H55.9971L61.5255 26.1546H64.4563L69.9847 41.4743H67.3204L66.2103 38.3487ZM65.4998 36.3017L62.9909 29.1921L60.4598 36.3017H65.4998ZM74.9195 31.1291C75.3488 30.5715 75.9335 30.1019 76.6735 29.7204C77.4136 29.3389 78.2499 29.1481 79.1824 29.1481C80.2482 29.1481 81.2177 29.4122 82.091 29.9405C82.9791 30.4541 83.6748 31.1805 84.178 32.1196C84.6813 33.0587 84.9329 34.1373 84.9329 35.3552C84.9329 36.5732 84.6813 37.6664 84.178 38.6349C83.6748 39.5887 82.9791 40.3371 82.091 40.88C81.2177 41.4083 80.2482 41.6724 79.1824 41.6724C78.2499 41.6724 77.421 41.489 76.6957 41.1221C75.9705 40.7406 75.3784 40.271 74.9195 39.7134V47.2412H72.3884V29.3462H74.9195V31.1291ZM82.3574 35.3552C82.3574 34.5188 82.1798 33.7998 81.8246 33.1981C81.4841 32.5818 81.0253 32.1196 80.448 31.8115C79.8855 31.4886 79.2787 31.3272 78.6274 31.3272C77.9909 31.3272 77.384 31.4886 76.8068 31.8115C76.2443 32.1343 75.7854 32.6039 75.4302 33.2202C75.0898 33.8365 74.9195 34.5628 74.9195 35.3993C74.9195 36.2357 75.0898 36.9694 75.4302 37.6004C75.7854 38.2167 76.2443 38.6862 76.8068 39.0091C77.384 39.3319 77.9909 39.4933 78.6274 39.4933C79.2787 39.4933 79.8855 39.3319 80.448 39.0091C81.0253 38.6716 81.4841 38.1873 81.8246 37.5563C82.1798 36.9254 82.3574 36.1917 82.3574 35.3552ZM89.9671 31.1291C90.3964 30.5715 90.981 30.1019 91.7211 29.7204C92.4612 29.3389 93.2975 29.1481 94.23 29.1481C95.2957 29.1481 96.2653 29.4122 97.1386 29.9405C98.0267 30.4541 98.7224 31.1805 99.2256 32.1196C99.7289 33.0587 99.9805 34.1373 99.9805 35.3552C99.9805 36.5732 99.7289 37.6664 99.2256 38.6349C98.7224 39.5887 98.0267 40.3371 97.1386 40.88C96.2653 41.4083 95.2957 41.6724 94.23 41.6724C93.2975 41.6724 92.4686 41.489 91.7433 41.1221C91.018 40.7406 90.426 40.271 89.9671 39.7134V47.2412H87.436V29.3462H89.9671V31.1291ZM97.405 35.3552C97.405 34.5188 97.2274 33.7998 96.8721 33.1981C96.5317 32.5818 96.0728 32.1196 95.4956 31.8115C94.9331 31.4886 94.3262 31.3272 93.675 31.3272C93.0385 31.3272 92.4316 31.4886 91.8543 31.8115C91.2919 32.1343 90.833 32.6039 90.4778 33.2202C90.1373 33.8365 89.9671 34.5628 89.9671 35.3993C89.9671 36.2357 90.1373 36.9694 90.4778 37.6004C90.833 38.2167 91.2919 38.6862 91.8543 39.0091C92.4316 39.3319 93.0385 39.4933 93.675 39.4933C94.3262 39.4933 94.9331 39.3319 95.4956 39.0091C96.0728 38.6716 96.5317 38.1873 96.8721 37.5563C97.2274 36.9254 97.405 36.1917 97.405 35.3552ZM113.335 41.6284C112.299 41.6284 111.367 41.4523 110.538 41.1001C109.709 40.7333 109.058 40.2197 108.584 39.5593C108.11 38.899 107.874 38.1286 107.874 37.2482H110.582C110.641 37.9085 110.901 38.4515 111.359 38.877C111.833 39.3026 112.492 39.5153 113.335 39.5153C114.209 39.5153 114.89 39.3099 115.378 38.899C115.867 38.4735 116.111 37.9305 116.111 37.2702C116.111 36.7566 115.955 36.3384 115.644 36.0156C115.348 35.6927 114.971 35.4433 114.512 35.2672C114.068 35.0911 113.446 34.9003 112.647 34.6949C111.641 34.4308 110.819 34.1666 110.183 33.9025C109.561 33.6237 109.028 33.1982 108.584 32.6259C108.14 32.0536 107.918 31.2905 107.918 30.3367C107.918 29.4563 108.14 28.6859 108.584 28.0255C109.028 27.3652 109.65 26.859 110.449 26.5068C111.248 26.1546 112.173 25.9785 113.224 25.9785C114.719 25.9785 115.941 26.3527 116.888 27.1011C117.85 27.8348 118.383 28.8473 118.486 30.1386H115.689C115.644 29.581 115.378 29.1041 114.89 28.7079C114.401 28.3117 113.757 28.1136 112.958 28.1136C112.233 28.1136 111.641 28.297 111.182 28.6639C110.723 29.0307 110.493 29.559 110.493 30.2487C110.493 30.7182 110.634 31.1071 110.915 31.4153C111.211 31.7087 111.581 31.9435 112.025 32.1196C112.469 32.2957 113.076 32.4865 113.846 32.6919C114.867 32.9707 115.696 33.2495 116.333 33.5283C116.984 33.8071 117.532 34.24 117.976 34.827C118.435 35.3993 118.664 36.1696 118.664 37.1381C118.664 37.9159 118.449 38.6496 118.02 39.3392C117.606 40.0289 116.991 40.5865 116.177 41.0121C115.378 41.423 114.431 41.6284 113.335 41.6284ZM124.603 31.3932V38.1066C124.603 38.5615 124.707 38.8917 124.914 39.0971C125.136 39.2879 125.506 39.3833 126.024 39.3833H127.579V41.4743H125.58C124.441 41.4743 123.567 41.2102 122.961 40.6819C122.354 40.1536 122.05 39.2952 122.05 38.1066V31.3932H120.607V29.3462H122.05V26.3307H124.603V29.3462H127.579V31.3932H124.603ZM135.218 41.6724C134.063 41.6724 133.02 41.4156 132.087 40.902C131.155 40.3738 130.422 39.6401 129.889 38.7009C129.356 37.7471 129.09 36.6465 129.09 35.3993C129.09 34.1666 129.364 33.0734 129.912 32.1196C130.459 31.1658 131.207 30.4321 132.154 29.9185C133.101 29.4049 134.16 29.1481 135.329 29.1481C136.498 29.1481 137.557 29.4049 138.504 29.9185C139.451 30.4321 140.199 31.1658 140.746 32.1196C141.294 33.0734 141.568 34.1666 141.568 35.3993C141.568 36.6319 141.287 37.7251 140.724 38.6789C140.162 39.6327 139.392 40.3738 138.415 40.902C137.453 41.4156 136.387 41.6724 135.218 41.6724ZM135.218 39.4933C135.869 39.4933 136.476 39.3392 137.039 39.0311C137.616 38.7229 138.082 38.2607 138.437 37.6444C138.793 37.0281 138.97 36.2797 138.97 35.3993C138.97 34.5188 138.8 33.7778 138.46 33.1761C138.119 32.5598 137.668 32.0976 137.105 31.7894C136.543 31.4813 135.936 31.3272 135.285 31.3272C134.633 31.3272 134.026 31.4813 133.464 31.7894C132.916 32.0976 132.48 32.5598 132.154 33.1761C131.828 33.7778 131.666 34.5188 131.666 35.3993C131.666 36.7052 131.999 37.7178 132.665 38.4368C133.346 39.1411 134.197 39.4933 135.218 39.4933ZM146.601 31.1071C146.971 30.4908 147.46 30.0139 148.067 29.6764C148.688 29.3242 149.421 29.1481 150.265 29.1481V31.7454H149.621C148.629 31.7454 147.874 31.9949 147.356 32.4938C146.853 32.9927 146.601 33.8585 146.601 35.0911V41.4743H144.07V29.3462H146.601V31.1071ZM163.804 35.1131C163.804 35.568 163.774 35.9789 163.715 36.3457H154.367C154.441 37.3142 154.804 38.0919 155.455 38.6789C156.107 39.2659 156.906 39.5593 157.853 39.5593C159.215 39.5593 160.177 38.9944 160.74 37.8645H163.471C163.1 38.9797 162.427 39.8969 161.45 40.6159C160.488 41.3202 159.289 41.6724 157.853 41.6724C156.684 41.6724 155.633 41.4156 154.701 40.902C153.783 40.3738 153.058 39.6401 152.525 38.7009C152.007 37.7471 151.748 36.6465 151.748 35.3993C151.748 34.152 151.999 33.0587 152.502 32.1196C153.021 31.1658 153.738 30.4321 154.656 29.9185C155.589 29.4049 156.654 29.1481 157.853 29.1481C159.008 29.1481 160.037 29.3976 160.939 29.8965C161.842 30.3954 162.545 31.0998 163.049 32.0095C163.552 32.9047 163.804 33.9392 163.804 35.1131ZM161.161 34.3207C161.147 33.3962 160.814 32.6552 160.162 32.0976C159.511 31.54 158.704 31.2612 157.742 31.2612C156.869 31.2612 156.121 31.54 155.5 32.0976C154.878 32.6405 154.508 33.3816 154.39 34.3207H161.161ZM40.9406 22.3658C38.581 23.786 37.4154 25.7145 37.4294 28.2693C37.4294 28.273 37.4292 28.2796 37.429 28.2891C37.4196 28.6266 37.3092 32.5884 41.7621 34.667C40.9054 37.229 37.9702 42.9236 34.5574 42.9723C33.6012 42.9723 32.8363 42.6798 32.0478 42.3782C31.209 42.0574 30.3434 41.7263 29.1923 41.7263C27.9463 41.7263 27.0086 42.0788 26.1302 42.4089C25.3847 42.6891 24.6818 42.9532 23.8695 42.9723C20.4847 43.0769 17.2405 36.8113 16.3416 34.2564C15.6675 32.3118 15.3304 30.4275 15.3304 28.6034C15.3304 22.4285 19.4946 19.3932 23.413 19.3305C24.4993 19.3305 25.7563 19.7807 26.8298 20.1652C27.63 20.4519 28.3283 20.702 28.7781 20.702C29.1417 20.702 29.7352 20.4843 30.4634 20.2173C31.7318 19.7521 33.4089 19.1371 34.9927 19.2609C37.6261 19.4628 39.6203 20.4931 40.9406 22.3658ZM35.1417 11.8116C35.1992 12.5666 35.3544 14.6033 33.4549 16.8382C32.0783 18.4324 30.4071 19.3653 28.5743 19.2261C28.4199 17.3047 29.1431 15.599 30.3722 14.2206C31.4886 12.9327 33.4478 11.8885 35.1402 11.791L35.1417 11.8116Z" fill="#202124"/>
</svg>
