<svg width="129" height="120" viewBox="0 0 129 120" fill="none" xmlns="http://www.w3.org/2000/svg">
<circle cx="74.7847" cy="2.79157" r="2.79157" fill="#1F212E"/>
<circle cx="74.7847" cy="13.1812" r="2.79157" fill="#1F212E"/>
<circle cx="74.7847" cy="23.5709" r="2.79157" fill="#1F212E"/>
<circle cx="74.7847" cy="33.9606" r="2.79157" fill="#1F212E"/>
<circle cx="74.7847" cy="44.3503" r="2.79157" fill="#1F212E"/>
<circle cx="74.7847" cy="54.74" r="2.79157" fill="#1F212E"/>
<circle cx="74.7847" cy="65.1296" r="2.79157" fill="#1F212E"/>
<circle cx="74.7847" cy="75.5194" r="2.79157" fill="#1F212E"/>
<circle cx="74.7847" cy="85.9091" r="2.79157" fill="#1F212E"/>
<circle cx="13.0763" cy="44.3503" r="2.79157" fill="#1F212E"/>
<circle cx="13.0763" cy="54.74" r="2.79157" fill="#1F212E"/>
<circle cx="13.0763" cy="65.1296" r="2.79157" fill="#1F212E"/>
<circle cx="13.0763" cy="75.5194" r="2.79157" fill="#1F212E"/>
<circle cx="13.0763" cy="85.9091" r="2.79157" fill="#1F212E"/>
<circle cx="13.0763" cy="96.2987" r="2.79157" fill="#1F212E"/>
<circle cx="13.0763" cy="106.688" r="2.79157" fill="#1F212E"/>
<circle cx="13.0763" cy="117.078" r="2.79157" fill="#1F212E"/>
<circle cx="105.639" cy="33.9606" r="2.79157" fill="#1F212E"/>
<circle cx="105.639" cy="44.3503" r="2.79157" fill="#1F212E"/>
<circle cx="105.639" cy="54.74" r="2.79157" fill="#1F212E"/>
<circle cx="105.639" cy="65.1296" r="2.79157" fill="#1F212E"/>
<circle cx="105.639" cy="75.5194" r="2.79157" fill="#1F212E"/>
<circle cx="105.639" cy="85.9091" r="2.79157" fill="#1F212E"/>
<circle cx="105.639" cy="96.2987" r="2.79157" fill="#1F212E"/>
<circle cx="105.639" cy="106.688" r="2.79157" fill="#1F212E"/>
<circle cx="105.639" cy="117.078" r="2.79157" fill="#1F212E"/>
<circle cx="43.9305" cy="13.1812" r="2.79157" fill="#1F212E"/>
<circle cx="43.9305" cy="23.5709" r="2.79157" fill="#1F212E"/>
<circle cx="43.9305" cy="33.9606" r="2.79157" fill="#1F212E"/>
<circle cx="43.9305" cy="44.3503" r="2.79157" fill="#1F212E"/>
<circle cx="43.9305" cy="54.74" r="2.79157" fill="#1F212E"/>
<circle cx="43.9305" cy="65.1296" r="2.79157" fill="#1F212E"/>
<circle cx="43.9305" cy="75.5194" r="2.79157" fill="#1F212E"/>
<circle cx="43.9305" cy="85.9091" r="2.79157" fill="#1F212E"/>
<circle cx="43.9305" cy="96.2987" r="2.79157" fill="#1F212E"/>
<circle cx="43.9305" cy="106.688" r="2.79157" fill="#1F212E"/>
<circle cx="43.9305" cy="117.078" r="2.79157" fill="#1F212E"/>
<circle cx="85.0695" cy="13.1812" r="2.79157" fill="#1F212E"/>
<circle cx="85.0695" cy="23.5709" r="2.79157" fill="#1F212E"/>
<circle cx="85.0695" cy="33.9606" r="2.79157" fill="#1F212E"/>
<circle cx="85.0695" cy="44.3503" r="2.79157" fill="#1F212E"/>
<circle cx="85.0695" cy="54.74" r="2.79157" fill="#1F212E"/>
<circle cx="85.0695" cy="65.1296" r="2.79157" fill="#1F212E"/>
<circle cx="85.0695" cy="75.5194" r="2.79157" fill="#1F212E"/>
<circle cx="85.0695" cy="85.9091" r="2.79157" fill="#1F212E"/>
<circle cx="85.0695" cy="96.2987" r="2.79157" fill="#1F212E"/>
<circle cx="85.0695" cy="106.688" r="2.79157" fill="#1F212E"/>
<circle cx="85.0695" cy="117.078" r="2.79157" fill="#1F212E"/>
<circle cx="23.361" cy="33.9606" r="2.79157" fill="#1F212E"/>
<circle cx="23.361" cy="44.3503" r="2.79157" fill="#1F212E"/>
<circle cx="23.361" cy="54.74" r="2.79157" fill="#1F212E"/>
<circle cx="23.361" cy="65.1296" r="2.79157" fill="#1F212E"/>
<circle cx="23.361" cy="75.5194" r="2.79157" fill="#1F212E"/>
<circle cx="23.361" cy="85.9091" r="2.79157" fill="#1F212E"/>
<circle cx="23.361" cy="96.2987" r="2.79157" fill="#1F212E"/>
<circle cx="23.361" cy="106.688" r="2.79157" fill="#1F212E"/>
<circle cx="23.361" cy="117.078" r="2.79157" fill="#1F212E"/>
<circle cx="2.79157" cy="54.74" r="2.79157" fill="#1F212E"/>
<circle cx="2.79157" cy="65.1296" r="2.79157" fill="#1F212E"/>
<circle cx="115.924" cy="44.3503" r="2.79157" fill="#1F212E"/>
<circle cx="115.924" cy="54.74" r="2.79157" fill="#1F212E"/>
<circle cx="115.924" cy="65.1296" r="2.79157" fill="#1F212E"/>
<circle cx="115.924" cy="75.5194" r="2.79157" fill="#1F212E"/>
<circle cx="115.924" cy="85.9091" r="2.79157" fill="#1F212E"/>
<circle cx="115.924" cy="96.2987" r="2.79157" fill="#1F212E"/>
<circle cx="115.924" cy="106.688" r="2.79157" fill="#1F212E"/>
<circle cx="115.924" cy="117.078" r="2.79157" fill="#1F212E"/>
<circle cx="54.2153" cy="2.79157" r="2.79157" fill="#1F212E"/>
<circle cx="54.2153" cy="13.1812" r="2.79157" fill="#1F212E"/>
<circle cx="54.2153" cy="23.5709" r="2.79157" fill="#1F212E"/>
<circle cx="54.2153" cy="33.9606" r="2.79157" fill="#1F212E"/>
<circle cx="54.2153" cy="44.3503" r="2.79157" fill="#1F212E"/>
<circle cx="54.2153" cy="54.74" r="2.79157" fill="#1F212E"/>
<circle cx="54.2153" cy="65.1296" r="2.79157" fill="#1F212E"/>
<circle cx="54.2153" cy="75.5194" r="2.79157" fill="#1F212E"/>
<circle cx="54.2153" cy="85.9091" r="2.79157" fill="#1F212E"/>
<circle cx="95.3542" cy="23.5709" r="2.79157" fill="#1F212E"/>
<circle cx="95.3542" cy="33.9606" r="2.79157" fill="#1F212E"/>
<circle cx="95.3542" cy="44.3503" r="2.79157" fill="#1F212E"/>
<circle cx="95.3542" cy="54.74" r="2.79157" fill="#1F212E"/>
<circle cx="95.3542" cy="65.1296" r="2.79157" fill="#1F212E"/>
<circle cx="95.3542" cy="75.5194" r="2.79157" fill="#1F212E"/>
<circle cx="95.3542" cy="85.9091" r="2.79157" fill="#1F212E"/>
<circle cx="95.3542" cy="96.2987" r="2.79157" fill="#1F212E"/>
<circle cx="95.3542" cy="106.688" r="2.79157" fill="#1F212E"/>
<circle cx="95.3542" cy="117.078" r="2.79157" fill="#1F212E"/>
<circle cx="33.6458" cy="23.5709" r="2.79157" fill="#1F212E"/>
<circle cx="33.6458" cy="33.9606" r="2.79157" fill="#1F212E"/>
<circle cx="33.6458" cy="44.3503" r="2.79157" fill="#1F212E"/>
<circle cx="33.6458" cy="54.74" r="2.79157" fill="#1F212E"/>
<circle cx="33.6458" cy="65.1296" r="2.79157" fill="#1F212E"/>
<circle cx="33.6458" cy="75.5194" r="2.79157" fill="#1F212E"/>
<circle cx="33.6458" cy="85.9091" r="2.79157" fill="#1F212E"/>
<circle cx="33.6458" cy="96.2987" r="2.79157" fill="#1F212E"/>
<circle cx="33.6458" cy="106.688" r="2.79157" fill="#1F212E"/>
<circle cx="33.6458" cy="117.078" r="2.79157" fill="#1F212E"/>
<circle cx="126.208" cy="54.74" r="2.79157" fill="#1F212E"/>
<circle cx="126.208" cy="65.1296" r="2.79157" fill="#1F212E"/>
<circle cx="64.5" cy="2.79157" r="2.79157" fill="#1F212E"/>
<circle cx="64.5" cy="13.1812" r="2.79157" fill="#1F212E"/>
<circle cx="64.5" cy="23.5709" r="2.79157" fill="#1F212E"/>
<circle cx="64.5" cy="33.9606" r="2.79157" fill="#1F212E"/>
<circle cx="64.5" cy="44.3503" r="2.79157" fill="#1F212E"/>
<circle cx="64.5" cy="54.74" r="2.79157" fill="#1F212E"/>
<circle cx="64.5" cy="65.1296" r="2.79157" fill="#1F212E"/>
<circle cx="64.5" cy="75.5194" r="2.79157" fill="#1F212E"/>
<circle cx="64.5" cy="85.9091" r="2.79157" fill="#1F212E"/>
</svg>
