<svg width="60" height="60" viewBox="0 0 60 60" fill="none" xmlns="http://www.w3.org/2000/svg">
<ellipse cx="30.3599" cy="30" rx="29.481" ry="30" fill="#1F212E"/>
<g clip-path="url(#clip0)">
<path d="M20.2079 25.7541C18.0974 25.7541 16.3805 27.5013 16.3805 29.6489C16.3805 31.7966 18.0974 33.5438 20.2079 33.5438C22.3184 33.5438 24.0354 31.7966 24.0354 29.6489C24.0354 27.5013 22.3184 25.7541 20.2079 25.7541ZM20.2079 31.4263C19.2449 31.4263 18.4613 30.629 18.4613 29.6489C18.4613 28.6689 19.2449 27.8716 20.2079 27.8716C21.1709 27.8716 21.9545 28.6689 21.9545 29.6489C21.9545 30.629 21.1709 31.4263 20.2079 31.4263Z" fill="white"/>
<path d="M26.9857 34.9532C24.8753 34.9532 23.1583 36.7004 23.1583 38.8481C23.1583 40.9957 24.8753 42.7429 26.9857 42.7429C29.0962 42.7429 30.8131 40.9957 30.8131 38.8481C30.8131 36.7004 29.0962 34.9532 26.9857 34.9532ZM26.9857 40.6254C26.0227 40.6254 25.2392 39.8281 25.2392 38.848C25.2392 37.868 26.0227 37.0707 26.9857 37.0707C27.9488 37.0707 28.7323 37.868 28.7323 38.848C28.7323 39.8281 27.9488 40.6254 26.9857 40.6254Z" fill="white"/>
<path d="M47.0898 34.9195C47.0829 34.9126 47.076 34.9058 47.069 34.899L43.4662 31.4394C45.483 29.8876 46.3941 27.1408 45.5656 24.5998C41.6596 12.6081 26.6502 8.80363 17.7068 17.767C11.0087 24.4801 11.0712 35.3043 17.4263 41.9699C23.1355 47.9579 32.1316 48.7989 38.7713 44.3761C41.8806 42.3057 40.4511 37.3772 36.7304 37.3772C33.9516 37.3772 33.4846 33.4235 36.1095 32.7465L42.4568 39.5917C42.4635 39.5988 42.4701 39.6059 42.477 39.6129C43.7494 40.9106 45.8163 40.9141 47.092 39.6158C48.3676 38.3178 48.3676 36.2169 47.0898 34.9195ZM33.6464 38.2446C34.4823 39.0507 35.5776 39.4946 36.7305 39.4946C38.3923 39.4946 39.0188 41.6809 37.6318 42.6045C31.8206 46.4755 23.928 45.7483 18.9198 40.4954C13.3026 34.6039 13.3357 25.149 19.19 19.2891C27.0349 11.4367 40.1561 14.7219 43.5905 25.2663C44.1724 27.051 43.4452 28.9902 41.92 29.9547L36.1407 24.4051C36.4906 22.6956 36.006 20.8934 34.7363 19.6014C33.1428 17.9797 28.1225 17.1714 25.9468 16.9309C25.2869 16.8578 24.7281 17.4255 24.7999 18.098C25.0382 20.3206 25.8279 25.4177 27.4243 27.0423C28.6948 28.335 30.4667 28.8272 32.1453 28.4712L34.5797 31.0965C31.9875 32.5285 31.4611 36.1372 33.6464 38.2446ZM28.8956 25.545C28.1116 24.7471 27.411 21.7126 27.0412 19.2116C29.499 19.5879 32.481 20.3008 33.265 21.0987C34.4723 22.3272 34.4725 24.3161 33.265 25.545C32.0604 26.7709 30.1055 26.7762 28.8956 25.545ZM45.6207 38.1186C45.1622 38.5852 44.4201 38.5873 43.9589 38.1261C43.4263 37.5517 34.6444 28.0809 34.155 27.5532C34.5656 27.243 34.9335 26.8686 35.2388 26.4504L45.6288 36.4276C46.0824 36.8974 46.0799 37.6512 45.6207 38.1186Z" fill="white"/>
</g>
<defs>
<clipPath id="clip0">
<rect width="35.3772" height="36" fill="white" transform="translate(12.6713 12)"/>
</clipPath>
</defs>
</svg>
