<svg width="60" height="60" viewBox="0 0 60 60" fill="none" xmlns="http://www.w3.org/2000/svg">
<ellipse cx="30.3599" cy="30" rx="29.481" ry="30" fill="#1F212E"/>
<g clip-path="url(#clip0)">
<path d="M32.7269 34.7868C32.7269 38.0983 35.365 40.7828 38.6192 40.7828C41.8731 40.7828 44.5112 38.0983 44.5112 34.7868C44.5112 31.4756 41.8731 28.7911 38.6192 28.7911C35.3664 28.7947 32.7305 31.477 32.7269 34.7868ZM38.6192 29.9901C41.2225 29.9901 43.3329 32.1376 43.3329 34.7868C43.3329 37.436 41.2225 39.5835 38.6192 39.5835C36.0158 39.5835 33.9055 37.436 33.9055 34.7868C33.9083 32.1391 36.017 29.993 38.6192 29.9901Z" fill="white"/>
<path d="M35.2523 46.7788H41.9865V47.9778H35.2523V46.7788Z" fill="white"/>
<path d="M32.7269 44.3801H44.5114V45.5794H32.7269V44.3801Z" fill="white"/>
<path d="M19.7641 44.3801H20.9427V45.5794H19.7641V44.3801Z" fill="white"/>
<path d="M16.229 45.5795H17.4073V46.7787H16.229V45.5795Z" fill="white"/>
<path d="M19.8235 41.0063C22.9001 35.5536 24.8305 29.51 25.4923 23.2586L30.9721 28.8018C31.0817 28.9128 31.2298 28.9754 31.3845 28.9762C31.4164 28.9764 31.4485 28.9737 31.4798 28.9684C31.6667 28.9375 31.8274 28.817 31.9117 28.6448C33.0225 26.3887 32.5875 23.6621 30.8323 21.8796L30.3505 21.389H34.4949C34.8203 21.3893 35.0844 21.121 35.0844 20.7899C35.0846 20.725 35.0742 20.6607 35.0542 20.5995C34.2717 18.2048 32.0696 16.5899 29.5896 16.5923H28.8237L31.7663 13.5806C31.9959 13.3459 31.9949 12.9664 31.7644 12.7327C31.7197 12.6875 31.6683 12.6498 31.612 12.6212C29.394 11.4897 26.7131 11.9321 24.9603 13.7192L24.3976 14.2917C24.2141 14.4797 24.0437 14.6799 23.8868 14.8914C23.7318 14.6799 23.5626 14.4797 23.3805 14.2917L22.8178 13.7192C21.0664 11.9333 18.387 11.4909 16.1704 12.6212C15.8792 12.7693 15.7611 13.1294 15.9065 13.4255C15.9346 13.4828 15.9717 13.5351 16.0161 13.5806L18.962 16.5923H18.1885C15.7085 16.5899 13.5062 18.2048 12.7239 20.5995C12.6207 20.9135 12.7874 21.2531 13.0962 21.3581C13.1563 21.3786 13.2195 21.389 13.2832 21.389H17.4236L16.9418 21.8796C15.1865 23.6621 14.7515 26.3887 15.8621 28.6448C15.9467 28.817 16.1074 28.9375 16.294 28.9684C16.3256 28.9737 16.3575 28.9764 16.3896 28.9762C16.5453 28.9762 16.6945 28.9135 16.8048 28.8018L21.9077 23.6398C21.2758 29.3854 19.1493 34.8555 15.7473 39.4858C14.9552 39.2742 14.1523 39.1075 13.3422 38.987L12.974 38.9493L12.8561 40.143L13.1996 40.1771C13.7888 40.263 14.3743 40.3842 14.9567 40.5213C14.8388 40.6718 14.7209 40.8247 14.5989 40.973L15.5027 41.7422C20.0307 36.2638 22.7301 29.4626 23.211 22.3208L23.8892 21.635L24.3969 22.1488C23.7775 29.7865 21.2012 37.1257 16.9251 43.4342L17.8902 44.1214C18.3535 43.4485 18.7954 42.7501 19.2237 42.0385C21.9799 43.38 24.4136 45.3202 26.3532 47.7224L27.2646 46.9627C26.1177 45.5437 24.8036 44.2736 23.3517 43.1812H48.047V41.9819H21.606C21.0284 41.627 20.4322 41.3056 19.8235 41.0063ZM31.1682 27.3081L24.9427 21.0095C26.5351 20.5257 28.2599 20.9647 29.4408 22.1546L30.0034 22.7274C31.1822 23.9248 31.6282 25.6792 31.1682 27.3081ZM33.5959 20.19H28.7172C27.581 19.6397 26.299 19.4839 25.0675 19.7468C25.9249 18.52 27.3126 17.7914 28.7921 17.7916H29.5875C31.2531 17.789 32.7884 18.7077 33.5959 20.19ZM25.2289 15.1395L25.7918 14.567C26.9694 13.3672 28.6942 12.9132 30.2956 13.3815L26.8027 16.9569C25.6691 17.3814 24.6959 18.1588 24.0211 19.1784C23.747 17.7116 24.1991 16.2012 25.2308 15.1395H25.2289ZM21.983 14.567L22.5457 15.1395C22.8081 15.4122 23.0358 15.7174 23.2234 16.0478C22.9564 16.6794 22.804 17.3545 22.7731 18.041C22.2443 17.5708 21.635 17.2036 20.9761 16.9569L17.4825 13.3815C19.0835 12.9134 20.8078 13.3675 21.9847 14.567H21.983ZM18.1866 17.7916H18.9822C20.4626 17.7902 21.8523 18.5185 22.7106 19.7461C21.4798 19.4841 20.1983 19.6399 19.0628 20.19H14.1822C14.9895 18.7084 16.5236 17.7899 18.1885 17.7916H18.1866ZM16.6099 27.3081C16.15 25.6792 16.5961 23.9248 17.7749 22.7274L18.3376 22.1546C19.1852 21.2942 20.3348 20.8126 21.5323 20.8165C21.9742 20.8167 22.4137 20.8808 22.838 21.0071L16.6099 27.3081Z" fill="white"/>
</g>
<defs>
<clipPath id="clip0">
<rect width="35.3772" height="36" fill="white" transform="translate(12.6713 12)"/>
</clipPath>
</defs>
</svg>
