<svg width="59" height="60" viewBox="0 0 59 60" fill="none" xmlns="http://www.w3.org/2000/svg">
<ellipse cx="29.481" cy="30" rx="29.481" ry="30" fill="#1F212E"/>
<g clip-path="url(#clip0)">
<path d="M43.0953 37.4055C42.9013 37.3237 42.6779 37.3689 42.5294 37.52L36.8548 43.2945C36.7063 43.4457 36.6619 43.6729 36.7423 43.8704C36.8226 44.0679 37.0121 44.1965 37.2221 44.1965H42.8966C43.1835 44.1965 43.4159 43.96 43.4159 43.6681V37.8936C43.4158 37.6799 43.2893 37.4873 43.0953 37.4055ZM38.4755 43.1398L42.3772 39.1693V43.1398H38.4755Z" fill="white"/>
<path d="M46.8491 28.936C46.6551 28.8542 46.4317 28.8994 46.2832 29.0505L44.728 30.633V19.873C44.728 19.5811 44.4955 19.3446 44.2088 19.3446H40.2191L41.6674 17.8708C41.6676 17.8706 41.6678 17.8704 41.668 17.8701L43.0634 16.4501C43.3624 16.1459 43.5271 15.7411 43.5271 15.3108C43.5271 14.8805 43.3624 14.4759 43.0634 14.1716L41.4498 12.5295C41.1508 12.2252 40.7531 12.0577 40.3302 12.0577C39.9073 12.0577 39.5097 12.2252 39.2106 12.5295L37.8145 13.9502L36.1274 15.667L32.5135 19.3445H16.3956V14.1171C16.3956 13.8253 16.1631 13.5887 15.8763 13.5887C13.6245 13.5889 11.7924 15.4531 11.7924 17.7447V40.1875C11.7924 40.2265 11.7968 40.2645 11.8047 40.3011C11.8764 41.2734 12.2898 42.1769 12.9807 42.8627C13.7192 43.5956 14.6941 43.9993 15.7258 43.9993H31.5929L28.6046 47.0403C28.4561 47.1914 28.4117 47.4186 28.492 47.6161C28.5724 47.8135 28.7618 47.9423 28.9718 47.9423H46.6504C46.9371 47.9423 47.1696 47.7058 47.1696 47.4139V29.4242C47.1696 29.2105 47.043 29.0178 46.8491 28.936ZM39.9451 13.2768C40.1574 13.0607 40.5032 13.0607 40.7155 13.2768L42.3292 14.919C42.5416 15.1351 42.5416 15.4868 42.3292 15.703L41.3003 16.7501L38.9161 14.3239L39.9451 13.2768ZM38.1817 15.0712L40.5659 17.4973L39.6131 18.4668L37.2291 16.0407L38.1817 15.0712ZM46.1312 35.3615H45.1732C44.8864 35.3615 44.654 35.5981 44.654 35.8899C44.654 36.1818 44.8864 36.4183 45.1732 36.4183H46.1312V38.0106H45.1732C44.8864 38.0106 44.654 38.2472 44.654 38.539C44.654 38.8309 44.8864 39.0674 45.1732 39.0674H46.1312V40.6597H45.1732C44.8864 40.6597 44.654 40.8962 44.654 41.1881C44.654 41.4799 44.8864 41.7165 45.1732 41.7165H46.1312V43.3088H45.1732C44.8864 43.3088 44.654 43.5454 44.654 43.8372C44.654 44.129 44.8864 44.3656 45.1732 44.3656H46.1312V46.8857H30.2253L35.4703 41.5485C35.6731 41.342 35.6731 41.0076 35.4703 40.8012C35.447 40.7775 35.422 40.757 35.3958 40.7387C35.1936 40.5978 34.9154 40.6185 34.7358 40.8012L32.6314 42.9426H15.7259C14.1511 42.9426 12.8833 41.6915 12.8334 40.0918C12.8364 39.9914 12.844 39.8918 12.8563 39.7934C12.8564 39.7928 12.8565 39.7923 12.8565 39.7917C12.8623 39.745 12.8693 39.6984 12.8773 39.6522C12.8782 39.6469 12.8791 39.6416 12.88 39.6363C12.8873 39.5951 12.8954 39.554 12.9044 39.5131C12.9068 39.5017 12.9095 39.4903 12.9121 39.479C12.92 39.4444 12.9285 39.41 12.9376 39.3758C12.9426 39.3572 12.9477 39.3388 12.9531 39.3203C12.9607 39.2935 12.9685 39.2667 12.9769 39.2402C12.9853 39.2137 12.9942 39.1875 13.0032 39.1612C13.0095 39.1429 13.0157 39.1245 13.0225 39.1063C13.0351 39.0717 13.0486 39.0375 13.0624 39.0035C13.0663 38.9937 13.0702 38.9838 13.0743 38.9741C13.092 38.9319 13.1105 38.8902 13.1299 38.849C13.1308 38.8472 13.1315 38.8455 13.1324 38.8437C13.5385 37.9884 14.3196 37.3507 15.2571 37.1529C15.2597 37.1523 15.2623 37.1517 15.265 37.1511C15.3079 37.1422 15.3513 37.1345 15.395 37.1274C15.4022 37.1262 15.4095 37.1248 15.4169 37.1236C15.4563 37.1175 15.4962 37.1127 15.5361 37.1082C15.5473 37.1069 15.5584 37.1051 15.5697 37.104C15.6082 37.1001 15.647 37.0975 15.6858 37.095C15.6981 37.0942 15.7104 37.0929 15.7227 37.0923C15.7736 37.0897 15.8248 37.0883 15.8763 37.0883C16.1631 37.0883 16.3956 36.8518 16.3956 36.5599V32.7287C16.3956 32.4368 16.1631 32.2003 15.8763 32.2003C15.5896 32.2003 15.3571 32.4368 15.3571 32.7287V36.0648C14.4802 36.1777 13.6663 36.5756 13.0246 37.2134C12.9571 37.2804 12.8931 37.3502 12.8308 37.4211V17.7447C12.8308 16.216 13.9243 14.9422 15.357 14.6906V19.873V30.6152V30.6152C15.357 30.907 15.5895 31.1436 15.8762 31.1436C16.163 31.1436 16.3955 30.907 16.3955 30.6152V30.6152V20.4014H31.4751L28.6045 23.3225C28.4017 23.5289 28.4017 23.8634 28.6045 24.0697C28.8073 24.276 29.1361 24.276 29.3388 24.0697L33.0958 20.2466C33.0959 20.2465 33.096 20.2464 33.0961 20.2463L36.4946 16.788L38.8786 19.2141L38.5989 19.4987C38.5987 19.4989 38.5985 19.4991 38.5982 19.4994L28.1282 30.1538L25.7441 27.7278L27.8079 25.6277C28.0107 25.4212 28.0107 25.0867 27.8079 24.8804C27.6051 24.6741 27.2764 24.6741 27.0736 24.8804L24.6426 27.3541C24.6296 27.3673 24.6175 27.3813 24.6061 27.3957C24.6023 27.4005 24.5989 27.4056 24.5953 27.4106C24.588 27.4205 24.5808 27.4305 24.5741 27.4409C24.5703 27.4469 24.5668 27.4531 24.5632 27.4594C24.5575 27.4692 24.552 27.4792 24.5469 27.4894C24.5436 27.496 24.5406 27.5027 24.5376 27.5096C24.533 27.5199 24.5287 27.5305 24.5247 27.541C24.5234 27.5447 24.5216 27.5483 24.5202 27.552L23.5086 30.4682L22.8189 32.4566C22.8098 32.483 22.8032 32.5099 22.7983 32.5369H21.0714C20.7847 32.5369 20.5522 32.7735 20.5522 33.0653C20.5522 33.3572 20.7847 33.5937 21.0714 33.5937H35.4513C35.7381 33.5937 35.9706 33.3572 35.9706 33.0653C35.9706 32.7735 35.7381 32.5369 35.4513 32.5369H25.1344L28.301 31.3994C28.3037 31.3984 28.3062 31.3971 28.3088 31.3961C28.3211 31.3915 28.3332 31.3863 28.3451 31.3807C28.3499 31.3785 28.3547 31.3764 28.3593 31.374C28.3717 31.3677 28.384 31.3607 28.396 31.3533C28.3999 31.3509 28.4039 31.3487 28.4077 31.3463C28.4202 31.3381 28.4323 31.3292 28.4443 31.3198C28.4473 31.3174 28.4504 31.3154 28.4533 31.313C28.4677 31.3012 28.4819 31.2885 28.4953 31.2748L39.1806 20.4015H43.6895V31.6899L36.2619 39.2483C36.0591 39.4547 36.0591 39.7892 36.2619 39.9956C36.2745 40.0084 36.2877 40.0205 36.3013 40.0318C36.3966 40.1108 36.5129 40.1503 36.6291 40.1503C36.7453 40.1503 36.8616 40.1108 36.9568 40.0318C36.9704 40.0206 36.9836 40.0084 36.9962 39.9956C36.9965 39.9953 36.9962 39.9956 36.9965 39.9953L46.1312 30.6997V35.3615ZM27.1785 30.6818L25.6911 31.2161L24.7002 30.2077L25.2252 28.6941L27.1785 30.6818Z" fill="white"/>
</g>
<defs>
<clipPath id="clip0">
<rect width="35.3772" height="36" fill="white" transform="translate(11.7924 12)"/>
</clipPath>
</defs>
</svg>
