<svg width="59" height="60" viewBox="0 0 59 60" fill="none" xmlns="http://www.w3.org/2000/svg">
<ellipse cx="29.481" cy="30" rx="29.481" ry="30" fill="#1F212E"/>
<g clip-path="url(#clip0)">
<path d="M44.4709 32.6662H43.686V31.7884C43.686 31.1445 43.4873 30.5475 43.15 30.0565C43.7691 28.5471 44.013 27.1237 43.9364 25.4928C43.8299 23.2283 42.9846 21.0985 41.5561 19.4956C40.0894 17.8496 38.1683 16.9432 36.1471 16.9432C33.0624 16.9432 30.537 18.8879 29.4921 19.8329C28.4771 18.8789 26.0223 16.9432 22.8148 16.9432C20.7937 16.9432 18.8727 17.8496 17.4058 19.4956C15.9773 21.0986 15.1319 23.2284 15.0255 25.4929C14.949 27.1239 15.1928 28.5474 15.8116 30.0569C15.4745 30.5478 15.2759 31.1447 15.2759 31.7884V32.6662H14.4911C13.003 32.6662 11.7924 33.9022 11.7924 35.4213C11.7924 36.9404 13.003 38.1764 14.4911 38.1764H15.2759V39.0542C15.2759 40.7217 16.6046 42.0784 18.2379 42.0784C18.9564 42.0784 19.6158 41.8157 20.1292 41.3797C20.6153 42.3728 21.6206 43.0568 22.78 43.0568C24.4133 43.0568 25.742 41.7002 25.742 40.0327V39.8669C27.6544 41.2545 29.0906 42.2403 29.1074 42.2517C29.2241 42.3318 29.3587 42.3718 29.4934 42.3718C29.6281 42.3718 29.7627 42.3318 29.8794 42.2518C29.896 42.2404 31.32 41.2634 33.2197 39.8845V40.0327C33.2197 41.7003 34.5484 43.0569 36.1817 43.0569C37.3411 43.0569 38.3464 42.3729 38.8326 41.3797C39.346 41.8157 40.0054 42.0784 40.7238 42.0784C42.3571 42.0784 43.6858 40.7218 43.6858 39.0543V38.1764H44.4707C45.9587 38.1764 47.1693 36.9405 47.1693 35.4214C47.1696 33.9022 45.9589 32.6662 44.4709 32.6662ZM16.4059 25.56C16.5928 21.5842 19.4678 18.3495 22.8148 18.3495C26.3484 18.3495 28.9394 21.2523 28.9643 21.2808C29.0929 21.4282 29.2767 21.5136 29.4703 21.5167C29.665 21.5207 29.8504 21.4398 29.9835 21.2967C30.0109 21.2673 32.7646 18.3495 36.1471 18.3495C39.494 18.3495 42.3691 21.5842 42.556 25.56C42.6149 26.8143 42.4542 27.9287 42.0412 29.0809C41.6441 28.8787 41.197 28.7643 40.724 28.7643C40.0055 28.7643 39.3462 29.027 38.8328 29.463C38.3466 28.4699 37.3413 27.7859 36.1819 27.7859C34.5486 27.7859 33.2199 29.1425 33.2199 30.81V32.6662H25.7421V30.81C25.7421 29.1425 24.4134 27.7859 22.7801 27.7859C21.6207 27.7859 20.6154 28.4699 20.1292 29.463C19.6158 29.027 18.9564 28.7643 18.238 28.7643C17.7648 28.7643 17.3176 28.8788 16.9204 29.0811C16.5076 27.9287 16.347 26.8143 16.4059 25.56ZM25.7421 34.0725H33.2199V36.77H25.7421V34.0725ZM14.4911 36.7701C13.765 36.7701 13.1743 36.165 13.1743 35.4213C13.1743 34.6776 13.765 34.0725 14.4911 34.0725H15.2759V36.77H14.4911V36.7701ZM18.2379 40.6721C17.3667 40.6721 16.6579 39.9463 16.6579 39.0542V31.7884C16.6579 30.8963 17.3667 30.1705 18.2379 30.1705C19.1092 30.1705 19.818 30.8963 19.818 31.7884V39.0542C19.818 39.9463 19.1092 40.6721 18.2379 40.6721ZM24.3602 40.0326C24.3602 40.9247 23.6513 41.6505 22.7801 41.6505C21.9089 41.6505 21.2 40.9247 21.2 40.0326V30.8101C21.2 29.9179 21.9089 29.1922 22.7801 29.1922C23.6513 29.1922 24.3602 29.9179 24.3602 30.8101V40.0326ZM29.4935 40.8183C28.8436 40.3665 27.4399 39.3818 25.7967 38.1763H33.1889C31.5472 39.3818 30.1435 40.3665 29.4935 40.8183ZM37.762 40.0326C37.762 40.9247 37.0531 41.6505 36.1819 41.6505C35.3107 41.6505 34.6018 40.9247 34.6018 40.0326V30.8101C34.6018 29.9179 35.3107 29.1922 36.1819 29.1922C37.0531 29.1922 37.762 29.9179 37.762 30.8101V40.0326ZM42.3041 39.0542C42.3041 39.9463 41.5952 40.6721 40.724 40.6721C39.8528 40.6721 39.1439 39.9463 39.1439 39.0542V31.7884C39.1439 30.8963 39.8528 30.1705 40.724 30.1705C41.5952 30.1705 42.3041 30.8963 42.3041 31.7884V39.0542ZM44.4709 36.7701H43.686V34.0725H44.4709C45.1969 34.0725 45.7876 34.6775 45.7876 35.4213C45.7876 36.165 45.1969 36.7701 44.4709 36.7701Z" fill="white"/>
</g>
<defs>
<clipPath id="clip0">
<rect width="35.3772" height="36" fill="white" transform="translate(11.7924 12)"/>
</clipPath>
</defs>
</svg>
