<svg width="74" height="64" viewBox="0 0 74 64" fill="none" xmlns="http://www.w3.org/2000/svg">
<rect width="20.6251" height="4.00001" rx="2.00001" transform="matrix(1 0 0 -1 0 41.499)" fill="#202124"/>
<rect width="14.75" height="4.00001" rx="2.00001" transform="matrix(1 0 0 -1 4.87555 55.251)" fill="#202124"/>
<rect width="12.375" height="4.00001" rx="2.00001" transform="matrix(1 0 0 -1 9.49988 27.875)" fill="#202124"/>
<rect width="4.00001" height="4.00001" rx="2.00001" transform="matrix(1 0 0 -1 2.87531 27.875)" fill="#202124"/>
<path d="M73.339 52.775L70.4812 16.7613C70.3038 14.4409 68.3407 12.624 66.0141 12.624H60.3686V20.9887C60.3686 22.0246 59.5301 22.8631 58.4942 22.8631C57.4596 22.8631 56.6198 22.0246 56.6198 20.9887V12.624H39.3759V20.9887C39.3759 22.0246 38.5361 22.8631 37.5015 22.8631C36.4656 22.8631 35.6271 22.0246 35.6271 20.9887V12.624H29.9816C27.655 12.624 25.6918 14.4409 25.5145 16.7563L22.6554 52.78C22.4343 55.6653 23.4352 58.5368 25.4007 60.6585C27.3663 62.7802 30.1528 63.9986 33.0456 63.9986H62.9502C65.843 63.9986 68.6295 62.7802 70.5951 60.6584C72.5606 58.5367 73.5615 55.6652 73.339 52.775ZM56.4424 34.4351L46.7483 44.1292C46.3821 44.4954 45.9023 44.679 45.4225 44.679C44.9426 44.679 44.4629 44.4954 44.0968 44.1292L39.5534 39.5859C38.8211 38.8536 38.8211 37.6677 39.5534 36.9355C40.2856 36.2032 41.4728 36.2032 42.2038 36.9355L45.4226 40.1531L53.7922 31.7836C54.5232 31.0526 55.7103 31.0526 56.4426 31.7836C57.1747 32.5158 57.1747 33.7028 56.4424 34.4351Z" fill="#202124"/>
<path d="M34.6251 12.624H38.3751V20.999C38.3751 22.0346 37.5357 22.8741 36.5001 22.8741C35.4646 22.8741 34.6251 22.0346 34.6251 20.999V12.624Z" fill="white"/>
<path d="M55.6255 12.624H59.3755V20.999C59.3755 22.0346 58.5361 22.8741 57.5005 22.8741C56.465 22.8741 55.6255 22.0346 55.6255 20.999V12.624Z" fill="white"/>
<path d="M47.9978 0C41.1764 0 35.6271 5.55052 35.6271 12.3719V12.6255H39.3759V12.3719C39.3759 7.61727 43.2433 3.74864 47.9979 3.74864C52.7526 3.74864 56.6199 7.61727 56.6199 12.3719V12.6255H60.3686V12.3719C60.3685 5.55052 54.8192 0 47.9978 0Z" fill="#202124"/>
<path d="M35.6252 12.624H39.3753V20.999C39.3753 22.0346 38.5358 22.8741 37.5002 22.8741C36.4647 22.8741 35.6252 22.0346 35.6252 20.999V12.624Z" fill="#202124"/>
<path d="M56.6257 12.624H60.3757V20.999C60.3757 22.0346 59.5362 22.8741 58.5007 22.8741C57.4652 22.8741 56.6257 22.0346 56.6257 20.999V12.624Z" fill="#202124"/>
</svg>
