<svg width="366" height="32" viewBox="0 0 366 32" fill="none" xmlns="http://www.w3.org/2000/svg">
<g clip-path="url(#clip0)">
<path d="M42.7533 31.4592H34.7086L39.7355 0.553711H47.7802L42.7533 31.4592Z" fill="#0066B3"/>
<path d="M27.9372 0.553711L20.2646 21.8105L19.3552 17.2301L16.6515 3.30693C16.6515 3.30693 16.3208 0.553711 12.8318 0.553711H0.148822L0 1.07459C2.96893 1.82008 5.80703 3.01331 8.41672 4.61325L15.4114 31.4592H23.795L36.5937 0.553711H27.9372Z" fill="#0066B3"/>
<path d="M91.2279 31.4592H98.6194L92.1787 0.553831H85.705C84.9213 0.493624 84.1389 0.684816 83.4713 1.09964C82.8037 1.51446 82.2858 2.1313 81.9927 2.86057L69.9877 31.4592H78.3796L80.0332 26.8706H90.2854L91.2279 31.4592ZM82.373 20.5291L86.6062 8.95402L88.9791 20.5291H82.373Z" fill="#0066B3"/>
<path d="M70.6161 7.98679L71.7653 1.37247C69.4425 0.531942 67.0002 0.0685913 64.5309 0C60.5375 0 51.0542 1.74453 51.0542 10.2357C51.0542 18.2225 62.1828 18.3217 62.1828 22.5135C62.1828 26.7053 52.2035 25.9529 48.9046 23.3403L47.7057 30.244C50.5829 31.4527 53.6801 32.0496 56.8004 31.9968C62.2903 31.9968 70.5747 29.1526 70.5747 21.4139C70.5747 13.3775 59.3469 12.6251 59.3469 9.13603C59.3469 5.64698 67.1766 6.08517 70.6161 7.98679Z" fill="#0066B3"/>
<path d="M19.3552 17.2384L16.6515 3.30693C16.6515 3.30693 16.3208 0.553711 12.8318 0.553711H0.148822L0 1.07459C4.36787 2.1882 8.44334 4.23298 11.9471 7.06882C15.273 9.74322 17.8294 13.2526 19.3552 17.2384Z" fill="#FAA634"/>
<path fill-rule="evenodd" clip-rule="evenodd" d="M165.198 27.8361C168.103 30.5097 171.91 31.9896 175.858 31.9806C180.099 31.9806 184.166 30.2959 187.165 27.2972C190.164 24.2984 191.849 20.2312 191.849 15.9903C191.849 11.7494 190.164 7.68225 187.165 4.68349C184.166 1.68473 180.099 4.07965e-05 175.858 4.07965e-05C171.91 -0.00895782 168.103 1.47098 165.198 4.14459C163.547 5.644 162.228 7.47211 161.325 9.51157C160.422 11.551 159.955 13.7567 159.955 15.9871C159.955 18.2175 160.422 20.4232 161.325 22.4626C162.228 24.5021 163.547 26.3302 165.198 27.8296V27.8361Z" fill="#FCB131"/>
<path fill-rule="evenodd" clip-rule="evenodd" d="M170.331 14.3164C170.276 13.7414 170.166 13.1923 170.057 12.614H160.34C160.457 12.049 160.604 11.4905 160.779 10.9407H169.585C169.391 10.3657 169.171 9.78747 168.939 9.23831H161.467C161.738 8.6633 162.042 8.0883 162.371 7.53914H167.999C167.636 6.95466 167.232 6.39658 166.791 5.86904H163.58C164.075 5.26341 164.615 4.69546 165.195 4.16987C163.27 2.44804 160.955 1.21957 158.451 0.590147C155.946 -0.0392827 153.325 -0.0508411 150.815 0.556466C148.305 1.16377 145.98 2.37177 144.04 4.07655C142.099 5.78134 140.602 7.93188 139.677 10.3432C138.752 12.7546 138.427 15.3545 138.729 17.9195C139.031 20.4845 139.952 22.9377 141.412 25.0681C142.872 27.1986 144.827 28.9425 147.11 30.1499C149.394 31.3572 151.936 31.992 154.518 31.9994C158.475 32.0017 162.287 30.5152 165.198 27.8355C165.77 27.3186 166.303 26.7593 166.791 26.1622H163.58C163.146 25.6173 162.743 25.049 162.371 24.4598H167.999C168.352 23.9165 168.664 23.3474 168.932 22.7574H161.467C161.21 22.2115 160.98 21.653 160.779 21.084H169.585C169.775 20.5349 169.908 19.9599 170.05 19.3816C170.171 18.8192 170.262 18.251 170.325 17.6792C170.38 17.1232 170.407 16.5647 170.405 16.0059C170.405 15.4309 170.38 14.8527 170.325 14.3035L170.331 14.3164Z" fill="#ED1C2E"/>
<path fill-rule="evenodd" clip-rule="evenodd" d="M189.613 19.7245C189.61 19.6576 189.621 19.5907 189.644 19.5279C189.667 19.4652 189.703 19.4078 189.749 19.3592C189.796 19.3106 189.851 19.2719 189.913 19.2453C189.974 19.2187 190.04 19.2048 190.107 19.2044C190.176 19.2022 190.245 19.2141 190.309 19.2394C190.373 19.2648 190.431 19.303 190.48 19.3517C190.529 19.4005 190.567 19.4587 190.592 19.5228C190.618 19.587 190.63 19.6556 190.627 19.7245C190.627 19.7911 190.614 19.8571 190.589 19.9186C190.563 19.9801 190.526 20.036 190.479 20.0831C190.432 20.1302 190.376 20.1676 190.314 20.1931C190.253 20.2186 190.187 20.2317 190.12 20.2317C190.054 20.2317 189.988 20.2186 189.926 20.1931C189.865 20.1676 189.809 20.1302 189.762 20.0831C189.715 20.036 189.677 19.9801 189.652 19.9186C189.626 19.8571 189.613 19.7911 189.613 19.7245ZM190.107 20.1089C190.209 20.1089 190.307 20.0684 190.379 19.9963C190.451 19.9242 190.492 19.8265 190.492 19.7245C190.492 19.6225 190.451 19.5248 190.379 19.4527C190.307 19.3806 190.209 19.3401 190.107 19.3401C190.005 19.3401 189.908 19.3806 189.835 19.4527C189.763 19.5248 189.723 19.6225 189.723 19.7245C189.723 19.8265 189.763 19.9242 189.835 19.9963C189.908 20.0684 190.005 20.1089 190.107 20.1089ZM190.052 19.9442H189.943V19.5048H190.259C190.314 19.5339 190.314 19.5888 190.314 19.6437C190.31 19.6672 190.301 19.6894 190.287 19.7085C190.273 19.7276 190.255 19.743 190.233 19.7536L190.343 19.9442H190.204L190.149 19.7794H190.069V19.6987H190.123C190.149 19.6987 190.178 19.6987 190.178 19.6696C190.178 19.6405 190.204 19.6437 190.204 19.6147C190.204 19.6113 190.204 19.6079 190.202 19.6048C190.201 19.6016 190.199 19.5988 190.197 19.5964C190.194 19.594 190.191 19.5921 190.188 19.5908C190.185 19.5895 190.182 19.5888 190.178 19.5888C190.178 19.5598 190.149 19.5888 190.123 19.5888H190.069V19.9442H190.052Z" fill="white"/>
<path fill-rule="evenodd" clip-rule="evenodd" d="M159.79 20.6289C159.371 20.7588 158.937 20.8327 158.498 20.8486C157.675 20.8486 157.18 20.3285 157.18 19.395C157.187 19.1927 157.205 18.991 157.235 18.7909L157.345 18.1448L157.429 17.6215L158.172 13.1377H159.819L159.626 14.1262H160.669L160.424 15.7737H159.38L158.941 18.4678C158.921 18.5579 158.911 18.6501 158.912 18.7424C158.912 19.101 159.076 19.2367 159.49 19.2367C159.665 19.2341 159.839 19.2158 160.01 19.1817L159.79 20.6354V20.6289Z" fill="#003473"/>
<path fill-rule="evenodd" clip-rule="evenodd" d="M165.117 20.5744C164.546 20.7378 163.954 20.8215 163.36 20.8232C161.493 20.8232 160.424 19.8347 160.424 17.8868C160.424 15.6255 161.683 13.9619 163.441 13.9619C164.843 13.9619 165.747 14.8954 165.747 16.3491C165.741 16.8927 165.677 17.4342 165.557 17.9643H162.123C162.104 18.036 162.095 18.1099 162.097 18.184C162.097 18.9528 162.617 19.3372 163.605 19.3372C164.222 19.3358 164.83 19.1968 165.385 18.9302L165.111 20.5744H165.117ZM164.093 16.6495V16.3265C164.108 16.2136 164.097 16.0988 164.061 15.9907C164.025 15.8826 163.965 15.784 163.886 15.7021C163.807 15.6202 163.711 15.5572 163.604 15.5176C163.497 15.4781 163.383 15.4631 163.269 15.4737C162.72 15.4737 162.336 15.8872 162.171 16.6528L164.093 16.6495Z" fill="#003473"/>
<path fill-rule="evenodd" clip-rule="evenodd" d="M146.617 20.7135H144.915L145.903 14.4821L143.681 20.7135H142.498L142.363 14.5112L141.319 20.7135H139.646L140.99 12.6182H143.487L143.542 17.6124L145.215 12.6182H147.961L146.617 20.7135Z" fill="#003473"/>
<path fill-rule="evenodd" clip-rule="evenodd" d="M150.762 17.7764C150.655 17.755 150.547 17.7452 150.439 17.7473C149.45 17.7473 148.956 18.1317 148.956 18.7358C148.946 18.8249 148.956 18.9149 148.985 18.9998C149.014 19.0847 149.06 19.1624 149.121 19.2277C149.183 19.293 149.257 19.3443 149.34 19.3782C149.423 19.412 149.512 19.4276 149.602 19.4239C150.426 19.4239 150.755 18.7358 150.784 17.7764H150.762ZM152.141 20.7289H150.652L150.678 20.0441C150.293 20.5642 149.773 20.8388 148.869 20.8388C148.045 20.8388 147.331 20.099 147.331 19.0265C147.335 18.7382 147.38 18.452 147.467 18.177C147.741 17.1594 148.759 16.5295 150.322 16.5036C150.513 16.5036 150.817 16.5036 151.091 16.5295C151.132 16.3867 151.15 16.2385 151.146 16.0901C151.146 15.6508 150.787 15.5151 149.993 15.5151C149.508 15.5114 149.026 15.5855 148.565 15.7348L148.319 15.7897L148.21 15.8156L148.455 14.3328C149.1 14.1099 149.776 13.99 150.458 13.9775C151.941 13.9775 152.739 14.6623 152.739 15.9157C152.755 16.3482 152.727 16.7812 152.655 17.2078L152.27 19.5692L152.215 19.9827L152.189 20.3058L152.16 20.5254L152.141 20.7289Z" fill="#003473"/>
<path fill-rule="evenodd" clip-rule="evenodd" d="M173.406 14.1814C173.946 14.1992 174.473 14.3501 174.941 14.6207L175.245 12.8634C175.102 12.798 174.955 12.743 174.805 12.6986L174.117 12.5048C173.856 12.4481 173.59 12.421 173.322 12.4241C172.473 12.4241 171.979 12.4531 171.455 12.7471C171.08 12.993 170.739 13.2873 170.441 13.6225L170.221 13.5676L168.464 14.8016L168.548 14.1168H166.736L165.663 20.7293H167.395L168.041 17.1759C168.041 17.1759 168.29 16.6817 168.399 16.5298C168.507 16.3783 168.655 16.2596 168.826 16.1872C168.997 16.1147 169.185 16.0913 169.368 16.1196H169.507C169.449 16.537 169.421 16.958 169.423 17.3794C169.423 19.5212 170.632 20.865 172.499 20.865C173.009 20.8616 173.517 20.7877 174.007 20.6453L174.308 18.7814C173.867 19.0462 173.368 19.1972 172.854 19.2207C171.84 19.2207 171.239 18.4519 171.239 17.2438C171.239 15.4606 172.143 14.1975 173.436 14.1975L173.406 14.1814Z" fill="#003473"/>
<path fill-rule="evenodd" clip-rule="evenodd" d="M187.979 12.6145L187.594 14.9145C187.442 14.6323 187.216 14.3965 186.941 14.2321C186.666 14.0678 186.351 13.981 186.031 13.9809C185.55 13.9978 185.084 14.1482 184.685 14.4152C184.286 14.6823 183.969 15.0554 183.769 15.4927V15.4636L182.671 14.8176L182.781 14.1327H180.943L179.883 20.7291H181.586L182.161 17.1757C182.161 17.1757 182.6 16.6815 182.71 16.5297C182.8 16.4084 182.915 16.3077 183.047 16.2341C183.179 16.1606 183.325 16.116 183.475 16.1032C183.266 16.7277 183.163 17.3829 183.172 18.0415C183.172 19.6889 184.025 20.784 185.288 20.784C185.591 20.79 185.893 20.7265 186.168 20.5983C186.444 20.4701 186.686 20.2806 186.877 20.0443L186.796 20.6904H188.411L189.729 12.5918L187.979 12.6145ZM185.866 19.1495C185.291 19.1495 184.987 18.7101 184.987 17.8573C184.987 16.5652 185.536 15.6348 186.331 15.6348C186.935 15.6348 187.239 16.1032 187.239 16.927C187.239 18.245 186.69 19.1527 185.866 19.1527V19.1495Z" fill="#003473"/>
<path fill-rule="evenodd" clip-rule="evenodd" d="M177.932 17.7769C177.826 17.7552 177.718 17.7454 177.609 17.7479C176.621 17.7479 176.126 18.1323 176.126 18.7363C176.117 18.8241 176.126 18.913 176.153 18.9969C176.181 19.0809 176.226 19.158 176.285 19.2231C176.345 19.2883 176.418 19.3399 176.499 19.3746C176.58 19.4094 176.668 19.4263 176.756 19.4244C177.58 19.4244 177.91 18.7363 177.935 17.7769H177.932ZM179.305 20.7133H177.796L177.851 20.0285C177.467 20.5486 176.947 20.8232 176.039 20.8232C175.19 20.8232 174.447 20.1092 174.447 19.0109C174.447 17.4474 175.629 16.488 177.496 16.488C177.687 16.488 177.987 16.488 178.236 16.5139C178.282 16.3717 178.31 16.2239 178.317 16.0745C178.317 15.6352 177.961 15.4995 177.137 15.4995C176.653 15.4983 176.171 15.5724 175.71 15.7192L175.49 15.7741L175.38 15.7999L175.629 14.3172C176.274 14.0941 176.95 13.9741 177.632 13.9619C179.114 13.9619 179.893 14.6467 179.893 15.9001C179.925 16.3326 179.897 16.7675 179.809 17.1922L179.454 19.5536L179.399 19.9671L179.344 20.2901L179.315 20.5098V20.7295L179.305 20.7133Z" fill="#003473"/>
<path fill-rule="evenodd" clip-rule="evenodd" d="M155.73 15.5254C156.163 15.5283 156.595 15.565 157.022 15.6352L157.271 14.0975C156.776 14.0426 156.117 13.9619 155.733 13.9619C153.795 13.9619 153.181 15.0053 153.181 16.2231C153.181 17.0178 153.536 17.5928 154.473 18.0321C155.158 18.3552 155.268 18.4165 155.268 18.7202C155.268 19.1304 154.913 19.3663 154.254 19.3663C153.72 19.3657 153.191 19.2728 152.69 19.0917L152.496 20.6003L152.525 20.6261L152.848 20.681C152.993 20.7169 153.14 20.7449 153.288 20.765C153.698 20.7909 154.053 20.8199 154.273 20.8199C156.195 20.8199 156.993 20.0802 156.993 18.6233C156.993 17.7188 156.554 17.1696 155.701 16.7852C154.961 16.4622 154.877 16.4008 154.877 16.1004C154.877 15.7999 155.2 15.5221 155.73 15.5221V15.5254Z" fill="#003473"/>
<path fill-rule="evenodd" clip-rule="evenodd" d="M175.723 12.3305L175.4 14.0976C174.93 13.8279 174.403 13.6771 173.862 13.6582C172.57 13.6582 171.665 14.9213 171.665 16.7045C171.665 17.9417 172.269 18.6814 173.28 18.6814C173.79 18.6566 174.287 18.5163 174.734 18.2712L174.43 20.1093C173.941 20.2596 173.434 20.3433 172.922 20.358C171.055 20.358 169.901 19.0109 169.901 16.8434C169.901 13.9619 171.494 11.93 173.778 11.93C174.046 11.9262 174.314 11.9544 174.576 12.014L175.261 12.1787C175.48 12.2595 175.535 12.2886 175.7 12.3435L175.723 12.3305Z" fill="white"/>
<path fill-rule="evenodd" clip-rule="evenodd" d="M170.166 13.5479H170.002C169.427 13.5479 169.097 13.8225 168.574 14.6204L168.739 13.6028H167.175L166.103 20.1927H167.834C168.48 16.158 168.629 15.47 169.449 15.47H169.559C169.681 14.8109 169.899 14.1732 170.205 13.577L170.15 13.5479H170.166Z" fill="white"/>
<path fill-rule="evenodd" clip-rule="evenodd" d="M160.217 20.1087C159.822 20.2545 159.404 20.3289 158.983 20.3284C158.104 20.3284 157.61 19.8342 157.61 18.8747C157.615 18.681 157.633 18.4878 157.665 18.2965L157.775 17.6504L157.855 17.1303L158.602 12.6143H160.314L160.12 13.6028H160.999L160.779 15.218H159.894L159.429 17.9606C159.406 18.0502 159.396 18.1427 159.4 18.2351C159.4 18.5582 159.564 18.7035 159.978 18.7035C160.135 18.7176 160.293 18.6989 160.443 18.6486L160.223 20.1023L160.217 20.1087Z" fill="white"/>
<path fill-rule="evenodd" clip-rule="evenodd" d="M153.614 15.6896C153.614 16.5133 153.998 17.0883 154.906 17.5277C155.62 17.8507 155.73 17.967 155.73 18.2416C155.73 18.6551 155.426 18.8457 154.741 18.8457C154.219 18.8427 153.701 18.7599 153.204 18.6002L152.958 20.1087L153.039 20.1378L153.343 20.1927C153.495 20.2309 153.651 20.2494 153.808 20.2476C154.117 20.2889 154.429 20.3072 154.741 20.3026C156.554 20.3026 157.403 19.6145 157.403 18.1059C157.403 17.1982 157.048 16.6781 156.195 16.2678C155.455 15.9383 155.371 15.8544 155.371 15.5604C155.371 15.2018 155.675 15.0371 156.224 15.0371C156.637 15.0413 157.049 15.0694 157.458 15.1211L157.704 13.6093C157.205 13.5263 156.701 13.481 156.195 13.4736C154.273 13.4736 153.588 14.4879 153.611 15.6961L153.614 15.6896Z" fill="white"/>
<path fill-rule="evenodd" clip-rule="evenodd" d="M188.857 20.1926H187.242L187.323 19.5465C187.127 19.775 186.883 19.9575 186.608 20.0809C186.333 20.2043 186.035 20.2656 185.733 20.2604C184.47 20.2604 183.647 19.1912 183.647 17.5437C183.647 15.347 184.939 13.4799 186.444 13.4799C186.773 13.4819 187.095 13.566 187.383 13.7245C187.671 13.883 187.914 14.111 188.092 14.3876L188.476 12.0811H190.178L188.86 20.1797L188.857 20.1926ZM186.331 18.6549C187.129 18.6549 187.678 17.7214 187.678 16.4292C187.678 15.5796 187.374 15.1371 186.77 15.1371C186.002 15.1371 185.427 16.0448 185.427 17.3337C185.427 18.2124 185.73 18.6517 186.331 18.6517V18.6549Z" fill="white"/>
<path fill-rule="evenodd" clip-rule="evenodd" d="M165.502 20.0543C164.925 20.2421 164.322 20.3348 163.715 20.3289C161.777 20.3289 160.808 19.3146 160.808 17.3634C160.808 15.1022 162.068 13.4385 163.799 13.4385C165.227 13.4385 166.132 14.3721 166.132 15.829C166.128 16.3841 166.054 16.9366 165.912 17.4733H162.507C162.488 17.5359 162.479 17.6015 162.481 17.6671C162.481 18.4359 163.001 18.8203 163.99 18.8203C164.609 18.8323 165.222 18.6902 165.773 18.4068L165.502 20.0543ZM164.533 16.1294V15.8064C164.547 15.6937 164.535 15.5793 164.499 15.4716C164.463 15.364 164.403 15.2657 164.324 15.1842C164.245 15.1027 164.149 15.04 164.042 15.0006C163.936 14.9612 163.822 14.9463 163.709 14.9568C163.16 14.9568 162.775 15.3671 162.61 16.1359L164.533 16.1294Z" fill="white"/>
<path fill-rule="evenodd" clip-rule="evenodd" d="M147.056 20.19H145.354L146.342 13.9618L144.12 20.19H142.938L142.802 14.0167L141.759 20.19H140.166L141.51 12.0947H143.981L144.065 17.1179L145.709 12.0947H148.4L147.056 20.19Z" fill="white"/>
<path fill-rule="evenodd" clip-rule="evenodd" d="M151.311 17.2531C151.146 17.2531 151.062 17.2273 150.926 17.2273C149.957 17.2273 149.469 17.5826 149.469 18.2416C149.459 18.3252 149.468 18.4101 149.494 18.4901C149.52 18.5702 149.564 18.6436 149.621 18.7051C149.679 18.7667 149.749 18.8149 149.827 18.8464C149.905 18.8779 149.989 18.892 150.073 18.8877C150.787 18.8877 151.282 18.2416 151.311 17.2402V17.2531ZM152.574 20.1927H151.146L151.172 19.5047C150.956 19.7739 150.679 19.9871 150.364 20.126C150.048 20.2649 149.704 20.3255 149.36 20.3026C148.429 20.3026 147.796 19.5887 147.796 18.5162C147.796 16.901 148.894 15.9642 150.816 15.9642C151.007 15.9642 151.256 15.9933 151.53 16.0191C151.569 15.8859 151.588 15.7476 151.585 15.6088C151.585 15.1695 151.282 15.0048 150.487 15.0048C150.006 14.9989 149.526 15.0542 149.059 15.1695L148.814 15.2374L148.649 15.2664L148.911 13.7966C149.576 13.5846 150.27 13.4757 150.968 13.4736C152.451 13.4736 153.249 14.1196 153.249 15.4118C153.236 15.8455 153.19 16.2775 153.11 16.7039L152.726 19.0395L152.655 19.4368L152.629 19.7599L152.6 20.0086L152.574 20.1733V20.1927Z" fill="white"/>
<path fill-rule="evenodd" clip-rule="evenodd" d="M178.481 17.2531C178.291 17.2531 178.207 17.2273 178.097 17.2273C177.128 17.2273 176.617 17.5826 176.617 18.2416C176.61 18.3268 176.622 18.4126 176.65 18.4931C176.679 18.5736 176.725 18.647 176.785 18.7082C176.845 18.7695 176.917 18.8172 176.997 18.8481C177.076 18.8791 177.162 18.8926 177.247 18.8877C177.932 18.8877 178.455 18.2416 178.481 17.2402V17.2531ZM179.744 20.1927H178.307L178.336 19.5047C178.12 19.7739 177.843 19.9871 177.528 20.126C177.212 20.2649 176.868 20.3255 176.524 20.3026C175.59 20.3026 174.96 19.5887 174.96 18.5162C174.96 16.901 176.058 15.9642 177.977 15.9642C178.171 15.9642 178.417 15.9933 178.665 16.0191C178.709 15.8862 178.736 15.7484 178.746 15.6088C178.746 15.1695 178.446 15.0048 177.651 15.0048C177.16 14.999 176.671 15.0543 176.194 15.1695L175.974 15.2503L175.81 15.2793L176.058 13.7966C176.724 13.5846 177.418 13.4757 178.116 13.4736C179.599 13.4736 180.377 14.1196 180.377 15.4118C180.381 15.8539 180.335 16.295 180.239 16.7266L179.883 19.0621L179.828 19.4724L179.773 19.7954L179.744 20.0441V20.2089V20.1927Z" fill="white"/>
<path fill-rule="evenodd" clip-rule="evenodd" d="M184.357 13.5479H184.193C183.614 13.5479 183.285 13.8225 182.765 14.6204L182.93 13.6028H181.366L180.323 20.1927H182.022C182.668 16.158 182.82 15.47 183.637 15.47H183.747C183.869 14.8109 184.087 14.1732 184.393 13.577L184.338 13.5479H184.357Z" fill="white"/>
<path fill-rule="evenodd" clip-rule="evenodd" d="M243.492 7.53223H252.61C257.505 7.53223 259.348 9.98552 259.063 13.5897C258.593 19.5401 254.959 22.8321 250.139 22.8321H247.705C247.044 22.8321 246.599 23.2655 246.42 24.4397L245.387 31.266C245.318 31.7087 245.083 31.965 244.73 31.9999H239.001C238.462 31.9999 238.272 31.5922 238.413 30.7092L241.906 8.82528C242.042 7.94927 242.527 7.53223 243.492 7.53223Z" fill="#009EE3"/>
<path fill-rule="evenodd" clip-rule="evenodd" d="M283.078 7.12695C286.154 7.12695 288.992 8.77879 288.604 12.8956C288.133 17.7882 285.485 20.4954 281.308 20.5071H277.657C277.132 20.5071 276.878 20.9311 276.742 21.8001L276.035 26.2431C275.93 26.9141 275.581 27.2449 275.068 27.2449H271.672C271.131 27.2449 270.942 26.9024 271.062 26.1359L273.865 8.32914C274.004 7.45313 274.336 7.12695 274.941 7.12695H283.07H283.078ZM277.546 16.6606H280.312C282.042 16.5953 283.19 15.4094 283.306 13.2707C283.376 11.9497 282.475 11.0038 281.042 11.0107L278.439 11.0224L277.546 16.6606ZM297.837 25.882C298.148 25.6024 298.463 25.4579 298.418 25.8027L298.308 26.6275C298.251 27.0585 298.423 27.2868 298.828 27.2868H301.845C302.354 27.2868 302.601 27.0841 302.726 26.306L304.585 14.7548C304.679 14.1746 304.535 13.8904 304.091 13.8904H300.772C300.473 13.8904 300.327 14.0558 300.25 14.5078L300.127 15.2184C300.064 15.5888 299.892 15.6541 299.732 15.2813C299.169 13.9626 297.734 13.3709 295.731 13.4175C291.077 13.513 287.94 17.01 287.604 21.4926C287.345 24.9594 289.854 27.6829 293.163 27.6829C295.563 27.6829 296.637 26.984 297.846 25.8889L297.837 25.882ZM295.309 24.1043C293.306 24.1043 291.911 22.5224 292.2 20.584C292.49 18.6456 294.363 17.0636 296.366 17.0636C298.369 17.0636 299.765 18.6456 299.475 20.584C299.186 22.5224 297.315 24.1043 295.309 24.1043ZM310.49 13.8531H307.43C306.8 13.8531 306.543 14.3191 306.743 14.8922L310.542 25.9029L306.816 31.1427C306.503 31.5807 306.746 31.9791 307.186 31.9791H310.624C310.825 32.002 311.028 31.9674 311.209 31.8794C311.39 31.7915 311.541 31.6538 311.646 31.4828L323.329 14.8946C323.689 14.3843 323.52 13.8485 322.929 13.8485H319.674C319.116 13.8485 318.893 14.0675 318.572 14.5264L313.7 21.5159L311.523 14.5101C311.396 14.0861 311.079 13.8531 310.493 13.8531H310.49Z" fill="#113984"/>
<path fill-rule="evenodd" clip-rule="evenodd" d="M335.483 7.12674C338.559 7.12674 341.398 8.77858 341.01 12.8954C340.539 17.788 337.891 20.4953 333.713 20.5069H330.065C329.54 20.5069 329.286 20.9309 329.15 21.7999L328.444 26.2429C328.338 26.9139 327.989 27.2447 327.476 27.2447H324.08C323.539 27.2447 323.35 26.9022 323.47 26.1357L326.278 8.32426C326.417 7.44825 326.749 7.12207 327.354 7.12207H335.483V7.12674ZM329.952 16.6604H332.718C334.448 16.5951 335.596 15.4093 335.712 13.2705C335.782 11.9495 334.881 11.0036 333.447 11.0106L330.844 11.0222L329.952 16.6604ZM350.243 25.8818C350.553 25.6022 350.869 25.4578 350.824 25.8026L350.714 26.6273C350.657 27.0583 350.829 27.2867 351.234 27.2867H354.251C354.759 27.2867 355.007 27.084 355.131 26.3058L356.991 14.7546C357.085 14.1745 356.941 13.8902 356.496 13.8902H353.182C352.884 13.8902 352.738 14.0556 352.66 14.5076L352.538 15.2182C352.474 15.5887 352.302 15.6539 352.142 15.2811C351.58 13.9625 350.144 13.3707 348.141 13.4173C343.488 13.5128 340.351 17.0099 340.014 21.4924C339.755 24.9592 342.264 27.6827 345.573 27.6827C347.974 27.6827 349.047 26.9838 350.257 25.8888L350.243 25.8818ZM347.717 24.1041C345.714 24.1041 344.319 22.5222 344.608 20.5838C344.898 18.6454 346.771 17.0634 348.774 17.0634C350.777 17.0634 352.173 18.6454 351.883 20.5838C351.594 22.5222 349.72 24.1041 347.717 24.1041ZM361.634 27.3053H358.151C358.09 27.308 358.03 27.2974 357.974 27.2743C357.918 27.2512 357.868 27.2161 357.827 27.1716C357.786 27.1271 357.756 27.0742 357.739 27.0168C357.721 26.9593 357.716 26.8987 357.725 26.8393L360.785 7.65095C360.814 7.51999 360.887 7.40267 360.992 7.31807C361.097 7.23347 361.228 7.18656 361.364 7.18498H364.847C364.908 7.1823 364.968 7.1929 365.024 7.21601C365.08 7.23913 365.13 7.2742 365.171 7.31871C365.212 7.36322 365.242 7.41608 365.259 7.47352C365.277 7.53095 365.282 7.59154 365.273 7.65095L362.213 26.8393C362.185 26.9712 362.112 27.0895 362.007 27.1751C361.902 27.2606 361.77 27.3081 361.634 27.31V27.3053Z" fill="#009EE3"/>
<path fill-rule="evenodd" clip-rule="evenodd" d="M237.789 0H246.917C249.487 0 252.537 0.0815434 254.575 1.86385C255.938 3.05439 256.654 4.94853 256.489 6.98944C255.929 13.888 251.76 17.7532 246.168 17.7532H241.668C240.901 17.7532 240.395 18.2564 240.178 19.617L238.921 27.5384C238.839 28.051 238.615 28.3538 238.215 28.3911H232.583C231.959 28.3911 231.738 27.9252 231.901 26.8954L235.949 1.50506C236.111 0.484599 236.678 0 237.789 0Z" fill="#113984"/>
<path fill-rule="evenodd" clip-rule="evenodd" d="M240.31 18.8135L241.903 8.82565C242.042 7.94964 242.527 7.53027 243.492 7.53027H252.61C254.119 7.53027 255.34 7.76325 256.296 8.19427C255.38 14.3356 251.367 17.7465 246.114 17.7465H241.621C241.018 17.7488 240.576 18.047 240.31 18.8135Z" fill="#172C70"/>
</g>
<defs>
<clipPath id="clip0">
<rect width="366" height="32" fill="white"/>
</clipPath>
</defs>
</svg>
