<svg width="200" height="200" viewBox="0 0 200 200" fill="none" xmlns="http://www.w3.org/2000/svg">
<g clip-path="url(#clip0)">
<path d="M198.025 77.8179C200.658 75.1849 200.658 70.9151 198.025 68.2816L187.905 58.1619C185.616 55.8732 182.023 55.5338 179.346 57.3527L158.068 71.8146L172.443 50.3928C174.238 47.7175 173.89 44.1454 171.611 41.8676L149.66 19.9162C147.633 17.8896 144.547 17.365 141.966 18.6089L138.171 20.4363L139.988 16.4039C141.14 13.8482 140.591 10.847 138.609 8.86451L131.718 1.97475C129.085 -0.65825 124.815 -0.65825 122.182 1.97475L68.6589 55.4974L144.502 131.341L198.025 77.8179Z" fill="url(#paint0_linear)"/>
<path d="M58.6929 65.4639L43.1988 80.958C41.9342 82.2225 41.2235 83.9376 41.2235 85.7259C41.2235 87.5142 41.9338 89.2296 43.1988 90.4938L57.8963 105.191C60.728 108.023 62.1014 111.931 61.6644 115.913C61.2279 119.891 59.0377 123.41 55.6557 125.566C12.4686 153.095 8.44294 157.121 7.12037 158.444C-2.37362 167.938 -2.37362 183.385 7.12037 192.88C16.6238 202.383 32.072 202.364 41.5557 192.88C42.8792 191.557 46.9062 187.529 74.4338 144.344C76.5844 140.97 80.1012 138.785 84.082 138.348C88.0753 137.912 91.9828 139.279 94.8077 142.103L109.505 156.801C112.138 159.434 116.408 159.434 119.041 156.801L134.536 141.306L58.6929 65.4639ZM31.4908 181.988C27.7685 185.71 21.7338 185.71 18.012 181.988C14.2898 178.266 14.2898 172.231 18.012 168.509C21.7343 164.787 27.769 164.787 31.4908 168.509C35.213 172.231 35.213 178.266 31.4908 181.988Z" fill="url(#paint1_linear)"/>
</g>
<defs>
<linearGradient id="paint0_linear" x1="200" y1="-66.763" x2="68.6482" y2="-66.7136" gradientUnits="userSpaceOnUse">
<stop stop-color="#FF4B4B"/>
<stop offset="0.322917" stop-color="#FFB84E"/>
<stop offset="0.666667" stop-color="#C03CFF"/>
<stop offset="1" stop-color="#50ABFF"/>
</linearGradient>
<linearGradient id="paint1_linear" x1="134.536" y1="-2.92357" x2="-0.0110707" y2="-2.87296" gradientUnits="userSpaceOnUse">
<stop stop-color="#FF4B4B"/>
<stop offset="0.322917" stop-color="#FFB84E"/>
<stop offset="0.666667" stop-color="#C03CFF"/>
<stop offset="1" stop-color="#50ABFF"/>
</linearGradient>
<clipPath id="clip0">
<rect width="200" height="200" fill="white"/>
</clipPath>
</defs>
</svg>
