<svg width="416" height="415" viewBox="0 0 416 415" fill="none" xmlns="http://www.w3.org/2000/svg">
<path d="M310.46 27.2903L207.53 205.57V0.000286194C243.636 -0.0598238 279.127 9.34983 310.46 27.2903Z" fill="#7C3697"/>
<path d="M207.53 0.000286194V205.57L104.6 27.2903C135.934 9.34983 171.424 -0.0598238 207.53 0.000286194Z" fill="#A71E48"/>
<path d="M207.53 205.57L28.6501 102.29C47.0317 71.1248 73.2058 45.2782 104.6 27.2903L207.53 205.57Z" fill="#EF3224"/>
<path d="M207.53 205.57H0.0600586C0.335427 169.228 10.1975 133.601 28.6501 102.29L207.53 205.57Z" fill="#F25424"/>
<path d="M207.53 205.57L27.0002 309.8C9.26161 278.619 -0.0442178 243.354 0.000157967 207.48C0.000157967 206.84 0.000157967 206.2 0.000157967 205.57H207.53Z" fill="#F99B1E"/>
<path d="M207.53 205.57L102.95 386.71C71.3071 368.203 45.1085 341.673 27 309.8L207.53 205.57Z" fill="#F9BD19"/>
<path d="M207.53 205.57V414.96C170.777 415.02 134.674 405.268 102.95 386.71L207.53 205.57Z" fill="#F3EC3A"/>
<path d="M312.11 386.71C280.386 405.268 244.283 415.02 207.53 414.96V205.57L312.11 386.71Z" fill="#D0DD37"/>
<path d="M388.06 309.8C369.952 341.673 343.753 368.203 312.11 386.71L207.53 205.57L388.06 309.8Z" fill="#62B146"/>
<path d="M415.01 207.48C415.07 243.349 405.781 278.615 388.06 309.8L207.53 205.57H415C415.01 206.2 415.01 206.84 415.01 207.48Z" fill="#1496CE"/>
<path d="M415 205.57H207.53L386.46 102.29C404.895 133.606 414.74 169.232 415 205.57Z" fill="#3D5EAC"/>
<path d="M386.46 102.29L207.53 205.57L310.46 27.2903C341.873 45.2712 368.065 71.1185 386.46 102.29Z" fill="#463191"/>
</svg>
