<svg width="415" height="415" viewBox="0 0 415 415" fill="none" xmlns="http://www.w3.org/2000/svg">
<path d="M310.42 27.3003L272.92 92.2503C252.981 80.9086 230.429 74.9629 207.49 75.0003V0.00025793C243.597 -0.0568081 279.087 9.35631 310.42 27.3003Z" fill="#7C3697"/>
<path d="M207.49 0.0102677V75.0103C184.551 74.9729 161.999 80.9186 142.06 92.2603L104.56 27.3103C135.893 9.36631 171.383 -0.0467983 207.49 0.0102677Z" fill="#A71E48"/>
<path d="M142.06 92.2503C122.058 103.646 105.349 120.028 93.5601 139.8L28.6101 102.3C46.9917 71.1348 73.1658 45.2882 104.56 27.3003L142.06 92.2503Z" fill="#EF3224"/>
<path d="M93.56 139.8C81.6985 159.714 75.2967 182.403 75 205.58H0C0.28285 169.236 10.1518 133.61 28.61 102.3L93.56 139.8Z" fill="#F15523"/>
<path d="M91.9101 272.36L26.9601 309.86C9.2332 278.659 -0.0554298 243.376 0.0101101 207.49C0.0101101 206.85 0.0101101 206.21 0.0101101 205.58H75.0101C75.0101 206.21 75.0101 206.85 75.0101 207.49C74.9589 230.209 80.7805 252.555 91.9101 272.36Z" fill="#F99B1E"/>
<path d="M140.4 321.78L102.91 386.72C71.2675 368.217 45.0687 341.69 26.96 309.82L91.91 272.36C103.43 292.823 120.16 309.873 140.4 321.78Z" fill="#F9BD19"/>
<path d="M207.49 339.99V414.99C170.737 415.05 134.634 405.298 102.91 386.74L140.4 321.8C160.737 333.749 183.903 340.03 207.49 339.99Z" fill="#F3EC3A"/>
<path d="M312.07 386.72C280.346 405.277 244.243 415.03 207.49 414.97V339.97C231.079 340.004 254.245 333.716 274.58 321.76L312.07 386.72Z" fill="#D0DD37"/>
<path d="M388.02 309.82C369.911 341.69 343.713 368.217 312.07 386.72L274.58 321.78C294.82 309.873 311.55 292.823 323.07 272.36L388.02 309.82Z" fill="#62B146"/>
<path d="M414.97 207.49C415.013 243.367 405.708 278.635 387.97 309.82L323.07 272.36C334.2 252.568 340.028 230.237 339.99 207.53C339.99 206.89 339.99 206.25 339.99 205.62H414.99C414.97 206.21 414.97 206.85 414.97 207.49Z" fill="#1496CE"/>
<path d="M414.96 205.58H339.96C339.663 182.403 333.262 159.714 321.4 139.8L386.35 102.3C404.808 133.61 414.677 169.236 414.96 205.58Z" fill="#3D5EAC"/>
<path d="M386.37 102.3L321.42 139.8C309.631 120.028 292.922 103.646 272.92 92.2503L310.42 27.3003C341.814 45.2882 367.988 71.1348 386.37 102.3Z" fill="#463191"/>
</svg>
