<svg width="107" height="48" viewBox="0 0 107 48" fill="none" xmlns="http://www.w3.org/2000/svg">
<path d="M1.056 23.736C1.056 21.5173 1.536 19.544 2.496 17.816C3.456 16.0667 4.78933 14.712 6.496 13.752C8.224 12.7707 10.176 12.28 12.352 12.28C15.0187 12.28 17.3013 12.984 19.2 14.392C21.0987 15.8 22.368 17.72 23.008 20.152H16.992C16.544 19.2133 15.904 18.4987 15.072 18.008C14.2613 17.5173 13.3333 17.272 12.288 17.272C10.6027 17.272 9.23733 17.8587 8.192 19.032C7.14667 20.2053 6.624 21.7733 6.624 23.736C6.624 25.6987 7.14667 27.2667 8.192 28.44C9.23733 29.6133 10.6027 30.2 12.288 30.2C13.3333 30.2 14.2613 29.9547 15.072 29.464C15.904 28.9733 16.544 28.2587 16.992 27.32H23.008C22.368 29.752 21.0987 31.672 19.2 33.08C17.3013 34.4667 15.0187 35.16 12.352 35.16C10.176 35.16 8.224 34.68 6.496 33.72C4.78933 32.7387 3.456 31.384 2.496 29.656C1.536 27.928 1.056 25.9547 1.056 23.736ZM34.487 35.256C32.7377 35.256 31.159 34.8827 29.751 34.136C28.3643 33.3893 27.2657 32.3227 26.455 30.936C25.6657 29.5493 25.271 27.928 25.271 26.072C25.271 24.2373 25.6763 22.6267 26.487 21.24C27.2977 19.832 28.407 18.7547 29.815 18.008C31.223 17.2613 32.8017 16.888 34.551 16.888C36.3003 16.888 37.879 17.2613 39.287 18.008C40.695 18.7547 41.8043 19.832 42.615 21.24C43.4257 22.6267 43.831 24.2373 43.831 26.072C43.831 27.9067 43.415 29.528 42.583 30.936C41.7723 32.3227 40.6523 33.3893 39.223 34.136C37.815 34.8827 36.2363 35.256 34.487 35.256ZM34.487 30.52C35.5323 30.52 36.4177 30.136 37.143 29.368C37.8897 28.6 38.263 27.5013 38.263 26.072C38.263 24.6427 37.9003 23.544 37.175 22.776C36.471 22.008 35.5963 21.624 34.551 21.624C33.4843 21.624 32.599 22.008 31.895 22.776C31.191 23.5227 30.839 24.6213 30.839 26.072C30.839 27.5013 31.1803 28.6 31.863 29.368C32.567 30.136 33.4417 30.52 34.487 30.52ZM52.206 11.32V35H46.734V11.32H52.206ZM64.2995 35.256C62.5502 35.256 60.9715 34.8827 59.5635 34.136C58.1768 33.3893 57.0782 32.3227 56.2675 30.936C55.4782 29.5493 55.0835 27.928 55.0835 26.072C55.0835 24.2373 55.4888 22.6267 56.2995 21.24C57.1102 19.832 58.2195 18.7547 59.6275 18.008C61.0355 17.2613 62.6142 16.888 64.3635 16.888C66.1128 16.888 67.6915 17.2613 69.0995 18.008C70.5075 18.7547 71.6168 19.832 72.4275 21.24C73.2382 22.6267 73.6435 24.2373 73.6435 26.072C73.6435 27.9067 73.2275 29.528 72.3955 30.936C71.5848 32.3227 70.4648 33.3893 69.0355 34.136C67.6275 34.8827 66.0488 35.256 64.2995 35.256ZM64.2995 30.52C65.3448 30.52 66.2302 30.136 66.9555 29.368C67.7022 28.6 68.0755 27.5013 68.0755 26.072C68.0755 24.6427 67.7128 23.544 66.9875 22.776C66.2835 22.008 65.4088 21.624 64.3635 21.624C63.2968 21.624 62.4115 22.008 61.7075 22.776C61.0035 23.5227 60.6515 24.6213 60.6515 26.072C60.6515 27.5013 60.9928 28.6 61.6755 29.368C62.3795 30.136 63.2542 30.52 64.2995 30.52ZM82.0185 20.12C82.6585 19.1387 83.4585 18.3707 84.4185 17.816C85.3785 17.24 86.4452 16.952 87.6185 16.952V22.744H86.1145C84.7492 22.744 83.7252 23.0427 83.0425 23.64C82.3598 24.216 82.0185 25.24 82.0185 26.712V35H76.5465V17.144H82.0185V20.12ZM97.498 35.256C95.9407 35.256 94.554 34.9893 93.338 34.456C92.122 33.9227 91.162 33.1973 90.458 32.28C89.754 31.3413 89.3593 30.296 89.274 29.144H94.682C94.746 29.7627 95.034 30.264 95.546 30.648C96.058 31.032 96.6873 31.224 97.434 31.224C98.1167 31.224 98.6393 31.096 99.002 30.84C99.386 30.5627 99.578 30.2107 99.578 29.784C99.578 29.272 99.3113 28.8987 98.778 28.664C98.2447 28.408 97.3807 28.1307 96.186 27.832C94.906 27.5333 93.8393 27.224 92.986 26.904C92.1327 26.5627 91.3967 26.04 90.778 25.336C90.1593 24.6107 89.85 23.64 89.85 22.424C89.85 21.4 90.1273 20.472 90.682 19.64C91.258 18.7867 92.09 18.1147 93.178 17.624C94.2873 17.1333 95.5993 16.888 97.114 16.888C99.354 16.888 101.114 17.4427 102.394 18.552C103.695 19.6613 104.442 21.1333 104.634 22.968H99.578C99.4927 22.3493 99.2153 21.8587 98.746 21.496C98.298 21.1333 97.7007 20.952 96.954 20.952C96.314 20.952 95.8233 21.08 95.482 21.336C95.1407 21.5707 94.97 21.9013 94.97 22.328C94.97 22.84 95.2367 23.224 95.77 23.48C96.3247 23.736 97.178 23.992 98.33 24.248C99.6527 24.5893 100.73 24.9307 101.562 25.272C102.394 25.592 103.119 26.1253 103.738 26.872C104.378 27.5973 104.709 28.5787 104.73 29.816C104.73 30.8613 104.431 31.8 103.834 32.632C103.258 33.4427 102.415 34.0827 101.306 34.552C100.218 35.0213 98.9487 35.256 97.498 35.256Z" fill="white"/>
<path d="M0 38.2H106.106V39.8H0V38.2Z" fill="white"/>
<a href="http://preview.themeforest.net/item/paint-painting-company-wordpress-theme-/full_screen_preview/15763387?_ga=2.58696941.692078570.1630003507-1727308803.1596105996">
<rect fill="black" fill-opacity="0" y="1.90735e-06" width="106.106" height="48"/>
</a>
<rect x="72" y="8" width="32" height="4" fill="white"/>
</svg>
