<svg width="200" height="200" viewBox="0 0 200 200" fill="none" xmlns="http://www.w3.org/2000/svg">
<g clip-path="url(#clip0)">
<path d="M198.999 0C190.621 7.77459 179.708 12.2462 168.284 12.5866H166.068H165.593C155.935 12.5866 150.79 30.0416 149.246 38.4326L160.328 49.5151H162.743C172.134 49.6908 181.177 45.9643 187.718 39.2242C195.634 30.7936 199.355 17.6133 198.999 0Z" fill="url(#paint0_linear)"/>
<path d="M124.231 61.8247C108.755 75.2029 11.9414 160.063 0.977661 200C40.5581 188.878 125.616 92.1038 138.995 76.5882L124.231 61.8247Z" fill="url(#paint1_linear)"/>
<path d="M143.546 41.0845L124.865 54.0669L146.752 75.9548L159.735 57.2729L143.546 41.0845Z" fill="url(#paint2_linear)"/>
</g>
<defs>
<linearGradient id="paint0_linear" x1="199.022" y1="-25.1726" x2="149.242" y2="-25.1537" gradientUnits="userSpaceOnUse">
<stop stop-color="#FF4B4B"/>
<stop offset="0.322917" stop-color="#FFB84E"/>
<stop offset="0.666667" stop-color="#C03CFF"/>
<stop offset="1" stop-color="#50ABFF"/>
</linearGradient>
<linearGradient id="paint1_linear" x1="138.995" y1="-8.41262" x2="0.966429" y2="-8.36076" gradientUnits="userSpaceOnUse">
<stop stop-color="#FF4B4B"/>
<stop offset="0.322917" stop-color="#FFB84E"/>
<stop offset="0.666667" stop-color="#C03CFF"/>
<stop offset="1" stop-color="#50ABFF"/>
</linearGradient>
<linearGradient id="paint2_linear" x1="159.735" y1="23.3592" x2="124.862" y2="23.3723" gradientUnits="userSpaceOnUse">
<stop stop-color="#FF4B4B"/>
<stop offset="0.322917" stop-color="#FFB84E"/>
<stop offset="0.666667" stop-color="#C03CFF"/>
<stop offset="1" stop-color="#50ABFF"/>
</linearGradient>
<clipPath id="clip0">
<rect width="200" height="200" fill="white"/>
</clipPath>
</defs>
</svg>
