<svg width="200" height="200" viewBox="0 0 200 200" fill="none" xmlns="http://www.w3.org/2000/svg">
<g clip-path="url(#clip0)">
<path d="M160.342 7.15278C160.342 5.3533 159.571 5.13045 158.622 6.66106L152.481 16.5436C151.532 18.0742 149.799 18.2139 148.614 16.8574L143.763 11.2926C142.581 9.9357 140.562 9.84207 139.253 11.0808L137.672 12.5779C136.363 13.8166 134.092 14.0159 132.592 13.0205L130.757 11.8037C129.26 10.8098 126.648 10.4436 124.934 10.9913L123.616 11.4135C121.899 11.9612 119.175 11.8037 117.534 11.0614L110.757 7.99393C109.112 7.25479 107.001 7.88722 106.033 9.40684L98.3752 21.4854C97.41 23.0045 96.4706 22.7863 96.2744 20.9962L94.4257 4.02461C94.2301 2.23454 93.5741 0.466445 92.9574 0.0783004C92.3406 -0.310367 91.4744 0.785539 91.0208 2.53114L86.5886 19.518C86.1345 21.2604 84.9178 21.4848 83.8715 20.0196L78.3517 12.2871C77.3055 10.8187 75.789 10.9301 74.9641 12.5308L71.7805 18.715C70.9556 20.3173 69.9951 20.1839 69.6368 18.4189L68.283 11.765C67.9247 10 66.845 9.79185 65.8736 11.2979C64.9006 12.8044 63.6091 12.6585 62.9829 10.9683L61.8441 7.88984C61.2216 6.20021 60.4233 6.26193 60.0634 8.02689L57.891 18.7056C57.5327 20.4705 55.9796 21.1647 54.4238 20.255L52.2608 18.9891C50.703 18.0831 49.4434 18.8076 49.4434 20.6071V43.439H160.342V7.15278Z" fill="url(#paint0_linear)"/>
<path d="M167.063 47.5481C166.155 46.9397 164.878 46.7007 163.699 46.7007H160.341H49.443H48.6468C45.5123 46.7007 42.9198 49.0003 42.9198 52.1347V52.232V59.7475H33.0598C30.7105 59.7475 29.873 62.8657 29.873 65.2134V91.8583C29.873 93.9146 31.5915 95.6759 33.6138 96.0437L101.631 108.414V121.719H95.7357C92.6013 121.719 88.5833 125.633 88.5833 128.768V193.05C88.5833 196.184 92.6013 200 95.7357 200H112.894C116.024 200 117.939 196.184 117.939 193.05V128.768C117.939 125.634 116.025 121.719 112.894 121.719H108.153V104.865C108.153 102.811 106.433 101.051 104.414 100.682L36.3956 88.3101V69.5327H42.9193V78.2936C42.9193 81.4281 45.5123 82.5794 48.6463 82.5794H163.698C164.877 82.5794 165.966 82.9158 166.871 82.3053C167.476 81.8978 168.371 81.7242 168.779 81.1205C169.393 80.2145 170.126 79.4675 170.126 78.2936V59.7543V52.1352C170.126 50.9614 169.393 49.8686 168.779 48.9642C168.372 48.3574 167.665 47.9561 167.063 47.5481Z" fill="url(#paint1_linear)"/>
</g>
<defs>
<linearGradient id="paint0_linear" x1="160.342" y1="-22.0809" x2="49.4344" y2="-21.9744" gradientUnits="userSpaceOnUse">
<stop stop-color="#FF4B4B"/>
<stop offset="0.322917" stop-color="#FFB84E"/>
<stop offset="0.666667" stop-color="#C03CFF"/>
<stop offset="1" stop-color="#50ABFF"/>
</linearGradient>
<linearGradient id="paint1_linear" x1="170.126" y1="-31.2244" x2="29.8616" y2="-31.1761" gradientUnits="userSpaceOnUse">
<stop stop-color="#FF4B4B"/>
<stop offset="0.322917" stop-color="#FFB84E"/>
<stop offset="0.666667" stop-color="#C03CFF"/>
<stop offset="1" stop-color="#50ABFF"/>
</linearGradient>
<clipPath id="clip0">
<rect width="200" height="200" fill="white"/>
</clipPath>
</defs>
</svg>
