<svg width="149" height="46" viewBox="0 0 149 46" fill="none" xmlns="http://www.w3.org/2000/svg">
<path d="M140.172 0.0258789H8.37694C3.8051 0.0258789 0.098877 3.70186 0.098877 8.23642V36.9734C0.098877 41.5079 3.8051 45.1839 8.37694 45.1839H140.172C144.744 45.1839 148.45 41.5079 148.45 36.9734V8.23642C148.45 3.70186 144.744 0.0258789 140.172 0.0258789Z" fill="white"/>
<path d="M47.7333 7.67245C48.2491 7.67245 48.6999 7.77156 49.0857 7.96975C49.4761 8.16333 49.7759 8.44451 49.9849 8.81326C50.1987 9.17738 50.3056 9.60376 50.3056 10.0923C50.3056 10.5809 50.1987 11.0049 49.9849 11.3644C49.7759 11.724 49.4761 12.0005 49.0857 12.1941C48.6999 12.3831 48.2491 12.4776 47.7333 12.4776H46.1509V7.67245H47.7333ZM47.7333 11.8346C48.3004 11.8346 48.7348 11.6825 49.0369 11.3783C49.339 11.074 49.49 10.6454 49.49 10.0923C49.49 9.53458 49.339 9.09905 49.0369 8.78555C48.7348 8.47214 48.3004 8.31547 47.7333 8.31547H46.9456V11.8346H47.7333ZM52.7595 12.5398C52.3969 12.5398 52.0693 12.4591 51.7765 12.2978C51.4837 12.1319 51.2537 11.9014 51.0864 11.6065C50.9191 11.3068 50.8354 10.9612 50.8354 10.5693C50.8354 10.1822 50.9213 9.83876 51.0934 9.5392C51.2652 9.23955 51.4999 9.00917 51.7974 8.84781C52.0948 8.68644 52.427 8.6058 52.7942 8.6058C53.1613 8.6058 53.4935 8.68644 53.7912 8.84781C54.0885 9.00917 54.3231 9.23955 54.4952 9.5392C54.6671 9.83876 54.7531 10.1822 54.7531 10.5693C54.7531 10.9565 54.6647 11.2999 54.4882 11.5995C54.3115 11.8991 54.07 12.1319 53.7632 12.2978C53.4611 12.4591 53.1265 12.5398 52.7595 12.5398ZM52.7595 11.8553C52.9638 11.8553 53.1544 11.8069 53.331 11.7101C53.5123 11.6133 53.6587 11.4682 53.7702 11.2746C53.8817 11.081 53.9375 10.8459 53.9375 10.5693C53.9375 10.2928 53.884 10.0601 53.7772 9.87109C53.6702 9.67748 53.5284 9.53227 53.3519 9.43547C53.1752 9.33867 52.9847 9.29027 52.7803 9.29027C52.5757 9.29027 52.3852 9.33867 52.2087 9.43547C52.0366 9.53227 51.8996 9.67748 51.7974 9.87109C51.695 10.0601 51.6441 10.2928 51.6441 10.5693C51.6441 10.9795 51.7486 11.2976 51.9578 11.5234C52.1715 11.7447 52.4388 11.8553 52.7595 11.8553ZM60.6972 8.66805L59.5052 12.4776H58.6686L57.8949 9.66363L57.1211 12.4776H56.2845L55.0855 8.66805H55.8942L56.6959 11.7309L57.5115 8.66805H58.341L59.1218 11.717L59.9164 8.66805H60.6972ZM63.229 8.6058C63.5311 8.6058 63.8006 8.66805 64.0376 8.79248C64.2792 8.9169 64.4674 9.10128 64.6023 9.34559C64.7371 9.58991 64.8044 9.88486 64.8044 10.2306V12.4776H64.0167V10.3481C64.0167 10.0071 63.9307 9.74658 63.7588 9.56682C63.5869 9.38245 63.3521 9.29027 63.0547 9.29027C62.7574 9.29027 62.5203 9.38245 62.3436 9.56682C62.1718 9.74658 62.0857 10.0071 62.0857 10.3481V12.4776H61.2911V8.66805H62.0857V9.10359C62.2158 8.94692 62.381 8.82472 62.5807 8.73715C62.7852 8.64958 63.0013 8.6058 63.229 8.6058ZM66.6128 7.36133V12.4776H65.818V7.36133H66.6128ZM69.3223 12.5398C68.9598 12.5398 68.6322 12.4591 68.3393 12.2978C68.0466 12.1319 67.8166 11.9014 67.6493 11.6065C67.482 11.3068 67.3983 10.9612 67.3983 10.5693C67.3983 10.1822 67.4841 9.83876 67.6562 9.5392C67.8281 9.23955 68.0627 9.00917 68.3603 8.84781C68.6576 8.68644 68.9899 8.6058 69.3571 8.6058C69.7242 8.6058 70.0564 8.68644 70.354 8.84781C70.6513 9.00917 70.886 9.23955 71.058 9.5392C71.23 9.83876 71.316 10.1822 71.316 10.5693C71.316 10.9565 71.2276 11.2999 71.0511 11.5995C70.8744 11.8991 70.6329 12.1319 70.3261 12.2978C70.024 12.4591 69.6893 12.5398 69.3223 12.5398ZM69.3223 11.8553C69.5266 11.8553 69.7172 11.8069 69.8939 11.7101C70.0751 11.6133 70.2215 11.4682 70.3331 11.2746C70.4446 11.081 70.5004 10.8459 70.5004 10.5693C70.5004 10.2928 70.4468 10.0601 70.34 9.87109C70.2331 9.67748 70.0913 9.53227 69.9148 9.43547C69.7381 9.33867 69.5475 9.29027 69.3432 9.29027C69.1386 9.29027 68.9481 9.33867 68.7716 9.43547C68.5995 9.53227 68.4625 9.67748 68.3603 9.87109C68.2579 10.0601 68.2069 10.2928 68.2069 10.5693C68.2069 10.9795 68.3115 11.2976 68.5207 11.5234C68.7344 11.7447 69.0016 11.8553 69.3223 11.8553ZM71.8366 10.5556C71.8366 10.173 71.9157 9.83415 72.0737 9.5392C72.2364 9.24417 72.4547 9.01602 72.7289 8.85473C73.0078 8.68875 73.3145 8.6058 73.6491 8.6058C73.9512 8.6058 74.2137 8.66574 74.4368 8.78555C74.6645 8.90083 74.8457 9.04603 74.9805 9.22117V8.66805H75.7822V12.4776H74.9805V11.9106C74.8457 12.0904 74.6623 12.2402 74.4298 12.36C74.1974 12.4799 73.9325 12.5398 73.6352 12.5398C73.3052 12.5398 73.0032 12.4568 72.7289 12.2909C72.4547 12.1203 72.2364 11.8853 72.0737 11.5857C71.9157 11.2815 71.8366 10.9381 71.8366 10.5556ZM74.9805 10.5693C74.9805 10.3066 74.9248 10.0785 74.8132 9.88486C74.7063 9.69133 74.5647 9.54382 74.3881 9.4424C74.2113 9.34098 74.021 9.29027 73.8164 9.29027C73.6118 9.29027 73.4215 9.34098 73.2448 9.4424C73.0681 9.5392 72.9242 9.68441 72.8126 9.87793C72.7057 10.0669 72.6523 10.2928 72.6523 10.5556C72.6523 10.8183 72.7057 11.0487 72.8126 11.2469C72.9242 11.4451 73.0681 11.5972 73.2448 11.7032C73.426 11.8046 73.6166 11.8553 73.8164 11.8553C74.021 11.8553 74.2113 11.8046 74.3881 11.7032C74.5647 11.6018 74.7063 11.4543 74.8132 11.2607C74.9248 11.0626 74.9805 10.8321 74.9805 10.5693ZM76.5612 10.5556C76.5612 10.173 76.6401 9.83415 76.7983 9.5392C76.9608 9.24417 77.1793 9.01602 77.4535 8.85473C77.7324 8.68875 78.0413 8.6058 78.3807 8.6058C78.6316 8.6058 78.8777 8.66113 79.1196 8.77178C79.3657 8.87774 79.5609 9.02063 79.7051 9.20039V7.36133H80.5068V12.4776H79.7051V11.9037C79.5749 12.0881 79.3936 12.2402 79.1614 12.36C78.9335 12.4799 78.671 12.5398 78.3737 12.5398C78.0391 12.5398 77.7324 12.4568 77.4535 12.2909C77.1793 12.1203 76.9608 11.8853 76.7983 11.5857C76.6401 11.2815 76.5612 10.9381 76.5612 10.5556ZM79.7051 10.5693C79.7051 10.3066 79.6494 10.0785 79.5378 9.88486C79.4309 9.69133 79.2891 9.54382 79.1126 9.4424C78.9359 9.34098 78.7453 9.29027 78.541 9.29027C78.3364 9.29027 78.1458 9.34098 77.9693 9.4424C77.7927 9.5392 77.6487 9.68441 77.5371 9.87793C77.4302 10.0669 77.3768 10.2928 77.3768 10.5556C77.3768 10.8183 77.4302 11.0487 77.5371 11.2469C77.6487 11.4451 77.7927 11.5972 77.9693 11.7032C78.1507 11.8046 78.341 11.8553 78.541 11.8553C78.7453 11.8553 78.9359 11.8046 79.1126 11.7032C79.2891 11.6018 79.4309 11.4543 79.5378 11.2607C79.6494 11.0626 79.7051 10.8321 79.7051 10.5693ZM85.0274 12.5398C84.6648 12.5398 84.3376 12.4591 84.045 12.2978C83.7516 12.1319 83.5216 11.9014 83.3543 11.6065C83.187 11.3068 83.1038 10.9612 83.1038 10.5693C83.1038 10.1822 83.1895 9.83876 83.3618 9.5392C83.5332 9.23955 83.7681 9.00917 84.0656 8.84781C84.3631 8.68644 84.6953 8.6058 85.062 8.6058C85.4296 8.6058 85.7618 8.68644 86.0593 8.84781C86.3568 9.00917 86.5909 9.23955 86.7631 9.5392C86.9354 9.83876 87.0211 10.1822 87.0211 10.5693C87.0211 10.9565 86.9329 11.2999 86.7565 11.5995C86.5793 11.8991 86.3379 12.1319 86.0313 12.2978C85.7288 12.4591 85.3942 12.5398 85.0274 12.5398ZM85.0274 11.8553C85.2318 11.8553 85.4222 11.8069 85.5994 11.7101C85.7807 11.6133 85.9266 11.4682 86.0387 11.2746C86.1499 11.081 86.206 10.8459 86.206 10.5693C86.206 10.2928 86.1524 10.0601 86.0453 9.87109C85.9381 9.67748 85.7964 9.53227 85.62 9.43547C85.4436 9.33867 85.2524 9.29027 85.048 9.29027C84.8436 9.29027 84.6532 9.33867 84.4769 9.43547C84.3046 9.53227 84.1678 9.67748 84.0656 9.87109C83.9634 10.0601 83.9123 10.2928 83.9123 10.5693C83.9123 10.9795 84.017 11.2976 84.2255 11.5234C84.4398 11.7447 84.7068 11.8553 85.0274 11.8553ZM89.745 8.6058C90.0466 8.6058 90.3162 8.66805 90.5535 8.79248C90.795 8.9169 90.9829 9.10128 91.1181 9.34559C91.2524 9.58991 91.32 9.88486 91.32 10.2306V12.4776H90.5321V10.3481C90.5321 10.0071 90.4464 9.74658 90.2741 9.56682C90.1027 9.38245 89.8678 9.29027 89.5703 9.29027C89.2727 9.29027 89.0362 9.38245 88.859 9.56682C88.6876 9.74658 88.601 10.0071 88.601 10.3481V12.4776H87.8065V8.66805H88.601V9.10359C88.7313 8.94692 88.8961 8.82472 89.0964 8.73715C89.3008 8.64958 89.5167 8.6058 89.745 8.6058ZM95.0716 9.31104V11.4198C95.0716 11.5626 95.1046 11.6663 95.1697 11.7309C95.239 11.7907 95.3552 11.8208 95.5184 11.8208H96.0063V12.4776H95.3782C95.0206 12.4776 94.7461 12.3946 94.5557 12.2287C94.3653 12.0628 94.2705 11.7931 94.2705 11.4198V9.31104H93.8172V8.66805H94.2705V7.72085H95.0716V8.66805H96.0063V9.31104H95.0716ZM98.7252 8.6058C99.0178 8.6058 99.2782 8.66805 99.5057 8.79248C99.7381 8.9169 99.9195 9.10128 100.05 9.34559C100.184 9.58991 100.252 9.88486 100.252 10.2306V12.4776H99.4637V10.3481C99.4637 10.0071 99.378 9.74658 99.2057 9.56682C99.0343 9.38245 98.7994 9.29027 98.5019 9.29027C98.2043 9.29027 97.9678 9.38245 97.7906 9.56682C97.6192 9.74658 97.5326 10.0071 97.5326 10.3481V12.4776H96.7381V7.36133H97.5326V9.11051C97.6678 8.94923 97.8376 8.82472 98.042 8.73715C98.2513 8.64958 98.4788 8.6058 98.7252 8.6058ZM104.785 10.4794C104.785 10.6223 104.776 10.7514 104.758 10.8667H101.823C101.846 11.1708 101.96 11.4152 102.165 11.5995C102.369 11.7839 102.62 11.8761 102.918 11.8761C103.345 11.8761 103.647 11.6986 103.824 11.3437H104.682C104.565 11.694 104.354 11.982 104.047 12.2079C103.744 12.4292 103.368 12.5398 102.918 12.5398C102.55 12.5398 102.221 12.4591 101.928 12.2978C101.64 12.1319 101.412 11.9014 101.245 11.6065C101.082 11.3068 101.001 10.9612 101.001 10.5693C101.001 10.1776 101.08 9.83415 101.237 9.5392C101.4 9.23955 101.625 9.00917 101.914 8.84781C102.207 8.68644 102.541 8.6058 102.918 8.6058C103.28 8.6058 103.603 8.68421 103.886 8.84088C104.17 8.99763 104.391 9.21886 104.549 9.50465C104.706 9.78574 104.785 10.1107 104.785 10.4794ZM103.956 10.2306C103.951 9.94018 103.847 9.70741 103.642 9.53227C103.438 9.35714 103.185 9.26957 102.882 9.26957C102.609 9.26957 102.374 9.35714 102.179 9.53227C101.983 9.70279 101.867 9.93557 101.83 10.2306H103.956Z" fill="#111111"/>
<path d="M54.6677 31.6468H49.3428L48.4278 34.224H46.2502L50.8067 21.5919H53.2221L57.7786 34.224H55.5827L54.6677 31.6468ZM54.0822 29.9588L52.0145 24.0966L49.9284 29.9588H54.0822ZM61.8457 25.6937C62.1994 25.2339 62.6813 24.8468 63.2913 24.5321C63.9013 24.2176 64.5905 24.0603 65.3591 24.0603C66.2374 24.0603 67.0365 24.2781 67.7562 24.7137C68.4882 25.1371 69.0615 25.7361 69.4763 26.5104C69.8912 27.2848 70.0985 28.1741 70.0985 29.1784C70.0985 30.1827 69.8912 31.0841 69.4763 31.8827C69.0615 32.6691 68.4882 33.2862 67.7562 33.734C67.0365 34.1695 66.2374 34.3874 65.3591 34.3874C64.5905 34.3874 63.9074 34.2361 63.3096 33.9336C62.7118 33.619 62.2238 33.2318 61.8457 32.772V38.9792H59.7596V24.2236H61.8457V25.6937ZM67.9758 29.1784C67.9758 28.4888 67.8295 27.8958 67.5366 27.3998C67.2561 26.8916 66.8779 26.5104 66.4021 26.2564C65.9386 25.9902 65.4384 25.857 64.9016 25.857C64.3771 25.857 63.8769 25.9902 63.4011 26.2564C62.9375 26.5225 62.5594 26.9097 62.2665 27.4179C61.986 27.9261 61.8457 28.5251 61.8457 29.2147C61.8457 29.9044 61.986 30.5094 62.2665 31.0297C62.5594 31.5378 62.9375 31.9251 63.4011 32.1912C63.8769 32.4574 64.3771 32.5906 64.9016 32.5906C65.4384 32.5906 65.9386 32.4574 66.4021 32.1912C66.8779 31.9129 67.2561 31.5137 67.5366 30.9934C67.8295 30.4731 67.9758 29.8681 67.9758 29.1784ZM74.2476 25.6937C74.6013 25.2339 75.0832 24.8468 75.6932 24.5321C76.3032 24.2176 76.9924 24.0603 77.761 24.0603C78.6393 24.0603 79.4383 24.2781 80.1581 24.7137C80.89 25.1371 81.4637 25.7361 81.8783 26.5104C82.2929 27.2848 82.5005 28.1741 82.5005 29.1784C82.5005 30.1827 82.2929 31.0841 81.8783 31.8827C81.4637 32.6691 80.89 33.2862 80.1581 33.734C79.4383 34.1695 78.6393 34.3874 77.761 34.3874C76.9924 34.3874 76.3093 34.2361 75.7115 33.9336C75.1137 33.619 74.6257 33.2318 74.2476 32.772V38.9792H72.1615V24.2236H74.2476V25.6937ZM80.3777 29.1784C80.3777 28.4888 80.2313 27.8958 79.9385 27.3998C79.6579 26.8916 79.2797 26.5104 78.804 26.2564C78.3404 25.9902 77.8402 25.857 77.3035 25.857C76.7789 25.857 76.2788 25.9902 75.803 26.2564C75.3394 26.5225 74.9612 26.9097 74.6684 27.4179C74.3879 27.9261 74.2476 28.5251 74.2476 29.2147C74.2476 29.9044 74.3879 30.5094 74.6684 31.0297C74.9612 31.5378 75.3394 31.9251 75.803 32.1912C76.2788 32.4574 76.7789 32.5906 77.3035 32.5906C77.8402 32.5906 78.3404 32.4574 78.804 32.1912C79.2797 31.9129 79.6579 31.5137 79.9385 30.9934C80.2313 30.4731 80.3777 29.8681 80.3777 29.1784ZM93.5074 34.351C92.6536 34.351 91.8846 34.2058 91.2014 33.9155C90.5181 33.6129 89.9816 33.1894 89.5909 32.645C89.2011 32.1005 89.0058 31.4653 89.0058 30.7393H91.2385C91.2871 31.2838 91.5005 31.7315 91.8788 32.0823C92.2687 32.4332 92.8118 32.6087 93.5074 32.6087C94.2269 32.6087 94.7882 32.4393 95.1904 32.1005C95.5934 31.7496 95.7945 31.3019 95.7945 30.7574C95.7945 30.3339 95.6668 29.9891 95.4104 29.7229C95.1665 29.4567 94.8549 29.251 94.4766 29.1058C94.1107 28.9606 93.5989 28.8033 92.9396 28.6339C92.1104 28.4161 91.433 28.1984 90.9088 27.9805C90.3962 27.7506 89.9569 27.3998 89.5909 26.9279C89.225 26.456 89.042 25.8268 89.042 25.0403C89.042 24.3144 89.225 23.6791 89.5909 23.1347C89.9569 22.5902 90.4695 22.1727 91.128 21.8823C91.7874 21.5919 92.5497 21.4468 93.4159 21.4468C94.6481 21.4468 95.6544 21.7552 96.4349 22.3723C97.2277 22.9773 97.667 23.8122 97.7527 24.877H95.4467C95.4104 24.4172 95.1904 24.0239 94.7882 23.6973C94.3852 23.3706 93.8544 23.2072 93.1959 23.2072C92.5984 23.2072 92.1104 23.3585 91.7321 23.661C91.3538 23.9635 91.1651 24.399 91.1651 24.9677C91.1651 25.355 91.2805 25.6755 91.5129 25.9297C91.7569 26.1717 92.0618 26.3653 92.4277 26.5104C92.7937 26.6556 93.294 26.8129 93.9277 26.9823C94.7701 27.2122 95.4533 27.4421 95.9775 27.672C96.514 27.9019 96.9657 28.2588 97.3316 28.7428C97.7099 29.2147 97.8986 29.85 97.8986 30.6486C97.8986 31.2898 97.7222 31.8948 97.3679 32.4635C97.0266 33.0322 96.5206 33.492 95.8497 33.8428C95.1904 34.1816 94.4099 34.351 93.5074 34.351ZM102.794 25.9115V31.4471C102.794 31.8222 102.879 32.0944 103.051 32.2639C103.234 32.4211 103.538 32.4998 103.965 32.4998H105.246V34.224H103.599C102.66 34.224 101.94 34.0062 101.44 33.5706C100.94 33.135 100.689 32.4272 100.689 31.4471V25.9115H99.5V24.2236H100.689V21.7371H102.794V24.2236H105.246V25.9115H102.794ZM111.542 34.3874C110.591 34.3874 109.73 34.1756 108.962 33.7521C108.193 33.3165 107.589 32.7115 107.151 31.9372C106.712 31.1506 106.491 30.2432 106.491 29.2147C106.491 28.1984 106.717 27.297 107.169 26.5104C107.62 25.7239 108.236 25.119 109.017 24.6955C109.798 24.272 110.67 24.0603 111.634 24.0603C112.598 24.0603 113.47 24.272 114.25 24.6955C115.032 25.119 115.647 25.7239 116.099 26.5104C116.55 27.297 116.776 28.1984 116.776 29.2147C116.776 30.2311 116.544 31.1325 116.08 31.919C115.617 32.7055 114.982 33.3165 114.177 33.7521C113.384 34.1756 112.506 34.3874 111.542 34.3874ZM111.542 32.5906C112.079 32.5906 112.579 32.4635 113.043 32.2094C113.518 31.9553 113.902 31.5741 114.196 31.0659C114.488 30.5578 114.634 29.9407 114.634 29.2147C114.634 28.4888 114.494 27.8777 114.214 27.3816C113.933 26.8735 113.561 26.4923 113.097 26.2382C112.634 25.9841 112.134 25.857 111.597 25.857C111.061 25.857 110.56 25.9841 110.096 26.2382C109.646 26.4923 109.285 26.8735 109.017 27.3816C108.749 27.8777 108.615 28.4888 108.615 29.2147C108.615 30.2916 108.889 31.1265 109.438 31.7193C109.999 32.3001 110.701 32.5906 111.542 32.5906ZM120.924 25.6755C121.229 25.1674 121.632 24.7741 122.132 24.4958C122.645 24.2054 123.248 24.0603 123.943 24.0603V26.2019H123.413C122.595 26.2019 121.973 26.4076 121.546 26.819C121.131 27.2304 120.924 27.9442 120.924 28.9606V34.224H118.838V24.2236H120.924V25.6755ZM135.102 28.9788C135.102 29.3538 135.077 29.6926 135.029 29.9952H127.325C127.386 30.7938 127.684 31.435 128.222 31.919C128.758 32.403 129.417 32.645 130.198 32.645C131.32 32.645 132.113 32.1791 132.577 31.2474H134.827C134.523 32.1671 133.967 32.9233 133.162 33.5161C132.369 34.097 131.381 34.3874 130.198 34.3874C129.234 34.3874 128.368 34.1756 127.599 33.7521C126.843 33.3165 126.245 32.7115 125.806 31.9372C125.379 31.1506 125.166 30.2432 125.166 29.2147C125.166 28.1862 125.373 27.2848 125.788 26.5104C126.215 25.7239 126.807 25.119 127.562 24.6955C128.331 24.272 129.21 24.0603 130.198 24.0603C131.149 24.0603 131.997 24.266 132.741 24.6773C133.486 25.0887 134.065 25.6695 134.48 26.4197C134.894 27.1578 135.102 28.0108 135.102 28.9788ZM132.924 28.3254C132.912 27.5631 132.638 26.952 132.101 26.4923C131.564 26.0325 130.899 25.8026 130.107 25.8026C129.386 25.8026 128.771 26.0325 128.258 26.4923C127.745 26.94 127.44 27.551 127.343 28.3254H132.924Z" fill="#111111"/>
<path d="M30.9473 23.336C30.9358 21.2293 31.8965 19.6391 33.8411 18.4681C32.753 16.924 31.1094 16.0744 28.939 15.9079C26.8843 15.7472 24.6388 17.0962 23.8171 17.0962C22.949 17.0962 20.958 15.9653 19.3954 15.9653C16.1659 16.017 12.7339 18.5198 12.7339 23.6115C12.7339 25.1155 13.0117 26.6692 13.5673 28.2726C14.3081 30.3793 16.9819 35.5457 19.7715 35.4595C21.23 35.4251 22.2602 34.4321 24.1584 34.4321C25.999 34.4321 26.9538 35.4595 28.5802 35.4595C31.3931 35.4193 33.8122 30.7237 34.5182 28.6112C30.7447 26.849 30.9473 23.4451 30.9473 23.336ZM27.6716 13.9103C29.2516 12.0505 29.1068 10.3571 29.0606 9.74854C27.6657 9.82893 26.0511 10.6899 25.1309 11.752C24.1179 12.8885 23.5219 14.2949 23.6491 15.8792C25.1597 15.9941 26.5371 15.2249 27.6716 13.9103Z" fill="#111111"/>
</svg>
