<svg id="Layer_1" data-name="Layer 1" xmlns="http://www.w3.org/2000/svg" viewBox="0 0 115.58 115.64"><defs><style>.cls-1{fill:#fff;}</style></defs><g id="_14" data-name="14"><path class="cls-1" d="M254.71,201.52c1.31-1.73,1.1-5.41.91-8.65,0-.14,0-.28,0-.42-1.84-.17-3.69-.27-5.57-.27a57.49,57.49,0,0,0-20.44,3.73,135,135,0,0,1,19.35,11.47A42.24,42.24,0,0,0,254.71,201.52Z" transform="translate(-192.21 -192.18)"/><path class="cls-1" d="M284,234.51a38.39,38.39,0,0,0-7.3,1.45c9.82,17.16,13.65,38.83,14.59,54.53a57.55,57.55,0,0,0,16.5-38.18C301.08,244.07,292.2,233.58,284,234.51Z" transform="translate(-192.21 -192.18)"/><path class="cls-1" d="M225.59,219.7c6.9-1.43,13.39-4.91,18.56-8.57a123,123,0,0,0-21.58-12,58.07,58.07,0,0,0-25.36,27.38c6.77-2.7,14.11-4.07,21.32-5.41C220.86,220.64,223.27,220.19,225.59,219.7Z" transform="translate(-192.21 -192.18)"/><path class="cls-1" d="M265.55,221.39c.62.62,1.24,1.25,1.85,1.89a62.29,62.29,0,0,1,6.17,7.68,40.39,40.39,0,0,1,9.78-2.19c9.07-1,17.12,6.15,24,14a57.52,57.52,0,0,0-14.28-31.37,82.14,82.14,0,0,0-13.58,2.77C276.41,215.15,271.45,217.68,265.55,221.39Z" transform="translate(-192.21 -192.18)"/><path class="cls-1" d="M258,251.25c2.37-8,5.12-13.83,10.44-17.59a55.23,55.23,0,0,0-5.18-6.4c-.86-.9-1.73-1.77-2.61-2.63C239.25,239.16,210,265.86,207.34,289a57.67,57.67,0,0,0,34.71,18.27c5-9.92,9.66-30.07,12.45-42.06C255.84,259.44,257,254.47,258,251.25Z" transform="translate(-192.21 -192.18)"/><path class="cls-1" d="M233.74,238.51a206.58,206.58,0,0,1,22.49-18c-2.39-2.12-4.8-4.07-7.16-5.87-6,4.49-13.79,8.91-22.3,10.69-2.39.49-4.83.95-7.19,1.38-9.09,1.69-17.82,3.33-25.16,7.42A57.79,57.79,0,0,0,202.58,283C206.81,266.28,221.32,250,233.74,238.51Z" transform="translate(-192.21 -192.18)"/><path class="cls-1" d="M261.22,217.25c6.87-4.39,12.8-7.42,16.65-8.57a86.46,86.46,0,0,1,10.06-2.33,57.68,57.68,0,0,0-26.49-13c.22,4,.31,8.47-2.12,11.69a44.83,44.83,0,0,1-5.64,5.91Q257.42,213.81,261.22,217.25Z" transform="translate(-192.21 -192.18)"/><path class="cls-1" d="M263.49,252.88c-.9,3.06-2,8-3.36,13.63-3.89,16.74-7.61,31.71-12,41.26.62,0,1.24.05,1.86.05a57.54,57.54,0,0,0,35.69-12.35c-.38-16.43-4.32-39.67-14.25-56.93C267.62,241.4,265.55,245.9,263.49,252.88Z" transform="translate(-192.21 -192.18)"/></g></svg>