<svg width="227" height="141" viewBox="0 0 227 141" fill="none" xmlns="http://www.w3.org/2000/svg">
<g filter="url(#filter0_d)">
<path d="M129.791 0.000205093L128.438 3.14698L124.482 12.3003H61.9561C56.1985 12.279 50.5408 13.8052 45.5749 16.7191C40.609 19.633 36.5172 23.8277 33.7274 28.8644L33.5224 29.2539C33.3858 29.5136 33.2628 29.7698 33.1534 30.0227L32.8869 30.5659C32.8571 30.6463 32.8229 30.725 32.7844 30.8017C32.6922 31.0067 32.5897 31.2219 32.5077 31.4372L32.1899 32.2572C32.0977 32.4724 32.0157 32.6979 31.9439 32.9132L31.7594 33.4257C31.6262 33.7947 31.5134 34.174 31.4007 34.543L13.1555 104.12C12.5684 106.085 12.6224 108.185 13.3099 110.117C13.9974 112.049 15.2826 113.711 16.9788 114.863C18.6363 116.071 20.637 116.717 22.688 116.705C24.739 116.694 26.7326 116.027 28.3769 114.801L70.1562 84.7991C78.1885 79.0219 87.6579 75.5711 97.5239 74.8258L91.7736 88.1509C86.5785 89.4141 81.6752 91.6657 77.3313 94.7827L35.552 124.795C31.8355 127.505 27.3603 128.976 22.7609 129C18.1615 129.024 13.6712 127.599 9.92676 124.928C6.14701 122.323 3.28133 118.596 1.73452 114.274C0.18772 109.951 0.0379785 105.252 1.30645 100.84L19.5516 31.2014C19.7258 30.6274 19.9001 30.0637 20.1051 29.4999C20.1051 29.3359 20.2178 29.1412 20.2998 28.9259C20.4331 28.5364 20.5766 28.1367 20.7406 27.7369C20.9046 27.3372 20.9456 27.2244 21.0481 26.9682C21.2121 26.5479 21.3966 26.1276 21.5811 25.7176L21.7041 25.4409L21.7554 25.3486L21.9706 24.8874C22.1756 24.4466 22.3806 24.0161 22.5959 23.5856L22.9034 23.0321C26.7475 16.0423 32.4017 10.2157 39.2729 6.16335C46.144 2.11098 53.979 -0.0178214 61.9561 0.000205093H129.791Z" fill="white"/>
<path d="M75.7016 38.725H50.2609C47.1361 38.725 44.6029 41.2559 44.6029 44.3779C44.6029 47.4999 47.1361 50.0308 50.2609 50.0308H75.7016C78.8265 50.0308 81.3597 47.4999 81.3597 44.3779C81.3597 41.2559 78.8265 38.725 75.7016 38.725Z" fill="white"/>
<path d="M68.6391 31.6627C68.6391 28.5378 66.1082 26.0046 62.9862 26.0046C59.8642 26.0046 57.3333 28.5378 57.3333 31.6627V57.1034C57.3333 60.2282 59.8642 62.7614 62.9862 62.7614C66.1082 62.7614 68.6391 60.2282 68.6391 57.1034V31.6627Z" fill="white"/>
<path d="M207.118 124.928C203.373 127.599 198.883 129.024 194.284 129C189.684 128.976 185.209 127.505 181.493 124.795L139.682 94.7827C132.585 89.6697 124.055 86.9257 115.308 86.9413H101.716C101.101 86.9413 100.486 86.9413 99.8609 86.9413C97.1311 87.0691 94.4214 87.4744 91.7736 88.1509L97.5239 74.8258L124.482 12.3003L128.428 3.14698L129.791 0.000210679H155.047C163.012 -0.0243091 170.837 2.09189 177.703 6.12745C184.57 10.163 190.226 15.9696 194.08 22.9399C194.192 23.1551 194.336 23.4011 194.469 23.6779C194.602 23.9546 194.869 24.4774 195.053 24.8874L195.269 25.3486L195.32 25.4409C195.32 25.5434 195.433 25.6869 195.504 25.8714C195.668 26.2302 195.832 26.5992 195.976 26.9682C196.119 27.3372 196.191 27.4807 196.283 27.7369C196.376 27.9932 196.591 28.5262 196.724 28.9259C196.806 29.1412 196.878 29.3359 196.929 29.5102C197.124 30.0637 197.298 30.6274 197.462 31.1912L197.513 31.3757L215.707 100.84C216.979 105.249 216.834 109.946 215.293 114.268C213.751 118.59 210.892 122.319 207.118 124.928Z" fill="white"/>
<path d="M151.122 39.6475C155.124 39.6475 158.368 36.403 158.368 32.4007C158.368 28.3984 155.124 25.1539 151.122 25.1539C147.119 25.1539 143.875 28.3984 143.875 32.4007C143.875 36.403 147.119 39.6475 151.122 39.6475Z" fill="#5526C4"/>
<path d="M138.545 52.2243C142.547 52.2243 145.791 48.9798 145.791 44.9775C145.791 40.9752 142.547 37.7307 138.545 37.7307C134.542 37.7307 131.298 40.9752 131.298 44.9775C131.298 48.9798 134.542 52.2243 138.545 52.2243Z" fill="#5526C4"/>
<path d="M163.698 52.2243C167.701 52.2243 170.945 48.9798 170.945 44.9775C170.945 40.9752 167.701 37.7307 163.698 37.7307C159.696 37.7307 156.452 40.9752 156.452 44.9775C156.452 48.9798 159.696 52.2243 163.698 52.2243Z" fill="#5526C4"/>
<path d="M151.122 64.8012C155.124 64.8012 158.368 61.5567 158.368 57.5544C158.368 53.5521 155.124 50.3076 151.122 50.3076C147.119 50.3076 143.875 53.5521 143.875 57.5544C143.875 61.5567 147.119 64.8012 151.122 64.8012Z" fill="#5526C4"/>
</g>
<defs>
<filter id="filter0_d" x="0.453644" y="0" width="226.112" height="141" filterUnits="userSpaceOnUse" color-interpolation-filters="sRGB">
<feFlood flood-opacity="0" result="BackgroundImageFix"/>
<feColorMatrix in="SourceAlpha" type="matrix" values="0 0 0 0 0 0 0 0 0 0 0 0 0 0 0 0 0 0 127 0" result="hardAlpha"/>
<feOffset dx="10" dy="12"/>
<feComposite in2="hardAlpha" operator="out"/>
<feColorMatrix type="matrix" values="0 0 0 0 0 0 0 0 0 0 0 0 0 0 0 0 0 0 0.25 0"/>
<feBlend mode="normal" in2="BackgroundImageFix" result="effect1_dropShadow"/>
<feBlend mode="normal" in="SourceGraphic" in2="effect1_dropShadow" result="shape"/>
</filter>
</defs>
</svg>
