<svg class="dot__arrow__svg" width="176" height="344" fill="white" viewBox="0 0 176 344" xmlns="http://www.w3.org/2000/svg">
<circle cx="4" cy="4" r="4"/>
<circle cx="4" cy="100" r="4"/>
<circle cx="4" cy="52" r="4"/>
<circle cx="4" cy="148" r="4"/>
<circle cx="100" cy="4" r="4"/>
<circle cx="100" cy="100" r="4"/>
<circle cx="100" cy="148" r="4"/>
<circle cx="28" cy="100" r="4"/>
<circle cx="28" cy="52" r="4"/>
<circle cx="28" cy="148" r="4"/>
<circle cx="124" cy="4" r="4"/>
<circle cx="124" cy="52" r="4"/>
<circle cx="124" cy="148" r="4"/>
<circle cx="52" cy="100" r="4"/>
<circle cx="52" cy="52" r="4"/>
<circle cx="52" cy="148" r="4"/>
<circle cx="148" cy="4" r="4"/>
<circle cx="148" cy="52" r="4"/>
<circle cx="148" cy="148" r="4"/>
<circle cx="76" cy="4" r="4"/>
<circle cx="76" cy="100" r="4"/>
<circle cx="76" cy="148" r="4"/>
<circle cx="172" cy="4" r="4"/>
<circle cx="172" cy="100" r="4"/>
<circle cx="172" cy="52" r="4"/>
<circle cx="4" cy="28" r="4"/>
<circle cx="4" cy="124" r="4"/>
<circle cx="4" cy="76" r="4"/>
<circle cx="4" cy="172" r="4"/>
<circle cx="100" cy="28" r="4"/>
<circle cx="100" cy="124" r="4"/>
<circle cx="100" cy="172" r="4"/>
<circle cx="28" cy="28" r="4"/>
<circle cx="28" cy="124" r="4"/>
<circle cx="28" cy="76" r="4"/>
<circle cx="28" cy="172" r="4"/>
<circle cx="124" cy="28" r="4"/>
<circle cx="124" cy="124" r="4"/>
<circle cx="124" cy="172" r="4"/>
<circle cx="52" cy="124" r="4"/>
<circle cx="52" cy="76" r="4"/>
<circle cx="52" cy="172" r="4"/>
<circle cx="148" cy="28" r="4"/>
<circle cx="148" cy="76" r="4"/>
<circle cx="148" cy="172" r="4"/>
<circle cx="76" cy="124" r="4"/>
<circle cx="76" cy="76" r="4"/>
<circle cx="76" cy="172" r="4"/>
<circle cx="172" cy="28" r="4"/>
<circle cx="172" cy="76" r="4"/>
<circle cx="172" cy="172" r="4"/>
<circle cx="4" cy="196" r="4"/>
<circle cx="4" cy="292" r="4"/>
<circle cx="4" cy="244" r="4"/>
<circle cx="4" cy="340" r="4"/>
<circle cx="100" cy="196" r="4"/>
<circle cx="100" cy="244" r="4"/>
<circle cx="100" cy="340" r="4"/>
<circle cx="28" cy="196" r="4"/>
<circle cx="28" cy="292" r="4"/>
<circle cx="28" cy="244" r="4"/>
<circle cx="124" cy="196" r="4"/>
<circle cx="124" cy="292" r="4"/>
<circle cx="124" cy="340" r="4"/>
<circle cx="52" cy="196" r="4"/>
<circle cx="52" cy="292" r="4"/>
<circle cx="52" cy="244" r="4"/>
<circle cx="148" cy="196" r="4"/>
<circle cx="148" cy="292" r="4"/>
<circle cx="148" cy="340" r="4"/>
<circle cx="76" cy="196" r="4"/>
<circle cx="76" cy="244" r="4"/>
<circle cx="76" cy="340" r="4"/>
<circle cx="172" cy="292" r="4"/>
<circle cx="172" cy="244" r="4"/>
<circle cx="172" cy="340" r="4"/>
<circle cx="4" cy="220" r="4"/>
<circle cx="4" cy="316" r="4"/>
<circle cx="4" cy="268" r="4"/>
<circle cx="100" cy="220" r="4"/>
<circle cx="100" cy="316" r="4"/>
<circle cx="28" cy="220" r="4"/>
<circle cx="28" cy="316" r="4"/>
<circle cx="28" cy="268" r="4"/>
<circle cx="124" cy="220" r="4"/>
<circle cx="124" cy="316" r="4"/>
<circle cx="52" cy="220" r="4"/>
<circle cx="52" cy="268" r="4"/>
<circle cx="148" cy="316" r="4"/>
<circle cx="148" cy="268" r="4"/>
<circle cx="76" cy="220" r="4"/>
<circle cx="76" cy="268" r="4"/>
<circle cx="172" cy="316" r="4"/>
<circle cx="172" cy="268" r="4"/>
</svg>
