<svg id="Layer_1" data-name="Layer 1" xmlns="http://www.w3.org/2000/svg" viewBox="0 0 401 401"><defs><style>.cls-1{fill:#5526c4;}.cls-1,.cls-2{stroke:#fff;stroke-miterlimit:10;}.cls-2{fill:none;}.cls-3{fill:#fff;}</style></defs><path class="cls-1" d="M450,250q0,8.26-.67,16.39c-.18,2.35-.42,4.69-.69,7C437.06,372.84,352.54,450,250,450S62.94,372.84,51.36,273.41c-.27-2.33-.51-4.67-.69-7Q50,258.28,50,250t.67-16.39c.18-2.35.42-4.69.69-7C62.94,127.16,147.46,50,250,50s187.06,77.16,198.64,176.59c.27,2.33.51,4.67.69,7Q450,241.73,450,250Z" transform="translate(-49.5 -49.5)"/><circle class="cls-2" cx="200.5" cy="200.5" r="168.51"/><path class="cls-2" d="M390,250a139.89,139.89,0,1,1-.95-16.39A140.89,140.89,0,0,1,390,250Z" transform="translate(-49.5 -49.5)"/><path class="cls-3" d="M110,250a140.89,140.89,0,0,0,1,16.39H50.67Q50,258.28,50,250t.67-16.39H111A140.89,140.89,0,0,0,110,250Z" transform="translate(-49.5 -49.5)"/><path class="cls-3" d="M450,250q0,8.26-.67,16.39H389.05a141.86,141.86,0,0,0,0-32.78h60.28Q450,241.73,450,250Z" transform="translate(-49.5 -49.5)"/></svg>