<svg width="42" height="26" viewBox="0 0 42 26" fill="none" xmlns="http://www.w3.org/2000/svg">
<g filter="url(#filter0_d)">
<path d="M23.939 0.000112568L23.6886 0.582547L22.9563 2.27673H11.3835C10.3178 2.2728 9.27061 2.55527 8.35147 3.09461C7.43233 3.63394 6.67498 4.41033 6.15863 5.34258L6.12069 5.41467C6.09539 5.46273 6.07263 5.51016 6.05239 5.55696L6.00306 5.65751C5.99754 5.67239 5.99121 5.68696 5.98409 5.70114C5.96702 5.73909 5.94804 5.77893 5.93287 5.81877L5.87405 5.97054C5.85698 6.01038 5.8418 6.05212 5.82852 6.09196L5.79437 6.18682C5.76971 6.25512 5.74884 6.32532 5.72797 6.39362L2.35099 19.2717C2.24231 19.6353 2.25232 20.024 2.37956 20.3816C2.50681 20.7391 2.74468 21.0468 3.05864 21.2599C3.36541 21.4835 3.73572 21.6031 4.11534 21.601C4.49496 21.599 4.86396 21.4755 5.1683 21.2486L12.9012 15.6955C14.3879 14.6262 16.1406 13.9875 17.9667 13.8495L16.9024 16.3159C15.9408 16.5497 15.0333 16.9664 14.2292 17.5434L6.49633 23.0983C5.80845 23.5999 4.98014 23.8721 4.12884 23.8766C3.27753 23.881 2.44644 23.6173 1.75338 23.123C1.05378 22.6407 0.523375 21.9509 0.237078 21.1509C-0.0492198 20.3509 -0.0769353 19.4812 0.157846 18.6646L3.53483 5.77513C3.56708 5.66889 3.59933 5.56455 3.63728 5.4602C3.63728 5.42985 3.65815 5.3938 3.67332 5.35396C3.69799 5.28187 3.72455 5.20788 3.7549 5.13389C3.78526 5.0599 3.79285 5.03903 3.81182 4.9916C3.84217 4.91381 3.87632 4.83603 3.91047 4.76014L3.93324 4.70892L3.94272 4.69184L3.98256 4.60647C4.02051 4.52489 4.05845 4.44521 4.09829 4.36553L4.15521 4.26308C4.86672 2.96934 5.91325 1.8909 7.18503 1.14085C8.45681 0.390795 9.90699 -0.00322395 11.3835 0.000112568H23.939Z" fill="white"/>
<path d="M13.9276 7.1676H9.21881C8.64044 7.1676 8.17157 7.63604 8.17157 8.2139C8.17157 8.79175 8.64044 9.26019 9.21881 9.26019H13.9276C14.506 9.26019 14.9749 8.79175 14.9749 8.2139C14.9749 7.63604 14.506 7.1676 13.9276 7.1676Z" fill="white"/>
<path d="M12.6204 5.86045C12.6204 5.28207 12.152 4.8132 11.5741 4.8132C10.9963 4.8132 10.5278 5.28207 10.5278 5.86045V10.5693C10.5278 11.1476 10.9963 11.6165 11.5741 11.6165C12.152 11.6165 12.6204 11.1476 12.6204 10.5693V5.86045Z" fill="white"/>
<path d="M38.2514 23.1229C37.5583 23.6173 36.7272 23.8809 35.8759 23.8765C35.0246 23.8721 34.1963 23.5998 33.5084 23.0982L25.7698 17.5433C24.4561 16.5969 22.8774 16.089 21.2583 16.0919H18.7427C18.6288 16.0919 18.515 16.0919 18.3993 16.0919C17.894 16.1156 17.3925 16.1906 16.9024 16.3158L17.9667 13.8495L22.9563 2.27666L23.6867 0.582474L23.9391 3.89945e-05H28.6137C30.0879 -0.00449937 31.5362 0.387188 32.8071 1.13413C34.078 1.88107 35.1249 2.95581 35.8382 4.24593C35.859 4.28577 35.8856 4.33131 35.9103 4.38253C35.9349 4.43375 35.9843 4.53051 36.0184 4.6064L36.0582 4.69177L36.0677 4.70884C36.0677 4.72782 36.0886 4.75438 36.1019 4.78853C36.1322 4.85493 36.1626 4.92323 36.1892 4.99152C36.2157 5.05982 36.229 5.08638 36.2461 5.13381C36.2631 5.18124 36.303 5.2799 36.3276 5.35389C36.3428 5.39373 36.3561 5.42977 36.3656 5.46203C36.4016 5.56447 36.4339 5.66882 36.4642 5.77316L36.4737 5.80731L39.8412 18.6645C40.0766 19.4805 40.0497 20.3499 39.7645 21.1498C39.4792 21.9497 38.95 22.6399 38.2514 23.1229Z" fill="white"/>
<path d="M27.8871 7.33835C28.6279 7.33835 29.2284 6.73782 29.2284 5.99704C29.2284 5.25626 28.6279 4.65573 27.8871 4.65573C27.1463 4.65573 26.5458 5.25626 26.5458 5.99704C26.5458 6.73782 27.1463 7.33835 27.8871 7.33835Z" fill="#5526C4"/>
<path d="M25.5592 9.6662C26.3 9.6662 26.9005 9.06567 26.9005 8.32489C26.9005 7.58411 26.3 6.98358 25.5592 6.98358C24.8184 6.98358 24.2179 7.58411 24.2179 8.32489C24.2179 9.06567 24.8184 9.6662 25.5592 9.6662Z" fill="#5526C4"/>
<path d="M30.2149 9.6662C30.9557 9.6662 31.5562 9.06567 31.5562 8.32489C31.5562 7.58411 30.9557 6.98358 30.2149 6.98358C29.4741 6.98358 28.8736 7.58411 28.8736 8.32489C28.8736 9.06567 29.4741 9.6662 30.2149 9.6662Z" fill="#5526C4"/>
<path d="M27.8871 11.994C28.6279 11.994 29.2284 11.3935 29.2284 10.6527C29.2284 9.91193 28.6279 9.3114 27.8871 9.3114C27.1463 9.3114 26.5458 9.91193 26.5458 10.6527C26.5458 11.3935 27.1463 11.994 27.8871 11.994Z" fill="#5526C4"/>
</g>
<defs>
<filter id="filter0_d" x="0" y="0" width="42" height="25.8766" filterUnits="userSpaceOnUse" color-interpolation-filters="sRGB">
<feFlood flood-opacity="0" result="BackgroundImageFix"/>
<feColorMatrix in="SourceAlpha" type="matrix" values="0 0 0 0 0 0 0 0 0 0 0 0 0 0 0 0 0 0 127 0" result="hardAlpha"/>
<feOffset dx="2" dy="2"/>
<feComposite in2="hardAlpha" operator="out"/>
<feColorMatrix type="matrix" values="0 0 0 0 0 0 0 0 0 0 0 0 0 0 0 0 0 0 0.25 0"/>
<feBlend mode="normal" in2="BackgroundImageFix" result="effect1_dropShadow"/>
<feBlend mode="normal" in="SourceGraphic" in2="effect1_dropShadow" result="shape"/>
</filter>
</defs>
</svg>
