<svg width="51" height="73" viewBox="0 0 51 73" fill="none" xmlns="http://www.w3.org/2000/svg">
<path d="M0.271834 72.0227H50.8672C50.9024 72.0227 50.9362 72.0087 50.9611 71.9838C50.986 71.9589 51 71.9251 51 71.8899C51 71.8547 50.986 71.8209 50.9611 71.796C50.9362 71.7711 50.9024 71.7571 50.8672 71.7571H0.271834C0.236615 71.7571 0.202839 71.7711 0.177935 71.796C0.153031 71.8209 0.139038 71.8547 0.139038 71.8899C0.139038 71.9251 0.153031 71.9589 0.177935 71.9838C0.202839 72.0087 0.236615 72.0227 0.271834 72.0227Z" fill="#CBCBCB"/>
<path d="M45.2836 2.38899C45.3501 1.91731 45.2412 1.43765 44.9776 1.0409C44.714 0.644143 44.314 0.357862 43.8535 0.236303C43.3929 0.114744 42.9037 0.166352 42.4787 0.381348C42.0536 0.596345 41.7222 0.959793 41.5472 1.40282L37.4415 6.10969L38.6462 9.47432L42.7752 3.97453C43.0447 4.06084 43.3298 4.08702 43.6104 4.05123C43.8911 4.01544 44.1605 3.91855 44.3996 3.76738C44.6388 3.61622 44.8419 3.41445 44.9946 3.1763C45.1473 2.93815 45.246 2.6694 45.2836 2.38899Z" fill="#FFB7B7"/>
<path d="M28.2649 20.7035L41.8937 6.15842L40.0554 3.23584L22.9614 17.6926L28.2649 20.7035Z" fill="white"/>
<path d="M25.2232 11.866C27.8635 11.866 30.0038 9.72564 30.0038 7.08535C30.0038 4.44506 27.8635 2.30469 25.2232 2.30469C22.5829 2.30469 20.4425 4.44506 20.4425 7.08535C20.4425 9.72564 22.5829 11.866 25.2232 11.866Z" fill="white"/>
<path d="M25.6075 4.38481C26.6363 3.34163 27.8811 2.53662 29.2545 2.02646C30.1361 1.69986 31.0957 1.49807 32.0174 1.68355C32.9391 1.86902 33.8107 2.50663 34.0678 3.41093C34.278 4.15039 34.061 4.94656 33.7346 5.64264C33.4084 6.33873 32.9727 6.98421 32.7088 7.70628C32.4396 8.44303 32.3586 9.23537 32.4733 10.0114C32.5879 10.7873 32.8946 11.5224 33.3654 12.1498C33.8362 12.7773 34.4562 13.2772 35.1692 13.6042C35.8822 13.9312 36.6656 14.0749 37.4482 14.0224C36.5426 14.1438 35.7079 14.5694 34.8227 14.7959C33.9376 15.0224 32.8928 15.007 32.235 14.3729C31.5391 13.702 31.5251 12.6111 31.5588 11.6449C31.6088 10.2088 31.6588 8.77256 31.7088 7.33637C31.7344 6.60394 31.7561 5.84804 31.492 5.16442C31.2278 4.4808 30.6001 3.88218 29.8673 3.8884C29.3118 3.89311 28.8202 4.22959 28.3748 4.56141C27.9294 4.89324 27.4579 5.24727 26.9047 5.29663C26.3514 5.34599 25.7198 4.93656 25.7612 4.38266L25.6075 4.38481Z" fill="white"/>
<path d="M7.06592 39.1851C6.60696 39.3126 6.11718 39.2673 5.68939 39.0578C5.26159 38.8484 4.9255 38.4892 4.7448 38.0485C4.5641 37.6078 4.55136 37.1161 4.70897 36.6666C4.86658 36.217 5.18361 35.841 5.59997 35.6096L9.72999 30.9241L13.2232 31.6788L8.31009 36.491C8.43086 36.7469 8.49407 37.0261 8.49526 37.309C8.49645 37.592 8.43559 37.8717 8.31698 38.1285C8.19836 38.3854 8.02486 38.6131 7.80871 38.7957C7.59256 38.9782 7.33901 39.1112 7.06592 39.1851H7.06592Z" fill="#FFB7B7"/>
<path d="M20.6537 22.4107L10.36 35.3317L7.22229 33.8912L19.3214 15.0547L20.6537 22.4107Z" fill="white"/>
<path d="M12.4403 61.4269L9.98706 61.3884L10.2821 69.7501H12.4399L12.4403 61.4269Z" fill="#FFB7B7"/>
<path d="M12.9903 69.0456L8.74071 69.0454H8.74054C8.0223 69.0455 7.33349 69.3308 6.82562 69.8387C6.31774 70.3465 6.0324 71.0353 6.03235 71.7536V71.8416L12.9902 71.8418L12.9903 69.0456Z" fill="white"/>
<path d="M28.6835 59.2092L26.0035 60.9297L31.3643 67.379L33.1801 66.2132L28.6835 59.2092Z" fill="#FFB7B7"/>
<path d="M33.2627 65.323L29.6866 67.6189L29.6865 67.619C29.0821 68.007 28.6567 68.6193 28.5037 69.3211C28.3507 70.0228 28.4828 70.7566 28.8708 71.361L28.9183 71.4351L34.7734 67.6761L33.2627 65.323Z" fill="white"/>
<path d="M29.6383 33.6765C29.6383 33.6765 23.6837 13.8995 21.7701 13.6323C19.8565 13.365 16.7733 18.7068 16.7733 18.7068C12.7757 23.8073 8.65356 40.3288 8.65356 40.3288C8.65356 40.3288 15.5253 40.7588 20.5486 43.4314C25.5718 46.104 31.5 43.2961 31.5 43.2961L29.6383 33.6765Z" fill="white"/>
<path opacity="0.1" d="M29.6383 33.6764C29.6383 33.6764 23.6837 13.8994 21.7701 13.6322C19.8565 13.3649 17.5564 18.7609 17.5564 18.7609C15.5644 26.9943 8.65356 40.3287 8.65356 40.3287C8.65356 40.3287 15.5253 40.7587 20.5486 43.4313C25.5718 46.1039 31.5 43.296 31.5 43.296L29.6383 33.6764Z" fill="black"/>
<path d="M24.7531 27.7593V37.6971L25.9226 52.0928L31.7657 62.9821L28.977 64.974L21.0092 54.6159L17.8578 44.3309L12.9086 67.0987L9.19031 66.8331L11.7727 35.266L16.673 26.3806L24.7531 27.7593Z" fill="white"/>
<path d="M18.7494 18.1472C16.8902 20.0063 18.6166 21.9982 18.6166 21.9982L16.4918 26.7789L24.858 29.0364L27.7817 15.9722L25.7897 13.8474C21.8058 13.7146 21.8037 13.6321 21.8037 13.6321C21.1057 14.3152 18.7494 18.1472 18.7494 18.1472Z" fill="#6C63FF"/>
<path d="M28.1186 14.6189C27.7386 14.3384 27.3067 14.1361 26.848 14.0237C26.3893 13.9113 25.9129 13.8911 25.4463 13.9641C24.9797 14.0371 24.5322 14.202 24.1298 14.4492C23.7273 14.6964 23.378 15.021 23.1019 15.4041C20.9987 18.3326 19.0539 23.0613 21.7334 28.9589C26.0359 38.4285 29.78 43.2763 31.3021 43.2757C31.3685 43.2763 31.4346 43.2659 31.4977 43.245C32.4346 42.9271 33.7892 41.3418 34.0345 39.9447C34.1223 39.4446 34.1014 38.7481 33.5033 38.2698C31.7856 36.8959 28.7017 32.6178 27.7397 26.9869C27.2081 23.8755 28.2391 21.0414 29.1976 19.2117C29.6024 18.4547 29.7209 17.5771 29.5312 16.7398C29.3415 15.9025 28.8564 15.1616 28.1648 14.653V14.653L28.1186 14.6189Z" fill="white"/>
<path d="M25.4691 11.3964C27.1745 10.4642 27.8012 8.32598 26.869 6.6206C25.9367 4.91522 23.7985 4.28847 22.0931 5.22071C20.3877 6.15296 19.761 8.29118 20.6932 9.99656C21.6255 11.7019 23.7637 12.3287 25.4691 11.3964Z" fill="#FFB7B7"/>
<path d="M18.832 8.0424H23.9136L23.9657 7.31284L24.2262 8.0424H25.0087L25.1119 6.59644L25.6283 8.0424H27.1423V7.97076C27.1412 6.9641 26.7408 5.999 26.029 5.28718C25.3172 4.57536 24.3521 4.17497 23.3454 4.17383H22.629C21.6223 4.17496 20.6572 4.57536 19.9454 5.28718C19.2336 5.99899 18.8332 6.9641 18.832 7.97076V8.0424Z" fill="white"/>
<path d="M26.3746 10.6648L28.5432 9.96118V4.69507H24.4471L24.5485 4.79632C25.9595 6.20541 27.5286 11.2047 26.3746 10.6648Z" fill="white"/>
</svg>
