<svg width="142" height="45" viewBox="0 0 142 45" fill="none" xmlns="http://www.w3.org/2000/svg">
<path d="M132.541 0.712402H9.34304C4.61629 0.712402 0.784515 4.54253 0.784515 9.26726V35.6071C0.784515 40.3319 4.61629 44.162 9.34304 44.162H132.541C137.268 44.162 141.099 40.3319 141.099 35.6071V9.26726C141.099 4.54253 137.268 0.712402 132.541 0.712402Z" fill="white"/>
<path d="M28.929 21.3423L17.8341 10.1497L31.9504 18.3026L28.929 21.3423ZM14.9385 9.49219C14.2849 9.83616 13.8476 10.4632 13.8476 11.2776V33.5969C13.8476 34.4112 14.2849 35.0382 14.9385 35.3822L27.8382 22.4347L14.9385 9.49219ZM36.3141 20.9022L33.3531 19.1775L30.0502 22.4397L33.3531 25.7018L36.3742 23.9773C37.2792 23.254 37.2792 21.6255 36.3141 20.9022ZM17.8341 34.7298L31.9504 26.5769L28.929 23.5372L17.8341 34.7298Z" fill="#111111"/>
<path d="M48.4185 10.654C48.2888 10.4043 48.1086 10.217 47.8779 10.0922C47.6474 9.96246 47.3807 9.89765 47.078 9.89765C46.7464 9.89765 46.451 9.9721 46.1915 10.1209C45.9321 10.2698 45.7278 10.4811 45.5789 10.7549C45.4348 11.0286 45.3627 11.3456 45.3627 11.7058C45.3627 12.066 45.4348 12.3854 45.5789 12.6639C45.7278 12.9377 45.9321 13.149 46.1915 13.2978C46.451 13.4467 46.7464 13.5212 47.078 13.5212C47.5248 13.5212 47.8877 13.3963 48.1663 13.1466C48.4448 12.8969 48.6156 12.5583 48.6779 12.1308H46.7969V11.4753H49.5572V12.1164C49.5043 12.5054 49.3651 12.8632 49.1392 13.1898C48.9183 13.5164 48.6275 13.7781 48.2671 13.975C47.9115 14.1671 47.5152 14.2632 47.078 14.2632C46.607 14.2632 46.1771 14.1551 45.7879 13.939C45.3987 13.7181 45.0888 13.4131 44.8582 13.0241C44.6323 12.6351 44.5194 12.1956 44.5194 11.7058C44.5194 11.2159 44.6323 10.7765 44.8582 10.3875C45.0888 9.99846 45.3987 9.69594 45.7879 9.47978C46.1818 9.25888 46.612 9.14844 47.078 9.14844C47.6113 9.14844 48.0845 9.28052 48.4978 9.54467C48.9158 9.80402 49.2185 10.1738 49.4059 10.654H48.4185ZM51.1892 9.87602V11.3456H52.9189V12.0156H51.1892V13.55H53.1352V14.2199H50.3676V9.20607H53.1352V9.87602H51.1892ZM57.3831 9.21325V9.8832H56.0498V14.2199H55.2281V9.8832H53.8876V9.21325H57.3831ZM60.909 9.21325V14.2199H60.0873V9.21325H60.909ZM65.2238 9.21325V9.8832H63.8905V14.2199H63.0689V9.8832H61.7283V9.21325H65.2238ZM70.2127 14.2704C69.7466 14.2704 69.3166 14.1623 68.9226 13.9462C68.5334 13.7253 68.2236 13.4203 67.993 13.0313C67.767 12.6375 67.6542 12.1956 67.6542 11.7058C67.6542 11.2159 67.767 10.7765 67.993 10.3875C68.2236 9.99846 68.5334 9.69594 68.9226 9.47978C69.3166 9.25888 69.7466 9.14844 70.2127 9.14844C70.6834 9.14844 71.1136 9.25888 71.5028 9.47978C71.8967 9.69594 72.2067 9.99846 72.4326 10.3875C72.6583 10.7765 72.7713 11.2159 72.7713 11.7058C72.7713 12.1956 72.6583 12.6375 72.4326 13.0313C72.2067 13.4203 71.8967 13.7253 71.5028 13.9462C71.1136 14.1623 70.6834 14.2704 70.2127 14.2704ZM70.2127 13.5572C70.5443 13.5572 70.8398 13.4827 71.0993 13.3338C71.3587 13.1802 71.5605 12.964 71.7046 12.6855C71.8535 12.4022 71.928 12.0756 71.928 11.7058C71.928 11.336 71.8535 11.0118 71.7046 10.7333C71.5605 10.4547 71.3587 10.241 71.0993 10.0922C70.8398 9.94328 70.5443 9.86883 70.2127 9.86883C69.8812 9.86883 69.5857 9.94328 69.3263 10.0922C69.0668 10.241 68.8626 10.4547 68.7137 10.7333C68.5695 11.0118 68.4974 11.336 68.4974 11.7058C68.4974 12.0756 68.5695 12.4022 68.7137 12.6855C68.8626 12.964 69.0668 13.1802 69.3263 13.3338C69.5857 13.4827 69.8812 13.5572 70.2127 13.5572ZM77.6951 14.2199H76.8736L74.4015 10.4811V14.2199H73.5799V9.20607H74.4015L76.8736 12.9377V9.20607H77.6951V14.2199Z" fill="#111111"/>
<path d="M52.324 25.7331C52.0726 25.2493 51.7235 24.8864 51.2767 24.6444C50.8298 24.3932 50.3131 24.2675 49.7267 24.2675C49.0843 24.2675 48.5118 24.4118 48.0091 24.7002C47.5064 24.9886 47.1107 25.3981 46.8222 25.9286C46.5429 26.4589 46.4033 27.0731 46.4033 27.7709C46.4033 28.4688 46.5429 29.0877 46.8222 29.6273C47.1107 30.1578 47.5064 30.5673 48.0091 30.8557C48.5118 31.1441 49.0843 31.2884 49.7267 31.2884C50.5924 31.2884 51.2954 31.0463 51.8352 30.5625C52.375 30.0787 52.7057 29.4227 52.8266 28.5944H49.1821V27.3243H54.5302V28.5666C54.4277 29.3203 54.1579 30.0134 53.7203 30.6463C53.2921 31.2791 52.7289 31.7861 52.0307 32.1677C51.3417 32.5398 50.5737 32.726 49.7267 32.726C48.8143 32.726 47.9812 32.5166 47.2271 32.0979C46.4731 31.6699 45.8726 31.079 45.4258 30.3252C44.9882 29.5715 44.7695 28.7201 44.7695 27.7709C44.7695 26.8218 44.9882 25.9704 45.4258 25.2167C45.8726 24.463 46.4731 23.8767 47.2271 23.458C47.9904 23.03 48.8238 22.8159 49.7267 22.8159C50.76 22.8159 51.6769 23.0718 52.4776 23.5836C53.2874 24.0861 53.874 24.8027 54.237 25.7331H52.324ZM59.4376 32.7678C58.7115 32.7678 58.0552 32.6051 57.4687 32.2793C56.8822 31.9443 56.4214 31.479 56.0863 30.8835C55.7512 30.2786 55.5836 29.5807 55.5836 28.7898C55.5836 28.0083 55.7559 27.3151 56.1003 26.7101C56.4446 26.1052 56.9149 25.6402 57.5106 25.3143C58.1063 24.9886 58.7721 24.8258 59.5074 24.8258C60.2428 24.8258 60.9086 24.9886 61.5043 25.3143C62.1 25.6402 62.5703 26.1052 62.9146 26.7101C63.259 27.3151 63.4313 28.0083 63.4313 28.7898C63.4313 29.5715 63.2545 30.2647 62.9007 30.8696C62.5469 31.4745 62.0629 31.9443 61.4484 32.2793C60.8433 32.6051 60.173 32.7678 59.4376 32.7678ZM59.4376 31.386C59.8473 31.386 60.2289 31.2884 60.5827 31.0929C60.9457 30.8975 61.239 30.6044 61.4624 30.2136C61.6858 29.8228 61.7976 29.3482 61.7976 28.7898C61.7976 28.2315 61.6905 27.7617 61.4764 27.3802C61.2622 26.9893 60.9784 26.6962 60.6246 26.5008C60.2708 26.3054 59.8892 26.2077 59.4795 26.2077C59.0698 26.2077 58.6883 26.3054 58.3345 26.5008C57.9901 26.6962 57.7153 26.9893 57.5106 27.3802C57.3059 27.7617 57.2034 28.2315 57.2034 28.7898C57.2034 29.6181 57.4129 30.2602 57.8317 30.7161C58.2599 31.1627 58.7953 31.386 59.4376 31.386ZM68.3423 32.7678C67.6162 32.7678 66.9599 32.6051 66.3734 32.2793C65.7869 31.9443 65.3261 31.479 64.991 30.8835C64.6558 30.2786 64.4883 29.5807 64.4883 28.7898C64.4883 28.0083 64.6606 27.3151 65.0049 26.7101C65.3495 26.1052 65.8196 25.6402 66.4153 25.3143C67.0112 24.9886 67.6767 24.8258 68.4122 24.8258C69.1477 24.8258 69.8133 24.9886 70.4089 25.3143C71.0049 25.6402 71.475 26.1052 71.8193 26.7101C72.1639 27.3151 72.336 28.0083 72.336 28.7898C72.336 29.5715 72.1592 30.2647 71.8053 30.8696C71.4517 31.4745 70.9675 31.9443 70.3531 32.2793C69.7481 32.6051 69.0779 32.7678 68.3423 32.7678ZM68.3423 31.386C68.752 31.386 69.1338 31.2884 69.4874 31.0929C69.8504 30.8975 70.1436 30.6044 70.3671 30.2136C70.5905 29.8228 70.7022 29.3482 70.7022 28.7898C70.7022 28.2315 70.5952 27.7617 70.381 27.3802C70.1671 26.9893 69.8831 26.6962 69.5293 26.5008C69.1757 26.3054 68.7939 26.2077 68.3842 26.2077C67.9748 26.2077 67.593 26.3054 67.2391 26.5008C66.8948 26.6962 66.6202 26.9893 66.4153 27.3802C66.2105 27.7617 66.1081 28.2315 66.1081 28.7898C66.1081 29.6181 66.3175 30.2602 66.7365 30.7161C67.1648 31.1627 67.7 31.386 68.3423 31.386ZM77.0096 24.8258C77.6055 24.8258 78.1315 24.9468 78.5872 25.1887C79.0532 25.4213 79.4165 25.7144 79.6769 26.0681V24.9515H81.2829V32.7678C81.2829 33.475 81.1338 34.1031 80.8357 34.6522C80.5383 35.2105 80.1053 35.6479 79.5373 35.9642C78.9787 36.2805 78.3082 36.4388 77.5263 36.4388C76.4837 36.4388 75.6179 36.1923 74.929 35.699C74.2403 35.2152 73.8493 34.5545 73.756 33.717H75.3339C75.4551 34.1171 75.711 34.4381 76.102 34.6801C76.5024 34.9313 76.9772 35.0569 77.5263 35.0569C78.1686 35.0569 78.6853 34.8615 79.076 34.4707C79.4769 34.0799 79.6769 33.5124 79.6769 32.7678V31.4838C79.407 31.8467 79.0391 32.1537 78.5739 32.405C78.1175 32.647 77.5961 32.7678 77.0096 32.7678C76.3394 32.7678 75.7249 32.6004 75.1663 32.2654C74.6173 31.9211 74.1796 31.4466 73.8537 30.8417C73.5373 30.2276 73.379 29.5344 73.379 28.762C73.379 27.9896 73.5373 27.3056 73.8537 26.7101C74.1796 26.1147 74.6173 25.6541 75.1663 25.3283C75.7249 24.9933 76.3394 24.8258 77.0096 24.8258ZM79.6769 28.7898C79.6769 28.2595 79.5647 27.7989 79.3419 27.408C79.1278 27.0172 78.8438 26.7194 78.4899 26.5147C78.1362 26.3101 77.7544 26.2077 77.3448 26.2077C76.9353 26.2077 76.5536 26.3101 76.1997 26.5147C75.8461 26.7101 75.5574 27.0033 75.3339 27.3941C75.12 27.7757 75.0127 28.2315 75.0127 28.762C75.0127 29.2923 75.12 29.7577 75.3339 30.1578C75.5574 30.5578 75.8461 30.8649 76.1997 31.079C76.5627 31.2836 76.9445 31.386 77.3448 31.386C77.7544 31.386 78.1362 31.2836 78.4899 31.079C78.8438 30.8743 79.1278 30.5765 79.3419 30.1856C79.5647 29.7856 79.6769 29.3203 79.6769 28.7898ZM84.9654 22.3135V32.6422H83.3736V22.3135H84.9654ZM94.1076 28.6084C94.1076 28.8968 94.0888 29.1575 94.0511 29.3901H88.1726C88.2189 30.0042 88.4472 30.4975 88.8567 30.8696C89.2662 31.2417 89.7691 31.4279 90.3646 31.4279C91.2213 31.4279 91.8262 31.0698 92.18 30.3532H93.8981C93.6651 31.0603 93.2415 31.642 92.6272 32.0979C92.0215 32.5446 91.2676 32.7678 90.3646 32.7678C89.6295 32.7678 88.9689 32.6051 88.3821 32.2793C87.8047 31.9443 87.3489 31.479 87.0139 30.8835C86.6875 30.2786 86.5251 29.5807 86.5251 28.7898C86.5251 27.999 86.6828 27.3056 86.9997 26.7101C87.3253 26.1052 87.7772 25.6402 88.3538 25.3143C88.9407 24.9886 89.6106 24.8258 90.3646 24.8258C91.0911 24.8258 91.7375 24.9841 92.3063 25.3004C92.8735 25.6167 93.316 26.0634 93.6322 26.6403C93.9491 27.2079 94.1076 27.864 94.1076 28.6084ZM92.4452 28.1059C92.4357 27.5197 92.2263 27.0498 91.8175 26.6962C91.4072 26.3426 90.9004 26.1658 90.2948 26.1658C89.7456 26.1658 89.2757 26.3426 88.885 26.6962C88.4935 27.0405 88.2613 27.5105 88.1867 28.1059H92.4452ZM106.087 25.8308C106.087 26.3241 105.971 26.7892 105.738 27.2266C105.505 27.6641 105.133 28.0222 104.621 28.3013C104.11 28.5713 103.453 28.7062 102.653 28.7062H100.893V32.6422H99.3012V22.9415H102.653C103.397 22.9415 104.026 23.0718 104.538 23.3324C105.059 23.5836 105.446 23.9278 105.697 24.3652C105.957 24.8027 106.087 25.2912 106.087 25.8308ZM102.653 27.408C103.258 27.408 103.709 27.2732 104.007 27.0033C104.305 26.7241 104.454 26.3333 104.454 25.8308C104.454 24.77 103.853 24.2396 102.653 24.2396H100.893V27.408H102.653ZM109.198 22.3135V32.6422H107.606V22.3135H109.198ZM110.757 28.762C110.757 27.9896 110.915 27.3056 111.232 26.7101C111.558 26.1147 111.995 25.6541 112.544 25.3283C113.103 24.9933 113.717 24.8258 114.388 24.8258C114.993 24.8258 115.519 24.9468 115.965 25.1887C116.422 25.4213 116.784 25.7144 117.054 26.0681V24.9515H118.66V32.6422H117.054V31.4977C116.784 31.8606 116.417 32.1629 115.951 32.405C115.486 32.647 114.956 32.7678 114.359 32.7678C113.699 32.7678 113.094 32.6004 112.544 32.2654C111.995 31.9211 111.558 31.4466 111.232 30.8417C110.915 30.2276 110.757 29.5344 110.757 28.762ZM117.054 28.7898C117.054 28.2595 116.943 27.7989 116.719 27.408C116.506 27.0172 116.222 26.7194 115.867 26.5147C115.514 26.3101 115.132 26.2077 114.723 26.2077C114.313 26.2077 113.931 26.3101 113.577 26.5147C113.224 26.7101 112.936 27.0033 112.712 27.3941C112.498 27.7757 112.391 28.2315 112.391 28.762C112.391 29.2923 112.498 29.7577 112.712 30.1578C112.936 30.5578 113.224 30.8649 113.577 31.079C113.941 31.2836 114.323 31.386 114.723 31.386C115.132 31.386 115.514 31.2836 115.867 31.079C116.222 30.8743 116.506 30.5765 116.719 30.1856C116.943 29.7856 117.054 29.3203 117.054 28.7898ZM127.678 24.9515L122.958 36.2573H121.31L122.874 32.5166L119.844 24.9515H121.617L123.782 30.8137L126.03 24.9515H127.678Z" fill="#111111"/>
</svg>
