<svg width="200" height="62" viewBox="0 0 200 62" fill="none" xmlns="http://www.w3.org/2000/svg">
<path d="M200 50.2363L186.208 31.4848L198.81 14.4619H194.077L183.827 28.3498L173.577 14.4619H168.873L181.446 31.5141L167.682 50.2656H172.415L183.827 34.737L195.267 50.2656H200" fill="white"/>
<path d="M106.038 50.2363L92.2749 31.4848L104.848 14.4619H100.144L89.8939 28.3498L79.6441 14.4619H74.9111L87.5129 31.5141L73.7206 50.2656H78.4536L89.8939 34.737L101.305 50.2656H106.038" fill="white"/>
<path d="M122.56 46.4858H112.02V33.477H122.56C126.567 33.477 131.329 34.5611 131.329 39.6884C131.329 45.6068 125.812 46.4858 122.56 46.4858ZM112.02 18.1829H122.56C125.405 18.1829 130.196 18.8861 130.196 23.8669C130.196 27.6172 127.409 29.8732 122.56 29.8732H112.02V18.1829ZM132.229 32.8324C131.474 32.1879 130.69 31.6898 129.877 31.3382C132.461 29.9318 134.174 27.2656 134.174 24.1892C134.174 21.9039 133.332 14.4619 122.531 14.4619H107.984V29.9025H103.135C102.496 30.7229 101.073 32.6859 100.521 33.477H107.984V50.2361H122.531C130.429 50.2361 135.336 46.2221 135.336 39.7763C135.365 36.9636 134.291 34.5611 132.229 32.8324Z" fill="white"/>
<path d="M154.268 47.248C146.573 47.248 141.201 41.1244 141.201 32.3346C141.201 23.5448 146.573 17.4212 154.268 17.4212C161.933 17.4212 167.276 23.5448 167.276 32.3346C167.276 41.0951 161.933 47.248 154.268 47.248ZM154.268 13.6416C144.163 13.6416 137.136 21.318 137.136 32.3346C137.136 43.3512 144.163 51.0276 154.268 51.0276C164.314 51.0276 171.341 43.3512 171.341 32.3346C171.341 21.318 164.314 13.6416 154.268 13.6416Z" fill="white"/>
<path d="M27.1531 61.7259C22.5103 61.2791 17.8072 59.5934 13.7616 56.926C10.3735 54.692 9.60863 53.778 9.60863 51.9434C9.60863 48.2673 13.614 41.8223 20.4573 34.4837C24.3486 30.3134 29.7629 25.4255 30.3466 25.5541C31.4872 25.8114 40.5915 34.7883 43.9998 39.006C49.3939 45.6947 51.8763 51.1648 50.615 53.602C49.6556 55.457 43.718 59.0789 39.357 60.4667C35.7609 61.6176 31.0377 62.105 27.1531 61.7259ZM5.03969 48.1251C2.22856 43.7653 0.806219 39.4664 0.115176 33.2583C-0.112935 31.207 -0.0324255 30.0358 0.631781 25.8249C1.45701 20.5782 4.40903 14.5123 7.96489 10.7753C9.48115 9.18439 9.61534 9.14377 11.4604 9.77338C13.7012 10.5384 16.0897 12.2038 19.7998 15.5955L21.9669 17.5724L20.7861 19.0414C15.2913 25.852 9.50128 35.5059 7.32081 41.477C6.13329 44.7198 5.65694 47.9829 6.16683 49.3369C6.509 50.2509 6.19367 49.9124 5.03969 48.1251ZM54.4191 48.863C54.6941 47.4955 54.3453 44.9771 53.52 42.4384C51.7421 36.9412 45.7777 26.705 40.303 19.7523L38.5788 17.5656L40.4439 15.8325C42.8793 13.5713 44.57 12.2173 46.3949 11.0732C47.8374 10.166 49.8904 9.36718 50.776 9.36718C51.3194 9.36718 53.2383 11.3779 54.7881 13.5781C57.1899 16.9766 58.9545 21.1063 59.8468 25.3984C60.4238 28.1741 60.4707 34.1113 59.9407 36.8735C59.5046 39.1414 58.5787 42.0863 57.6797 44.0902C57.0021 45.5864 55.3248 48.4907 54.5868 49.4385C54.2111 49.9124 54.2111 49.9124 54.4191 48.863ZM27.6495 8.32461C25.1202 7.02478 21.2222 5.63694 19.0685 5.25782C18.3104 5.12919 17.029 5.05472 16.2037 5.09534C14.4258 5.18335 14.5063 5.09534 17.3577 3.73458C19.726 2.604 21.7052 1.94055 24.3889 1.37187C27.408 0.728729 33.0773 0.721959 36.0494 1.35833C39.2564 2.0421 43.0336 3.46379 45.1604 4.78393L45.7911 5.17658L44.3419 5.10211C41.457 4.95317 37.2571 6.13114 32.7418 8.35169C31.3798 9.02191 30.199 9.55674 30.1118 9.53643C30.0313 9.52289 28.9176 8.97452 27.6495 8.32461Z" fill="white"/>
</svg>
