<svg width="127" height="39" viewBox="0 0 127 39" fill="none" xmlns="http://www.w3.org/2000/svg">
<path d="M127 37.2363L113.208 18.4848L125.81 1.46191H121.077L110.827 15.3498L100.577 1.46191H95.873L108.446 18.5141L94.6825 37.2656H99.4154L110.827 21.737L122.267 37.2656H127" fill="white"/>
<path d="M33.0381 37.2363L19.2749 18.4848L31.8477 1.46191H27.1438L16.8939 15.3498L6.64407 1.46191H1.91113L14.5129 18.5141L0.720642 37.2656H5.45357L16.8939 21.737L28.3052 37.2656H33.0381" fill="white"/>
<path d="M49.5599 33.4858H39.0197V20.477H49.5599C53.5669 20.477 58.3289 21.5611 58.3289 26.6884C58.3289 32.6068 52.812 33.4858 49.5599 33.4858ZM39.0197 5.1829H49.5599C52.4055 5.1829 57.1965 5.88607 57.1965 10.8669C57.1965 14.6172 54.409 16.8732 49.5599 16.8732H39.0197V5.1829ZM59.229 19.8324C58.4741 19.1879 57.6901 18.6898 56.8771 18.3382C59.4613 16.9318 61.1745 14.2656 61.1745 11.1892C61.1745 8.90388 60.3324 1.46191 49.5308 1.46191H34.9836V16.9025H30.1345C29.4957 17.7229 28.0729 19.6859 27.5212 20.477H34.9836V37.2361H49.5308C57.4288 37.2361 62.3359 33.2221 62.3359 26.7763C62.365 23.9636 61.2906 21.5611 59.229 19.8324Z" fill="white"/>
<path d="M81.2676 34.248C73.573 34.248 68.2013 28.1244 68.2013 19.3346C68.2013 10.5448 73.573 4.42122 81.2676 4.42122C88.9333 4.42122 94.276 10.5448 94.276 19.3346C94.276 28.0951 88.9333 34.248 81.2676 34.248ZM81.2676 0.641602C71.163 0.641602 64.1362 8.31804 64.1362 19.3346C64.1362 30.3512 71.163 38.0276 81.2676 38.0276C91.3142 38.0276 98.3411 30.3512 98.3411 19.3346C98.3411 8.31804 91.3142 0.641602 81.2676 0.641602Z" fill="white"/>
</svg>
