<svg width="40" height="35" viewBox="0 0 40 35" fill="none" xmlns="http://www.w3.org/2000/svg">
<rect width="11.2445" height="2.18075" rx="1.09037" transform="matrix(1 0 0 -1 0 22.6252)" fill="#202124"/>
<rect width="8.04151" height="2.18075" rx="1.09037" transform="matrix(1 0 0 -1 2.65808 30.1215)" fill="#202124"/>
<rect width="6.74669" height="2.18075" rx="1.09037" transform="matrix(1 0 0 -1 5.1792 15.197)" fill="#202124"/>
<rect width="2.18075" height="2.18075" rx="1.09037" transform="matrix(1 0 0 -1 1.56757 15.197)" fill="#202124"/>
<path d="M39.9834 28.7731L38.4254 9.13888C38.3287 7.87384 37.2584 6.8833 35.9899 6.8833H32.9121V11.4436C32.9121 12.0083 32.4549 12.4655 31.8902 12.4655C31.3261 12.4655 30.8683 12.0083 30.8683 11.4436V6.8833H21.4672V11.4436C21.4672 12.0083 21.0093 12.4655 20.4453 12.4655C19.8805 12.4655 19.4234 12.0083 19.4234 11.4436V6.8833H16.3455C15.0771 6.8833 14.0068 7.87384 13.9101 9.13615L12.3514 28.7758C12.2309 30.3488 12.7765 31.9143 13.8481 33.071C14.9197 34.2277 16.4389 34.892 18.016 34.892H34.3196C35.8966 34.892 37.4158 34.2277 38.4874 33.071C39.559 31.9142 40.1047 30.3487 39.9834 28.7731ZM30.7716 18.7744L25.4865 24.0595C25.2869 24.2591 25.0253 24.3592 24.7637 24.3592C24.5021 24.3592 24.2405 24.2591 24.0409 24.0595L21.5639 21.5825C21.1647 21.1833 21.1647 20.5368 21.5639 20.1376C21.9631 19.7383 22.6104 19.7383 23.0089 20.1376L24.7638 21.8918L29.3267 17.3288C29.7253 16.9303 30.3725 16.9303 30.7717 17.3288C31.1708 17.728 31.1708 18.3752 30.7716 18.7744Z" fill="#202124"/>
<path d="M18.8771 6.88293H20.9216V11.4489C20.9216 12.0134 20.4639 12.4711 19.8994 12.4711C19.3348 12.4711 18.8771 12.0134 18.8771 11.4489V6.88293Z" fill="white"/>
<path d="M30.3262 6.8829H32.3707V11.4488C32.3707 12.0134 31.913 12.4711 31.3485 12.4711C30.7839 12.4711 30.3262 12.0134 30.3262 11.4488V6.8829Z" fill="white"/>
<path d="M26.1677 0C22.4488 0 19.4234 3.02606 19.4234 6.74499V6.88326H21.4672V6.74499C21.4672 4.15283 23.5756 2.0437 26.1678 2.0437C28.7599 2.0437 30.8684 4.15283 30.8684 6.74499V6.88326H32.9121V6.74499C32.912 3.02606 29.8866 0 26.1677 0Z" fill="#202124"/>
<path d="M19.4224 6.88297H21.4668V11.4489C21.4668 12.0135 21.0091 12.4711 20.4446 12.4711V12.4711C19.88 12.4711 19.4224 12.0135 19.4224 11.4489V6.88297Z" fill="#202124"/>
<path d="M30.8715 6.88293H32.916V11.4489C32.916 12.0134 32.4583 12.4711 31.8937 12.4711V12.4711C31.3292 12.4711 30.8715 12.0134 30.8715 11.4489V6.88293Z" fill="#202124"/>
</svg>
