<svg width="179" height="56" viewBox="0 0 179 56" fill="none" xmlns="http://www.w3.org/2000/svg">
<path d="M167.943 0H10.9091C4.88417 0 0 4.8515 0 10.8361V44.2C0 50.1846 4.88417 55.0361 10.9091 55.0361H167.943C173.968 55.0361 178.852 50.1846 178.852 44.2V10.8361C178.852 4.8515 173.968 0 167.943 0Z" fill="#8A8A8A"/>
<path d="M35.8743 26.1311L21.7322 11.9539L39.7255 22.2809L35.8743 26.1311ZM18.0413 11.1211C17.2082 11.5567 16.6508 12.3511 16.6508 13.3825V41.6537C16.6508 42.6851 17.2082 43.4793 18.0413 43.915L34.4839 27.5149L18.0413 11.1211ZM45.2877 25.5738L41.5134 23.3892L37.3034 27.5213L41.5134 31.6532L45.3643 29.4689C46.5178 28.5526 46.5178 26.4898 45.2877 25.5738ZM21.7322 43.0886L39.7255 32.7617L35.8743 28.9114L21.7322 43.0886Z" fill="white"/>
<path d="M60.7165 12.5926C60.5512 12.2763 60.3215 12.0391 60.0275 11.8809C59.7336 11.7167 59.3937 11.6345 59.0078 11.6345C58.5852 11.6345 58.2086 11.7288 57.8779 11.9174C57.5472 12.106 57.2868 12.3737 57.097 12.7204C56.9133 13.0671 56.8214 13.4686 56.8214 13.9249C56.8214 14.3811 56.9133 14.7857 57.097 15.1385C57.2868 15.4852 57.5472 15.7529 57.8779 15.9415C58.2086 16.1301 58.5852 16.2244 59.0078 16.2244C59.5774 16.2244 60.0399 16.0662 60.395 15.7499C60.7501 15.4335 60.9677 15.0047 61.0472 14.4632H58.6495V13.6329H62.168V14.445C62.1006 14.9377 61.9231 15.3909 61.6352 15.8046C61.3536 16.2183 60.9829 16.5498 60.5236 16.7992C60.0703 17.0425 59.5651 17.1642 59.0078 17.1642C58.4075 17.1642 57.8595 17.0273 57.3634 16.7536C56.8673 16.4738 56.4723 16.0875 56.1784 15.5947C55.8904 15.102 55.7466 14.5454 55.7466 13.9249C55.7466 13.3044 55.8904 12.7478 56.1784 12.255C56.4723 11.7623 56.8673 11.379 57.3634 11.1053C57.8655 10.8255 58.4139 10.6855 59.0078 10.6855C59.6876 10.6855 60.2908 10.8528 60.8176 11.1874C61.3504 11.5159 61.7362 11.9843 61.9751 12.5926H60.7165ZM64.2482 11.6072V13.4686H66.453V14.3173H64.2482V16.2609H66.7286V17.1095H63.2009V10.7585H66.7286V11.6072H64.2482ZM72.1432 10.7677V11.6163H70.4437V17.1095H69.3964V11.6163H67.6877V10.7677H72.1432ZM76.6375 10.7677V17.1095H75.5902V10.7677H76.6375ZM82.1374 10.7677V11.6163H80.4379V17.1095H79.3906V11.6163H77.6819V10.7677H82.1374ZM88.4965 17.1733C87.9023 17.1733 87.3542 17.0365 86.8521 16.7627C86.356 16.4829 85.961 16.0966 85.6671 15.6039C85.3791 15.105 85.2353 14.5454 85.2353 13.9249C85.2353 13.3044 85.3791 12.7478 85.6671 12.255C85.961 11.7623 86.356 11.379 86.8521 11.1053C87.3542 10.8255 87.9023 10.6855 88.4965 10.6855C89.0965 10.6855 89.6448 10.8255 90.1409 11.1053C90.643 11.379 91.0381 11.7623 91.326 12.255C91.6137 12.7478 91.7578 13.3044 91.7578 13.9249C91.7578 14.5454 91.6137 15.105 91.326 15.6039C91.0381 16.0966 90.643 16.4829 90.1409 16.7627C89.6448 17.0365 89.0965 17.1733 88.4965 17.1733ZM88.4965 16.27C88.9191 16.27 89.2958 16.1757 89.6265 15.9871C89.9572 15.7924 90.2144 15.5187 90.3981 15.1659C90.5879 14.8069 90.6829 14.3933 90.6829 13.9249C90.6829 13.4565 90.5879 13.0458 90.3981 12.693C90.2144 12.3402 89.9572 12.0695 89.6265 11.8809C89.2958 11.6923 88.9191 11.598 88.4965 11.598C88.0739 11.598 87.6973 11.6923 87.3666 11.8809C87.0359 12.0695 86.7755 12.3402 86.5857 12.693C86.402 13.0458 86.3101 13.4565 86.3101 13.9249C86.3101 14.3933 86.402 14.8069 86.5857 15.1659C86.7755 15.5187 87.0359 15.7924 87.3666 15.9871C87.6973 16.1757 88.0739 16.27 88.4965 16.27ZM98.0339 17.1095H96.9867L93.8357 12.3736V17.1095H92.7884V10.7585H93.8357L96.9867 15.4852V10.7585H98.0339V17.1095Z" fill="white"/>
<path d="M65.6946 31.6929C65.3742 31.0801 64.9292 30.6204 64.3597 30.3139C63.7901 29.9956 63.1315 29.8365 62.384 29.8365C61.5652 29.8365 60.8354 30.0193 60.1947 30.3846C59.5539 30.7499 59.0495 31.2686 58.6818 31.9404C58.3258 32.6122 58.1478 33.3902 58.1478 34.2742C58.1478 35.1582 58.3258 35.9421 58.6818 36.6256C59.0495 37.2974 59.5539 37.8161 60.1947 38.1814C60.8354 38.5467 61.5652 38.7295 62.384 38.7295C63.4875 38.7295 64.3835 38.423 65.0716 37.8102C65.7597 37.1973 66.1812 36.3664 66.3353 35.3173H61.6898V33.7084H68.5068V35.2819C68.3762 36.2366 68.0323 37.1146 67.4745 37.9162C66.9287 38.7178 66.2108 39.36 65.3208 39.8433C64.4426 40.3147 63.4637 40.5505 62.384 40.5505C61.221 40.5505 60.1591 40.2853 59.1979 39.755C58.2368 39.2129 57.4714 38.4643 56.9019 37.5096C56.3441 36.5549 56.0653 35.4764 56.0653 34.2742C56.0653 33.0719 56.3441 31.9934 56.9019 31.0387C57.4714 30.084 58.2368 29.3415 59.1979 28.8111C60.1709 28.269 61.2331 27.9978 62.384 27.9978C63.7011 27.9978 64.8698 28.322 65.8904 28.9702C66.9227 29.6067 67.6703 30.5143 68.133 31.6929H65.6946ZM74.762 40.6036C73.8365 40.6036 72.9999 40.3974 72.2524 39.9848C71.5048 39.5605 70.9174 38.971 70.4903 38.2168C70.0631 37.4506 69.8495 36.5666 69.8495 35.5648C69.8495 34.5747 70.0691 33.6967 70.5081 32.9305C70.947 32.1643 71.5464 31.5751 72.3058 31.1625C73.0651 30.7499 73.9137 30.5437 74.851 30.5437C75.7883 30.5437 76.637 30.7499 77.3963 31.1625C78.1556 31.5751 78.7551 32.1643 79.194 32.9305C79.6329 33.6967 79.8526 34.5747 79.8526 35.5648C79.8526 36.5549 79.6272 37.4329 79.1762 38.1991C78.7252 38.9653 78.1083 39.5605 77.3251 39.9848C76.5537 40.3974 75.6994 40.6036 74.762 40.6036ZM74.762 38.8533C75.2842 38.8533 75.7706 38.7295 76.2216 38.482C76.6843 38.2345 77.0581 37.8632 77.3429 37.3682C77.6277 36.8731 77.7701 36.272 77.7701 35.5648C77.7701 34.8576 77.6337 34.2625 77.3607 33.7791C77.0877 33.2841 76.726 32.9128 76.275 32.6653C75.824 32.4178 75.3376 32.294 74.8154 32.294C74.2932 32.294 73.8069 32.4178 73.3559 32.6653C72.917 32.9128 72.5667 33.2841 72.3058 33.7791C72.0448 34.2625 71.9142 34.8576 71.9142 35.5648C71.9142 36.6139 72.1812 37.4272 72.7151 38.0046C73.2609 38.5704 73.9433 38.8533 74.762 38.8533ZM86.1124 40.6036C85.1868 40.6036 84.3503 40.3974 83.6027 39.9848C82.8551 39.5605 82.2678 38.971 81.8406 38.2168C81.4134 37.4506 81.1998 36.5666 81.1998 35.5648C81.1998 34.5747 81.4195 33.6967 81.8584 32.9305C82.2976 32.1643 82.8968 31.5751 83.6561 31.1625C84.4157 30.7499 85.264 30.5437 86.2014 30.5437C87.139 30.5437 87.9873 30.7499 88.7466 31.1625C89.5062 31.5751 90.1054 32.1643 90.5443 32.9305C90.9836 33.6967 91.2029 34.5747 91.2029 35.5648C91.2029 36.5549 90.9775 37.4329 90.5265 38.1991C90.0758 38.9653 89.4586 39.5605 88.6754 39.9848C87.9043 40.3974 87.05 40.6036 86.1124 40.6036ZM86.1124 38.8533C86.6346 38.8533 87.1212 38.7295 87.5719 38.482C88.0347 38.2345 88.4084 37.8632 88.6932 37.3682C88.978 36.8731 89.1204 36.272 89.1204 35.5648C89.1204 34.8576 88.984 34.2625 88.711 33.7791C88.4383 33.2841 88.0763 32.9128 87.6253 32.6653C87.1746 32.4178 86.688 32.294 86.1658 32.294C85.6439 32.294 85.1572 32.4178 84.7062 32.6653C84.2673 32.9128 83.9173 33.2841 83.6561 33.7791C83.3951 34.2625 83.2645 34.8576 83.2645 35.5648C83.2645 36.6139 83.5315 37.4272 84.0655 38.0046C84.6115 38.5704 85.2936 38.8533 86.1124 38.8533ZM97.1601 30.5437C97.9197 30.5437 98.5901 30.6968 99.1714 31.0034C99.7648 31.2979 100.228 31.6692 100.56 32.1172V30.7028H102.607V40.6036C102.607 41.4993 102.417 42.2949 102.037 42.9904C101.658 43.6976 101.106 44.2516 100.382 44.6523C99.6698 45.0529 98.8154 45.2534 97.8187 45.2534C96.4898 45.2534 95.3862 44.9412 94.5081 44.3164C93.6302 43.7036 93.1318 42.8666 93.0129 41.8058H95.0242C95.1787 42.3126 95.5048 42.7192 96.0032 43.0257C96.5136 43.344 97.1188 43.5031 97.8187 43.5031C98.6374 43.5031 99.296 43.2556 99.7944 42.7605C100.305 42.2655 100.56 41.5466 100.56 40.6036V38.977C100.216 39.4367 99.747 39.8257 99.1536 40.1439C98.5723 40.4505 97.9077 40.6036 97.1601 40.6036C96.3058 40.6036 95.5226 40.3914 94.8106 39.9671C94.1107 39.5311 93.5529 38.93 93.1375 38.1638C92.7342 37.3858 92.5324 36.5078 92.5324 35.5294C92.5324 34.5511 92.7342 33.6847 93.1375 32.9305C93.5529 32.1762 94.1107 31.5928 94.8106 31.1802C95.5226 30.7559 96.3058 30.5437 97.1601 30.5437ZM100.56 35.5648C100.56 34.893 100.417 34.3095 100.133 33.8145C99.8598 33.3194 99.4978 32.9422 99.0468 32.683C98.5961 32.4238 98.1095 32.294 97.5873 32.294C97.0654 32.294 96.5788 32.4238 96.1278 32.683C95.677 32.9305 95.309 33.3018 95.0242 33.7968C94.7515 34.2802 94.6148 34.8576 94.6148 35.5294C94.6148 36.2013 94.7515 36.7907 95.0242 37.2974C95.309 37.8042 95.677 38.1931 96.1278 38.4643C96.5905 38.7235 97.0771 38.8533 97.5873 38.8533C98.1095 38.8533 98.5961 38.7235 99.0468 38.4643C99.4978 38.2051 99.8598 37.8278 100.133 37.3328C100.417 36.8261 100.56 36.2366 100.56 35.5648ZM107.301 27.3613V40.4445H105.272V27.3613H107.301ZM118.954 35.335C118.954 35.7003 118.93 36.0305 118.882 36.325H111.389C111.448 37.103 111.739 37.7277 112.261 38.1991C112.783 38.6705 113.424 38.9063 114.183 38.9063C115.275 38.9063 116.046 38.4526 116.497 37.545H118.687C118.39 38.4406 117.85 39.1775 117.067 39.755C116.295 40.3207 115.334 40.6036 114.183 40.6036C113.246 40.6036 112.404 40.3974 111.656 39.9848C110.92 39.5605 110.339 38.971 109.912 38.2168C109.496 37.4506 109.289 36.5666 109.289 35.5648C109.289 34.563 109.49 33.6847 109.894 32.9305C110.309 32.1643 110.885 31.5751 111.62 31.1625C112.368 30.7499 113.222 30.5437 114.183 30.5437C115.109 30.5437 115.933 30.7442 116.658 31.1448C117.381 31.5455 117.945 32.1112 118.348 32.8421C118.752 33.561 118.954 34.3919 118.954 35.335ZM116.835 34.6985C116.823 33.9559 116.556 33.3608 116.035 32.9128C115.512 32.4648 114.866 32.241 114.094 32.241C113.394 32.241 112.795 32.4648 112.297 32.9128C111.798 33.3488 111.502 33.9442 111.407 34.6985H116.835ZM134.224 31.8166C134.224 32.4414 134.076 33.0306 133.779 33.5846C133.482 34.1387 133.008 34.5924 132.355 34.946C131.703 35.2879 130.866 35.4587 129.846 35.4587H127.603V40.4445H125.574V28.1569H129.846C130.795 28.1569 131.596 28.322 132.249 28.6519C132.913 28.9702 133.406 29.4062 133.726 29.9603C134.058 30.5143 134.224 31.1331 134.224 31.8166ZM129.846 33.8145C130.617 33.8145 131.192 33.6437 131.572 33.3018C131.952 32.9482 132.142 32.4531 132.142 31.8166C132.142 30.473 131.376 29.8011 129.846 29.8011H127.603V33.8145H129.846ZM138.189 27.3613V40.4445H136.16V27.3613H138.189ZM140.176 35.5294C140.176 34.5511 140.378 33.6847 140.781 32.9305C141.197 32.1762 141.754 31.5928 142.454 31.1802C143.166 30.7559 143.949 30.5437 144.804 30.5437C145.575 30.5437 146.246 30.6968 146.815 31.0034C147.397 31.2979 147.859 31.6692 148.203 32.1172V30.7028H150.25V40.4445H148.203V38.9947C147.859 39.4544 147.391 39.8374 146.797 40.1439C146.204 40.4505 145.528 40.6036 144.768 40.6036C143.926 40.6036 143.155 40.3914 142.454 39.9671C141.754 39.5311 141.197 38.93 140.781 38.1638C140.378 37.3858 140.176 36.5078 140.176 35.5294ZM148.203 35.5648C148.203 34.893 148.061 34.3095 147.776 33.8145C147.504 33.3194 147.142 32.9422 146.69 32.683C146.24 32.4238 145.753 32.294 145.231 32.294C144.709 32.294 144.222 32.4238 143.771 32.683C143.321 32.9305 142.953 33.3018 142.668 33.7968C142.395 34.2802 142.259 34.8576 142.259 35.5294C142.259 36.2013 142.395 36.7907 142.668 37.2974C142.953 37.8042 143.321 38.1931 143.771 38.4643C144.234 38.7235 144.721 38.8533 145.231 38.8533C145.753 38.8533 146.24 38.7235 146.69 38.4643C147.142 38.2051 147.504 37.8278 147.776 37.3328C148.061 36.8261 148.203 36.2366 148.203 35.5648ZM161.744 30.7028L155.728 45.0236H153.628L155.621 40.2853L151.759 30.7028H154.019L156.778 38.1284L159.644 30.7028H161.744Z" fill="white"/>
</svg>
