<svg width="64" height="64" viewBox="0 0 64 64" fill="none" xmlns="http://www.w3.org/2000/svg">
<path d="M52.7872 15.3856L35.2 5.23526C33.2288 4.09606 30.7712 4.09606 28.8 5.23526L11.2128 15.3856C9.24162 16.5248 8.01282 18.6496 8.01282 20.928V41.2416C8.01282 43.52 9.24162 45.6448 11.2128 46.784L28.8 56.9344C29.7856 57.5104 30.8992 57.792 32 57.792C33.1008 57.792 34.2144 57.5104 35.2 56.9344L52.7872 46.784C54.7584 45.6448 55.9872 43.52 55.9872 41.2416V20.928C55.9872 18.6496 54.7584 16.5248 52.7872 15.3856ZM55.4752 41.2416C55.4752 43.3408 54.3488 45.2864 52.5312 46.336L34.944 56.4992C33.1264 57.5488 30.8736 57.5488 29.056 56.4992L11.4688 46.336C9.65122 45.2864 8.52482 43.3408 8.52482 41.2416V20.928C8.52482 18.8288 9.65122 16.8832 11.4688 15.8336L29.056 5.68326C29.9648 5.15846 30.976 4.90246 32 4.90246C33.024 4.90246 34.0352 5.17126 34.944 5.68326L52.5312 15.8336C54.3488 16.8832 55.4752 18.8288 55.4752 20.928V41.2416Z" fill="#5526C4"/>
<path d="M26.9568 28.1982H34.4832C35.8912 28.1982 37.0432 27.0462 37.0432 25.6382V9.38218L34.56 7.96139C32.9728 7.05259 31.0272 7.05259 29.44 7.96139L13.248 17.3054C11.6608 18.2142 10.688 19.9038 10.688 21.7342V40.435C10.688 42.2654 11.6608 43.955 13.248 44.8638L20.4672 49.0366V20.339C20.4672 18.931 21.6192 17.779 23.0272 17.779H26.9568V28.1982Z" fill="black"/>
<path d="M50.752 17.3056L43.5328 13.1328V41.8304C43.5328 43.2384 42.3808 44.3904 40.9728 44.3904H37.0432V33.6896C37.0432 33.5488 36.928 33.4336 36.7872 33.4336H29.5168C28.1088 33.4336 26.9568 34.5856 26.9568 35.9936V52.7744L29.44 54.208C31.0272 55.1168 32.9728 55.1168 34.56 54.208L50.752 44.864C52.3392 43.9552 53.312 42.2656 53.312 40.4352V21.7344C53.312 19.904 52.3392 18.2144 50.752 17.3056Z" fill="#5526C4"/>
</svg>
